<svg width="40" height="40" viewBox="0 0 40 40" fill="none" xmlns="http://www.w3.org/2000/svg">
<path d="M33.9863 5.96875H5.98633V29.9688H33.9863V5.96875Z" fill="white"/>
<path fill-rule="evenodd" clip-rule="evenodd" d="M40 20C40 31.0458 31.0458 40 20 40C8.9543 40 0 31.0458 0 20C0 8.9543 8.9543 0 20 0C31.0458 0 40 8.9543 40 20ZM14.3326 27.959H10.4511C9.63553 27.959 9.23265 27.959 8.987 27.8019C8.72168 27.6298 8.55955 27.3449 8.53989 27.0304C8.52514 26.7406 8.7266 26.3867 9.12948 25.6792L18.7132 8.78655C19.121 8.06921 19.3274 7.71055 19.5878 7.5779C19.8678 7.43542 20.2019 7.43542 20.482 7.5779C20.7424 7.71055 20.9488 8.06921 21.3565 8.78655L23.3268 12.2258L23.3368 12.2434C23.7773 13.0129 24.0006 13.4032 24.0981 13.8128C24.2062 14.2599 24.2062 14.7315 24.0981 15.1786C23.9999 15.5913 23.7788 15.9844 23.3317 16.7656L18.2976 25.6645L18.2845 25.6873C17.8412 26.4632 17.6165 26.8565 17.3051 27.1531C16.9661 27.4775 16.5583 27.7132 16.1112 27.8461C15.7034 27.959 15.2464 27.959 14.3326 27.959ZM24.1345 27.959H29.6961C30.5166 27.959 30.9294 27.959 31.1752 27.7971C31.4405 27.625 31.6075 27.335 31.6224 27.0208C31.6365 26.7403 31.4394 26.4003 31.0533 25.7339C31.0399 25.7112 31.0266 25.6881 31.0131 25.6646L28.2272 20.8988L28.1955 20.8451C27.804 20.1831 27.6064 19.8488 27.3526 19.7196C27.0727 19.5771 26.7433 19.5771 26.4634 19.7196C26.2079 19.8523 26.0015 20.2011 25.5937 20.9037L22.8177 25.6695L22.8082 25.6859C22.4019 26.3874 22.1988 26.7379 22.2134 27.0256C22.2331 27.3401 22.3952 27.6298 22.6605 27.8019C22.9013 27.959 23.314 27.959 24.1345 27.959Z" fill="#E84142"/>
</svg>
