<svg width="40" height="40" viewBox="0 0 40 40" fill="none" xmlns="http://www.w3.org/2000/svg">
<path fill-rule="evenodd" clip-rule="evenodd" d="M20.0001 0L7.72011 6.12683L12.2348 8.39028L20.0001 4.52683L27.7652 8.39028L32.28 6.12683L20.0001 0ZM27.7652 11.5903L32.28 13.8537V18.3805L24.5146 22.2439V29.9708L20.0001 32.2343L15.4854 29.9708V22.2439L7.72011 18.3805V13.8537L12.2348 11.5903L20.0001 15.4536L27.7652 11.5903ZM32.28 21.5805V26.1074L27.7652 28.3709V23.8439L32.28 21.5805ZM27.7201 31.5707L35.4855 27.7073V19.9805L40 17.7171V29.9708L27.7201 36.0975V31.5707ZM35.4855 12.2537L30.9707 9.99028L35.4855 7.72684L40 9.99028V14.5171L35.4855 16.7806V12.2537ZM15.4854 37.7367V33.2098L20.0001 35.4732L24.5146 33.2098V37.7367L20.0001 40L15.4854 37.7367ZM12.2348 28.3709L7.72011 26.1074V21.5805L12.2348 23.8439V28.3709ZM20.0001 12.2537L15.4854 9.99028L20.0001 7.72684L24.5146 9.99028L20.0001 12.2537ZM9.02937 9.99028L4.51467 12.2537V16.7806L0 14.5171V9.99028L4.51467 7.72684L9.02937 9.99028ZM0 17.7171L4.51467 19.9805V27.7073L12.2799 31.5707V36.0975L0 29.9708V17.7171Z" fill="#F0B90B"/>
</svg>
