<svg width="80" height="82" viewBox="0 0 80 82" fill="none" xmlns="http://www.w3.org/2000/svg" xmlns:xlink="http://www.w3.org/1999/xlink">
<circle cx="40.2155" cy="40.9999" r="40.2155" fill="#E4D2B6"/>
<path d="M40.2163 3.46533L34.0938 15.6773L59.2939 66.0228H71.4947L40.2163 3.46533Z" fill="#0D3526"/>
<path d="M14.084 55.6927L8.9375 66.0229H49.6216V46.7065H29.9229C23.046 46.7065 16.8347 50.2396 14.084 55.6927Z" fill="#4D5DA7"/>
<path d="M28.7691 26.3531L23.6226 36.6065C22.6909 38.4498 22.6909 40.4851 23.6226 42.3285C24.9536 44.9782 27.9262 46.6679 31.2536 46.6679H35.4241C39.772 46.6679 43.6319 44.2486 44.9629 40.6772C45.4066 39.5251 45.3622 38.2194 44.7854 37.1057L39.4614 26.3531C38.5297 24.5097 36.4002 23.3193 34.0931 23.3193C31.7417 23.3193 29.7008 24.5097 28.7691 26.3531Z" fill="#9B3015"/>
<rect x="84.0059" y="18.658" width="226.994" height="62.5575" fill="url(#pattern0)"/>
</svg>
