<svg width="88" height="54" viewBox="0 0 88 54" fill="none" xmlns="http://www.w3.org/2000/svg">
<path d="M36.7495 29.5944C36.4931 28.8336 32.9695 23.6892 32.8915 22.3265V17.6705C32.8922 17.3421 32.8145 17.0185 32.6649 16.7277C32.5153 16.4368 32.2984 16.1874 32.0329 16.0011C25.5433 11.3678 22.5104 3.53211 22.0198 3.48669C21.5292 3.44126 21.7076 4.81535 21.15 5.16739C21.0936 5.20275 21.0294 5.22333 20.9633 5.2273C20.8971 5.23126 20.831 5.21848 20.7709 5.1901C20.6367 5.12178 20.5331 5.00405 20.481 4.86078C19.6893 2.55548 19.1653 1.14732 18.8419 0.318327C18.806 0.22455 18.7432 0.143988 18.6616 0.0871885C18.5801 0.0303892 18.4835 0 18.3847 0C18.2859 0 18.1894 0.0303892 18.1078 0.0871885C18.0263 0.143988 17.9634 0.22455 17.9276 0.318327C17.6042 1.14732 17.0801 2.55548 16.2884 4.86078C16.2363 5.00405 16.1327 5.12178 15.9985 5.1901C15.9384 5.21848 15.8723 5.23126 15.8062 5.2273C15.74 5.22333 15.6759 5.20275 15.6194 5.16739C15.0619 4.81535 15.3184 3.4299 14.7497 3.48669C14.181 3.54347 11.2484 11.3224 4.79232 15.9557C4.51194 16.1569 4.28341 16.424 4.12616 16.7344C3.96891 17.0448 3.8876 17.3893 3.88913 17.7386V22.3265C3.79993 23.6892 0.276386 28.8336 0.0199256 29.5944C-0.303438 30.537 3.39851 27.0734 4.62506 25.9037C4.65754 25.8709 4.69914 25.849 4.74421 25.8411C4.78928 25.8332 4.83565 25.8396 4.87703 25.8595C4.91841 25.8793 4.9528 25.9116 4.97555 25.952C4.99829 25.9924 5.00829 26.039 5.00418 26.0854V35.386C5.00177 35.9192 4.82962 36.4373 4.51356 36.8623C3.60174 38.0497 2.54934 39.1177 1.38028 40.042C1.37209 40.0508 1.36632 40.0615 1.36355 40.0732C1.36078 40.085 1.36112 40.0972 1.36452 40.1088C1.36792 40.1203 1.37427 40.1307 1.38291 40.139C1.39156 40.1472 1.40219 40.1529 1.41373 40.1556C1.88205 40.2805 2.68488 40.7007 4.11214 41.8704C4.61364 42.2781 4.97962 42.8332 5.16029 43.4602C5.38329 44.2438 5.37214 46.0381 5.23834 46.833C5.37162 46.8042 5.49033 46.7277 5.57285 46.6172C5.71832 46.4291 5.82455 46.2127 5.88507 45.9813C6.09692 45.2204 6.59869 43.1763 6.05232 42.1429C5.83674 41.7143 5.54134 41.3324 5.18259 41.0187C5.14164 40.9814 5.10863 40.936 5.08562 40.8852C5.0626 40.8344 5.05007 40.7793 5.04878 40.7234C5.04833 40.4532 5.11698 40.1876 5.24798 39.9526C5.37898 39.7176 5.5678 39.5215 5.79586 39.3834L7.50188 38.35C7.78159 38.1795 8.10138 38.0892 8.42737 38.0888C8.5427 38.0888 8.65331 38.1355 8.73487 38.2185C8.81642 38.3016 8.86224 38.4142 8.86224 38.5317L8.80648 53.4082C8.80648 53.7375 8.99604 54.0214 9.31941 53.9987C9.64277 53.976 9.69852 53.817 9.78773 53.4196C10.0219 52.4316 12.8429 35.8516 12.8429 35.8516C12.8429 35.8516 12.8653 34.9659 13.4228 34.9091C13.9803 34.8523 14.0026 35.6699 14.0026 35.6699L15.2514 42.3246C15.2514 42.3246 15.2849 42.7221 15.5302 42.688C15.7755 42.654 15.6083 42.3246 15.5971 42.2224C15.5978 42.2029 15.594 42.1834 15.586 42.1656L14.8946 28.209C14.8849 28.0792 14.8493 27.9528 14.7898 27.8376C14.7304 27.7223 14.6484 27.6207 14.549 27.539C13.8242 26.9598 12.1293 25.404 12.3412 23.6097C12.4538 22.7246 12.6787 21.8581 13.0102 21.0319C13.3982 20.0266 13.9361 19.0882 14.6047 18.2496L17.7715 14.2069C17.8457 14.1142 17.9392 14.0396 18.0453 13.9883C18.1514 13.9371 18.2673 13.9105 18.3847 13.9105C18.5021 13.9105 18.6181 13.9371 18.7241 13.9883C18.8302 14.0396 18.9238 14.1142 18.998 14.2069L22.1647 18.2496C22.8334 19.0882 23.3712 20.0266 23.7592 21.0319C24.0907 21.8581 24.3156 22.7246 24.4283 23.6097C24.629 25.3245 23.0902 26.8235 22.3208 27.4595C22.1877 27.5651 22.0788 27.6992 22.0017 27.8522C21.9247 28.0051 21.8814 28.1734 21.8748 28.3452L21.1835 42.177V42.2224C21.1723 42.3133 21.1389 42.6653 21.2504 42.688C21.3619 42.7107 21.5403 42.3246 21.5403 42.3246L22.778 35.6699C22.778 35.6699 22.8003 34.8637 23.3578 34.9091C23.9154 34.9545 23.9377 35.8403 23.9377 35.8516C23.9377 35.863 26.7587 52.4316 26.9929 53.4196C27.0821 53.817 27.2605 53.9874 27.4612 53.9987C27.6619 54.0101 27.9741 53.7375 27.9741 53.4082L27.9184 38.5317C27.9184 38.4142 27.9642 38.3016 28.0457 38.2185C28.1273 38.1355 28.2379 38.0888 28.3532 38.0888C28.6792 38.0892 28.999 38.1795 29.2787 38.35L30.9847 39.3834C31.2143 39.5197 31.4044 39.7155 31.5356 39.9509C31.6668 40.1862 31.7345 40.4528 31.7318 40.7234C31.7305 40.7793 31.718 40.8344 31.695 40.8852C31.672 40.936 31.639 40.9814 31.598 41.0187C31.2393 41.3324 30.9439 41.7143 30.7283 42.1429C30.1819 43.1763 30.6837 45.2204 30.8955 45.9813C30.956 46.2127 31.0623 46.4291 31.2077 46.6172C31.2903 46.7277 31.409 46.8042 31.5423 46.833C31.4085 46.0381 31.3973 44.2438 31.6203 43.4602C31.801 42.8332 32.167 42.2781 32.6685 41.8704C34.0957 40.7007 34.8986 40.2805 35.3669 40.1556C35.3784 40.1529 35.389 40.1472 35.3977 40.139C35.4063 40.1307 35.4127 40.1203 35.4161 40.1088C35.4195 40.0972 35.4198 40.085 35.417 40.0732C35.4143 40.0615 35.4085 40.0508 35.4003 40.042C34.201 39.0954 33.1255 37.9962 32.2001 36.7715C31.9286 36.3961 31.7803 35.9431 31.7764 35.4769V26.0854C31.7723 26.039 31.7823 25.9924 31.8051 25.952C31.8278 25.9116 31.8622 25.8793 31.9036 25.8595C31.945 25.8396 31.9913 25.8332 32.0364 25.8411C32.0815 25.849 32.1231 25.8709 32.1555 25.9037C33.3709 27.0734 37.0729 30.537 36.7495 29.5944Z" fill="url(#paint0_linear_1545_343)"/>
<path d="M58.8272 10.5957L60.3994 8.51755C60.4196 8.48934 60.4319 8.45607 60.435 8.42129C60.4381 8.38651 60.4319 8.35153 60.417 8.32006C60.4021 8.2886 60.3791 8.26183 60.3505 8.24261C60.3219 8.2234 60.2887 8.21245 60.2544 8.21094H43.8521C43.8159 8.21085 43.7804 8.22133 43.7499 8.24114C43.7193 8.26094 43.695 8.28925 43.6797 8.32269C43.6645 8.35614 43.659 8.39334 43.6638 8.42988C43.6687 8.46643 43.6837 8.50079 43.7071 8.52891L45.4578 10.5957C45.473 10.6124 45.4849 10.6321 45.4925 10.6536C45.5002 10.675 45.5035 10.6978 45.5024 10.7206V43.5285C45.5022 43.5796 45.4822 43.6286 45.4466 43.6648L43.7517 45.459C43.7253 45.486 43.7073 45.5204 43.7001 45.5578C43.6928 45.5951 43.6965 45.6339 43.7109 45.6691C43.7252 45.7043 43.7494 45.7344 43.7805 45.7557C43.8116 45.7769 43.8481 45.7883 43.8855 45.7884H49.4385C49.4879 45.7856 49.5346 45.7644 49.5695 45.7288C49.6045 45.6931 49.6254 45.6456 49.628 45.5953V27.028C49.6249 26.827 49.6966 26.6323 49.8287 26.4829L51.8247 24.5638C51.8596 24.5227 51.9025 24.4894 51.9505 24.4659C51.9986 24.4424 52.0509 24.4292 52.1042 24.427C52.1575 24.4249 52.2106 24.4339 52.2604 24.4535C52.3101 24.4731 52.3554 24.5029 52.3933 24.541L54.3558 26.5057C54.4261 26.5725 54.4822 26.6534 54.5206 26.7433C54.5589 26.8331 54.5788 26.93 54.5788 27.028L54.6457 45.5953C54.6484 45.6456 54.6692 45.6931 54.7042 45.7288C54.7392 45.7644 54.7859 45.7856 54.8353 45.7884H60.221C60.2572 45.7884 60.2927 45.778 60.3232 45.7582C60.3537 45.7383 60.3781 45.71 60.3933 45.6766C60.4086 45.6431 60.4141 45.6059 60.4092 45.5694C60.4044 45.5329 60.3894 45.4985 60.3659 45.4704L58.8272 43.7102C58.7974 43.6713 58.7817 43.6232 58.7826 43.5739V10.7093C58.7823 10.6883 58.7861 10.6675 58.7937 10.648C58.8014 10.6285 58.8127 10.6107 58.8272 10.5957ZM54.1551 20.9412L52.4379 19.1015C52.3953 19.0565 52.3442 19.0207 52.2877 18.9962C52.2312 18.9718 52.1704 18.9592 52.109 18.9592C52.0476 18.9592 51.9868 18.9718 51.9303 18.9962C51.8738 19.0207 51.8227 19.0565 51.7801 19.1015L49.9179 20.9525C49.8868 20.9836 49.8473 21.0048 49.8045 21.0133C49.7616 21.0218 49.7173 21.0173 49.6769 21.0003C49.6365 20.9834 49.6019 20.9548 49.5774 20.918C49.5529 20.8813 49.5394 20.838 49.5388 20.7935L49.6169 12.4581C49.6197 12.4089 49.6409 12.3627 49.6762 12.3289C49.7114 12.2951 49.758 12.2763 49.8064 12.2764H54.4004C54.4257 12.2748 54.4511 12.2786 54.4749 12.2877C54.4986 12.2968 54.5202 12.311 54.5381 12.3293C54.556 12.3475 54.5699 12.3695 54.5789 12.3937C54.5878 12.4179 54.5916 12.4437 54.59 12.4695V20.7595C54.5889 20.8103 54.5732 20.8596 54.545 20.9015C54.5167 20.9434 54.4771 20.9759 54.4309 20.9952C54.3848 21.0145 54.3341 21.0197 54.2851 21.0101C54.2361 21.0005 54.1909 20.9765 54.1551 20.9412Z" fill="white"/>
<path d="M87.6734 45.4931L86.0343 43.6648C86.0081 43.6283 85.9926 43.585 85.9897 43.5399V10.698C85.9928 10.6563 86.0084 10.6167 86.0343 10.5844L87.7068 8.49486C87.729 8.46977 87.7433 8.43856 87.748 8.40517C87.7527 8.37178 87.7475 8.33773 87.7332 8.30732C87.7189 8.27692 87.696 8.25153 87.6675 8.23437C87.639 8.21722 87.6061 8.20907 87.573 8.21096H80.2137C80.1807 8.20907 80.1478 8.21722 80.1193 8.23437C80.0908 8.25153 80.0679 8.27692 80.0536 8.30732C80.0392 8.33773 80.0341 8.37178 80.0388 8.40517C80.0435 8.43856 80.0578 8.46977 80.0799 8.49486L81.7525 10.5844C81.7784 10.6167 81.794 10.6563 81.7971 10.698V43.5399C81.7942 43.585 81.7787 43.6283 81.7525 43.6648L80.1134 45.4931C80.0931 45.5187 80.0799 45.5494 80.0754 45.582C80.0709 45.6146 80.0752 45.6479 80.0878 45.6782C80.1004 45.7085 80.1208 45.7348 80.1469 45.7542C80.173 45.7736 80.2038 45.7854 80.236 45.7884H87.5507C87.5829 45.7854 87.6137 45.7736 87.6399 45.7542C87.666 45.7348 87.6864 45.7085 87.699 45.6782C87.7116 45.6479 87.7159 45.6146 87.7114 45.582C87.7069 45.5494 87.6937 45.5187 87.6734 45.4931Z" fill="white"/>
<path d="M76.8816 37.8502L71.0945 32.8649C71.0776 32.8489 71.0641 32.8296 71.0549 32.8081C71.0457 32.7866 71.0409 32.7634 71.0409 32.74C71.0409 32.7165 71.0457 32.6933 71.0549 32.6718C71.0641 32.6503 71.0776 32.631 71.0945 32.615L76.8927 27.2095C76.908 27.1928 76.9198 27.1731 76.9275 27.1517C76.9352 27.1302 76.9385 27.1074 76.9373 27.0846V10.7091C76.9405 10.6709 76.9562 10.6349 76.9819 10.6069L78.7883 8.47192C78.8076 8.44853 78.8198 8.41998 78.8236 8.38969C78.8274 8.35939 78.8225 8.32863 78.8096 8.30108C78.7966 8.27353 78.7762 8.25036 78.7507 8.23434C78.7251 8.21832 78.6956 8.21012 78.6656 8.21072H62.0069C61.9769 8.21012 61.9474 8.21832 61.9218 8.23434C61.8963 8.25036 61.8759 8.27353 61.8629 8.30108C61.85 8.32863 61.8451 8.35939 61.8489 8.38969C61.8527 8.41998 61.8649 8.44853 61.8842 8.47192L63.6237 10.6296C63.6358 10.6434 63.645 10.6596 63.6507 10.6772C63.6565 10.6947 63.6587 10.7133 63.6571 10.7318V43.5396C63.658 43.5801 63.6463 43.6198 63.6237 43.6532L61.9177 45.5156C61.8954 45.5378 61.8801 45.5664 61.8739 45.5975C61.8677 45.6287 61.8708 45.661 61.8828 45.6903C61.8948 45.7197 61.9152 45.7447 61.9413 45.7621C61.9673 45.7795 61.998 45.7886 62.0292 45.7881H67.6267C67.6681 45.7881 67.7078 45.7714 67.7371 45.7416C67.7664 45.7118 67.7828 45.6713 67.7828 45.6292V35.9083C67.7822 35.8778 67.7903 35.8477 67.806 35.8217C67.8217 35.7957 67.8445 35.7749 67.8715 35.7617C67.8986 35.7485 67.9288 35.7436 67.9585 35.7474C67.9883 35.7513 68.0163 35.7638 68.0393 35.7834L72.7002 39.4855C72.7341 39.5181 72.7541 39.5629 72.7559 39.6104V45.6292C72.7559 45.6713 72.7724 45.7118 72.8016 45.7416C72.8309 45.7714 72.8706 45.7881 72.912 45.7881H78.6433C78.6746 45.7886 78.7052 45.7795 78.7313 45.7621C78.7574 45.7447 78.7777 45.7197 78.7897 45.6903C78.8017 45.661 78.8048 45.6287 78.7986 45.5975C78.7924 45.5664 78.7771 45.5378 78.7549 45.5156L76.9819 43.6532C76.9562 43.6252 76.9405 43.5892 76.9373 43.551V37.9751C76.9387 37.9513 76.9343 37.9274 76.9246 37.9057C76.9149 37.8839 76.9001 37.8649 76.8816 37.8502ZM67.7828 30.2984V12.4352C67.7828 12.393 67.7993 12.3526 67.8285 12.3228C67.8578 12.293 67.8975 12.2762 67.9389 12.2762H72.8563C72.8977 12.2762 72.9374 12.293 72.9666 12.3228C72.9959 12.3526 73.0124 12.393 73.0124 12.4352V25.5515C73.0128 25.5736 73.008 25.5955 72.9983 25.6153C72.9886 25.6351 72.9743 25.6522 72.9566 25.6651L68.0504 30.4119C68.0286 30.4346 68.0006 30.4502 67.97 30.4565C67.9394 30.4628 67.9077 30.4597 67.8789 30.4475C67.85 30.4352 67.8255 30.4145 67.8084 30.3879C67.7913 30.3613 67.7824 30.3302 67.7828 30.2984Z" fill="white"/>
<defs>
<linearGradient id="paint0_linear_1545_343" x1="1.02235" y1="39.8808" x2="34.8993" y2="20.6756" gradientUnits="userSpaceOnUse">
<stop stop-color="#0982CC"/>
<stop offset="0.28" stop-color="#02B0F9"/>
<stop offset="0.7" stop-color="#66E1DA"/>
<stop offset="1" stop-color="#94E5E2"/>
</linearGradient>
</defs>
</svg>
