<svg width="131" height="37" viewBox="0 0 131 37" fill="none" xmlns="http://www.w3.org/2000/svg">
<g>
<path d="M30.9334 9.73483L15.9501 1L1 9.72142M30.9334 9.73483L15.9501 18.7123M30.9334 9.73483L31 27.2517L15.9667 36M15.9501 18.7123L1 9.72142M15.9501 18.7123L15.9667 36M1 9.72142V27.2853L15.9667 36" stroke="#49FFDE" stroke-opacity="0.56" stroke-width="2" stroke-miterlimit="10" stroke-linejoin="round"/>
</g>
<path d="M49.1666 13.705C48.5437 13.705 47.986 13.8288 47.4938 14.0761C47.0073 14.3235 46.595 14.6816 46.2568 15.1504C45.9187 15.6126 45.6607 16.1758 45.4827 16.8398C45.3047 17.4974 45.2158 18.2395 45.2158 19.0664C45.2158 20.1731 45.3582 21.1269 45.6429 21.9276C45.9277 22.722 46.3607 23.3339 46.942 23.7636C47.5234 24.1868 48.2589 24.3984 49.1488 24.3984C49.7006 24.3984 50.2374 24.3398 50.7594 24.2226C51.2815 24.1054 51.8212 23.9459 52.3789 23.7441V25.7362C51.851 25.9641 51.317 26.1301 50.7772 26.2343C50.2374 26.3385 49.6145 26.3905 48.9085 26.3905C47.5798 26.3905 46.4763 26.0879 45.5984 25.4824C44.7264 24.8769 44.0737 24.024 43.6407 22.9237C43.2136 21.8235 43 20.5345 43 19.0566C43 17.9759 43.1364 16.9863 43.4094 16.0879C43.6823 15.1894 44.0798 14.4146 44.6018 13.7636C45.1238 13.106 45.7674 12.6015 46.5327 12.25C47.3039 11.8919 48.1848 11.7129 49.1755 11.7129C49.828 11.7129 50.4687 11.7943 51.0975 11.957C51.7323 12.1133 52.3195 12.3379 52.8594 12.6308L52.1119 14.5644C51.6611 14.33 51.1894 14.1282 50.6972 13.9589C50.2048 13.7896 49.6945 13.705 49.1666 13.705ZM54.2024 15.3848H56.4804L58.5003 21.5566C58.5892 21.8365 58.6693 22.1133 58.7405 22.3866C58.8176 22.6536 58.8829 22.9172 58.9363 23.1776C58.9956 23.4381 59.0431 23.6985 59.0787 23.9589H59.1321C59.1914 23.6204 59.2744 23.2428 59.3812 22.8261C59.4939 22.4029 59.6185 21.9798 59.755 21.5566L61.6948 15.3848H63.946L59.7193 27.6796C59.4762 28.3828 59.1765 28.9818 58.8206 29.4765C58.4705 29.9778 58.0554 30.3554 57.5748 30.6093C57.0943 30.8698 56.5455 31 55.9287 31C55.6321 31 55.374 30.9804 55.1545 30.9414C54.935 30.9088 54.7481 30.873 54.5939 30.8339V28.998C54.7185 29.0305 54.8757 29.0599 55.0655 29.0859C55.2553 29.1119 55.4511 29.125 55.6528 29.125C56.0265 29.125 56.3499 29.0435 56.6228 28.8807C56.8956 28.718 57.127 28.4869 57.3167 28.1875C57.5066 27.8945 57.6638 27.5591 57.7884 27.1816L58.1355 26.166L54.2024 15.3848ZM68.2611 11V14.662C68.2611 15.0852 68.2492 15.5019 68.2254 15.912C68.2077 16.3157 68.1899 16.6315 68.1721 16.8593H68.2611C68.528 16.3905 68.8988 15.9966 69.3733 15.6776C69.8538 15.3521 70.4679 15.1894 71.2153 15.1894C72.384 15.1894 73.3242 15.6614 74.0361 16.6054C74.748 17.5429 75.1039 18.9329 75.1039 20.7754C75.1039 21.9993 74.9408 23.0279 74.6145 23.8612C74.2881 24.6946 73.8284 25.3261 73.2353 25.7557C72.6479 26.179 71.9569 26.3905 71.162 26.3905C70.4144 26.3905 69.8094 26.2409 69.3466 25.9414C68.8899 25.6354 68.531 25.2805 68.27 24.8769H68.1187L67.736 26.1953H66.1699V11H68.2611ZM70.6637 17.0546C70.0704 17.0546 69.5988 17.1849 69.2488 17.4453C68.9047 17.7056 68.6555 18.0963 68.5013 18.6171C68.3471 19.1315 68.267 19.7857 68.2611 20.58V20.7851C68.2611 21.9895 68.4331 22.9107 68.7771 23.5487C69.1272 24.1867 69.7619 24.5057 70.6814 24.5057C71.4111 24.5057 71.9717 24.1835 72.3631 23.539C72.7547 22.888 72.9505 21.957 72.9505 20.746C72.9505 19.5221 72.7547 18.6009 72.3631 17.9824C71.9776 17.3639 71.4111 17.0546 70.6637 17.0546ZM82.1773 15.1796C83.0553 15.1796 83.8087 15.3783 84.4376 15.7754C85.0664 16.1725 85.5498 16.7356 85.8879 17.4648C86.2261 18.194 86.3951 19.0664 86.3951 20.082V21.3125H79.8193C79.843 22.3606 80.0981 23.1679 80.5846 23.7343C81.077 24.3008 81.765 24.5839 82.649 24.5839C83.2777 24.5839 83.8413 24.5189 84.3396 24.3886C84.8438 24.2519 85.363 24.0534 85.8968 23.7929V25.6581C85.4044 25.912 84.9032 26.0976 84.393 26.2148C83.8829 26.332 83.2718 26.3905 82.5599 26.3905C81.593 26.3905 80.7418 26.1855 80.0062 25.7754C79.2765 25.3586 78.704 24.7401 78.2887 23.9199C77.8795 23.0995 77.6748 22.0806 77.6748 20.8633C77.6748 19.6523 77.8616 18.6236 78.2354 17.7773C78.6091 16.9309 79.1341 16.2864 79.8104 15.8438C80.4866 15.401 81.2756 15.1796 82.1773 15.1796ZM82.1773 16.9081C81.5189 16.9081 80.9849 17.1425 80.5757 17.6112C80.1723 18.08 79.935 18.7669 79.8638 19.6718H84.3486C84.3426 19.1315 84.2595 18.6529 84.0994 18.2362C83.9452 17.8196 83.7079 17.4941 83.3875 17.2598C83.0732 17.0254 82.6697 16.9081 82.1773 16.9081ZM94.4742 15.1796C94.6403 15.1796 94.8212 15.1894 95.0169 15.2089C95.2127 15.2285 95.3818 15.2545 95.5241 15.287L95.3285 17.4355C95.2039 17.3964 95.0496 17.3671 94.8657 17.3476C94.6878 17.328 94.5275 17.3182 94.3852 17.3182C94.0114 17.3182 93.6555 17.3866 93.3173 17.5234C92.9793 17.6536 92.6796 17.8554 92.4187 18.1289C92.1576 18.3958 91.953 18.731 91.8047 19.1348C91.6564 19.5384 91.5822 20.0071 91.5822 20.541V26.1953H89.4821V15.3848H91.1194L91.4042 17.289H91.5021C91.6979 16.9049 91.9411 16.5534 92.2318 16.2343C92.5224 15.9153 92.8547 15.6614 93.2284 15.4726C93.608 15.2773 94.0233 15.1796 94.4742 15.1796ZM98.2909 11.9179H102.162C103.841 11.9179 105.107 12.1849 105.962 12.7188C106.816 13.2525 107.243 14.1738 107.243 15.4824C107.243 16.0293 107.154 16.524 106.975 16.9668C106.803 17.4029 106.552 17.7643 106.219 18.0508C105.888 18.3306 105.478 18.5195 104.991 18.6171V18.7148C105.496 18.8125 105.943 18.985 106.335 19.2324C106.733 19.4798 107.044 19.8346 107.269 20.2968C107.5 20.759 107.617 21.358 107.617 22.0938C107.617 22.9661 107.426 23.7083 107.047 24.3203C106.673 24.9323 106.136 25.3978 105.437 25.7168C104.742 26.0358 103.917 26.1953 102.963 26.1953H98.2909V11.9179ZM100.426 17.8066H102.473C103.44 17.8066 104.111 17.634 104.484 17.289C104.858 16.944 105.045 16.4394 105.045 15.7754C105.045 15.0983 104.823 14.61 104.377 14.3105C103.939 14.011 103.238 13.8612 102.277 13.8612H100.426V17.8066ZM100.426 19.7011V24.2324H102.678C103.675 24.2324 104.374 24.0208 104.778 23.5976C105.181 23.1744 105.383 22.6015 105.383 21.8789C105.383 21.4361 105.291 21.052 105.107 20.7265C104.929 20.401 104.636 20.1504 104.226 19.9745C103.817 19.7922 103.264 19.7011 102.571 19.7011H100.426ZM119.539 20.7655C119.539 21.664 119.432 22.4615 119.219 23.1581C119.005 23.8547 118.694 24.444 118.284 24.9258C117.875 25.401 117.383 25.7655 116.807 26.0195C116.232 26.2669 115.583 26.3905 114.859 26.3905C114.183 26.3905 113.563 26.2669 112.999 26.0195C112.436 25.7655 111.946 25.401 111.531 24.9258C111.121 24.444 110.805 23.8547 110.579 23.1581C110.354 22.4615 110.241 21.664 110.241 20.7655C110.241 19.5741 110.428 18.565 110.801 17.7383C111.18 16.9049 111.72 16.2701 112.421 15.8339C113.12 15.3977 113.954 15.1796 114.921 15.1796C115.829 15.1796 116.629 15.3977 117.324 15.8339C118.018 16.2701 118.561 16.9049 118.952 17.7383C119.344 18.5715 119.539 19.5806 119.539 20.7655ZM112.393 20.7655C112.393 21.5534 112.48 22.2271 112.652 22.787C112.83 23.347 113.103 23.7766 113.471 24.0761C113.839 24.3691 114.313 24.5155 114.895 24.5155C115.476 24.5155 115.951 24.3691 116.318 24.0761C116.686 23.7766 116.956 23.347 117.128 22.787C117.3 22.2271 117.386 21.5534 117.386 20.7655C117.386 19.9778 117.3 19.3105 117.128 18.7636C116.956 18.2103 116.686 17.7903 116.318 17.5039C115.951 17.2109 115.473 17.0644 114.886 17.0644C114.02 17.0644 113.388 17.3834 112.99 18.0214C112.593 18.6595 112.393 19.5741 112.393 20.7655ZM124.851 20.6679L121.559 15.3848H123.943L126.195 19.1835L128.454 15.3848H130.83L127.52 20.6679L131 26.1953H128.606L126.195 22.1425L123.774 26.1953H121.398L124.851 20.6679Z" fill="url(#paint0_linear_0_1)"/>
<defs>
<linearGradient id="paint0_linear_0_1" x1="49.7998" y1="4.94524" x2="135.223" y2="20.1002" gradientUnits="userSpaceOnUse">
<stop stop-color="#FC2EF5"/>
<stop offset="0.461458" stop-color="#5489D8"/>
<stop offset="1" stop-color="#2CFF64"/>
</linearGradient>
</defs>
</svg>
