<svg width="222" height="99" viewBox="0 0 222 99" fill="none" xmlns="http://www.w3.org/2000/svg">
<path d="M37.7484 28L56.5384 39.0433L37.7484 50.3934L19 39.0264L37.7484 28Z" stroke="url(#paint0_linear_1656_64)" stroke-width="2" stroke-miterlimit="10" stroke-linejoin="round"/>
<path d="M37.769 72.2504L56.6217 61.1901L56.5383 39.0437L37.748 50.3938L37.769 72.2504Z" stroke="url(#paint1_linear_1656_64)" stroke-width="2" stroke-miterlimit="10" stroke-linejoin="round"/>
<path d="M19 61.2324V39.0266L37.7484 50.3937L37.7693 72.2502L19 61.2324Z" stroke="url(#paint2_linear_1656_64)" stroke-width="2" stroke-miterlimit="10" stroke-linejoin="round"/>
<g style="mix-blend-mode:soft-light">
<path d="M56.5384 39.0433L37.7484 28L19 39.0264M56.5384 39.0433L37.7484 50.3934M56.5384 39.0433L56.622 61.1897L37.7693 72.25M37.7484 50.3934L19 39.0264M37.7484 50.3934L37.7693 72.25M19 39.0264V61.2322L37.7693 72.25" stroke="#49FFDE" stroke-opacity="0.56" stroke-width="2" stroke-miterlimit="10" stroke-linejoin="round"/>
</g>
<path d="M78.9963 43.9752C78.2237 43.9752 77.532 44.1267 76.9214 44.4296C76.3181 44.7326 75.8067 45.1711 75.3872 45.7451C74.9678 46.3111 74.6478 47.0007 74.427 47.8138C74.2063 48.6191 74.096 49.5278 74.096 50.5403C74.096 51.8956 74.2726 53.0635 74.6258 54.044C74.9789 55.0168 75.5161 55.766 76.2371 56.2923C76.9582 56.8104 77.8705 57.0695 78.9743 57.0695C79.6586 57.0695 80.3244 56.9977 80.9719 56.8543C81.6195 56.7107 82.289 56.5154 82.9806 56.2684V58.7078C82.3258 58.9868 81.6636 59.1901 80.9941 59.3176C80.3244 59.4453 79.5518 59.5089 78.6762 59.5089C77.0281 59.5089 75.6595 59.1384 74.5705 58.3969C73.4889 57.6555 72.6794 56.6111 72.1423 55.2638C71.6125 53.9165 71.3477 52.3381 71.3477 50.5284C71.3477 49.205 71.5169 47.9932 71.8554 46.8931C72.1939 45.7929 72.6869 44.8441 73.3344 44.047C73.9818 43.2417 74.7802 42.6239 75.7294 42.1935C76.6859 41.755 77.7785 41.5358 79.0073 41.5358C79.8167 41.5358 80.6114 41.6354 81.3913 41.8347C82.1786 42.026 82.907 42.3011 83.5767 42.6597L82.6495 45.0275C82.0903 44.7405 81.5053 44.4935 80.8948 44.2861C80.284 44.0788 79.6511 43.9752 78.9963 43.9752ZM85.2424 46.0321H88.0679L90.5732 53.5897C90.6836 53.9324 90.7829 54.2713 90.8712 54.6061C90.9668 54.933 91.0478 55.2559 91.114 55.5747C91.1876 55.8937 91.2465 56.2125 91.2906 56.5314H91.3569C91.4305 56.1168 91.5335 55.6544 91.6658 55.1443C91.8057 54.626 91.9602 54.1079 92.1295 53.5897L94.5355 46.0321H97.3278L92.0853 61.0875C91.7837 61.9485 91.412 62.682 90.9705 63.2878C90.5364 63.9016 90.0214 64.364 89.4254 64.6749C88.8294 64.9939 88.1487 65.1534 87.3836 65.1534C87.0157 65.1534 86.6956 65.1294 86.4233 65.0816C86.1511 65.0417 85.9193 64.9979 85.728 64.95V62.7019C85.8825 62.7417 86.0775 62.7777 86.313 62.8095C86.5484 62.8413 86.7912 62.8574 87.0414 62.8574C87.5049 62.8574 87.906 62.7576 88.2445 62.5583C88.5828 62.359 88.8699 62.076 89.1053 61.7094C89.3408 61.3506 89.5357 60.94 89.6903 60.4777L90.1207 59.234L85.2424 46.0321ZM102.68 40.6628V45.1471C102.68 45.6653 102.665 46.1755 102.636 46.6777C102.614 47.1721 102.592 47.5588 102.57 47.8377H102.68C103.011 47.2637 103.471 46.7814 104.059 46.3907C104.655 45.9921 105.417 45.7928 106.344 45.7928C107.794 45.7928 108.96 46.3708 109.843 47.5268C110.726 48.6748 111.167 50.3769 111.167 52.6331C111.167 54.1317 110.965 55.3913 110.56 56.4118C110.156 57.4323 109.585 58.2056 108.85 58.7317C108.121 59.25 107.264 59.5089 106.278 59.5089C105.351 59.5089 104.6 59.3257 104.026 58.959C103.46 58.5843 103.015 58.1497 102.691 57.6555H102.503L102.029 59.2699H100.086V40.6628H102.68ZM105.66 48.0769C104.924 48.0769 104.339 48.2364 103.905 48.5552C103.478 48.8741 103.169 49.3524 102.978 49.9902C102.787 50.6201 102.687 51.4212 102.68 52.3938V52.645C102.68 54.1198 102.893 55.2479 103.32 56.0291C103.754 56.8104 104.541 57.201 105.682 57.201C106.587 57.201 107.282 56.8064 107.768 56.0172C108.254 55.22 108.496 54.08 108.496 52.5971C108.496 51.0984 108.254 49.9703 107.768 49.213C107.29 48.4556 106.587 48.0769 105.66 48.0769ZM119.941 45.7809C121.03 45.7809 121.964 46.0241 122.744 46.5104C123.524 46.9967 124.124 47.6863 124.543 48.5791C124.963 49.4721 125.172 50.5403 125.172 51.784V53.2908H117.016C117.045 54.5742 117.362 55.5628 117.965 56.2563C118.576 56.95 119.429 57.2967 120.526 57.2967C121.306 57.2967 122.005 57.2171 122.623 57.0576C123.248 56.8901 123.892 56.6471 124.554 56.3281V58.6121C123.943 58.923 123.322 59.1503 122.689 59.2937C122.056 59.4373 121.298 59.5089 120.415 59.5089C119.216 59.5089 118.16 59.2579 117.248 58.7557C116.343 58.2454 115.633 57.488 115.118 56.4836C114.61 55.479 114.356 54.2314 114.356 52.7407C114.356 51.2578 114.588 49.9982 115.051 48.9618C115.515 47.9254 116.166 47.1362 117.005 46.5942C117.844 46.052 118.822 45.7809 119.941 45.7809ZM119.941 47.8975C119.124 47.8975 118.462 48.1845 117.954 48.7585C117.454 49.3325 117.16 50.1736 117.071 51.2816H122.634C122.626 50.6201 122.523 50.034 122.325 49.5238C122.133 49.0137 121.839 48.6151 121.442 48.3281C121.052 48.0411 120.552 47.8975 119.941 47.8975ZM135.193 45.7809C135.399 45.7809 135.623 45.7928 135.866 45.8167C136.109 45.8408 136.319 45.8726 136.495 45.9124L136.253 48.5433C136.098 48.4954 135.907 48.4596 135.679 48.4357C135.458 48.4117 135.259 48.3997 135.083 48.3997C134.619 48.3997 134.178 48.4834 133.758 48.6509C133.339 48.8104 132.967 49.0574 132.644 49.3924C132.32 49.7191 132.066 50.1297 131.882 50.6241C131.698 51.1183 131.606 51.6923 131.606 52.3461V59.2699H129.001V46.0321H131.032L131.385 48.3639H131.507C131.75 47.8935 132.051 47.4631 132.412 47.0723C132.772 46.6817 133.184 46.3708 133.648 46.1397C134.119 45.9005 134.634 45.7809 135.193 45.7809ZM139.927 41.7868H144.728C146.811 41.7868 148.382 42.1138 149.441 42.7675C150.501 43.4211 151.031 44.5492 151.031 46.1516C151.031 46.8213 150.92 47.4271 150.699 47.9693C150.485 48.5033 150.173 48.9459 149.761 49.2967C149.349 49.6394 148.841 49.8707 148.238 49.9902V50.1098C148.863 50.2295 149.419 50.4407 149.905 50.7436C150.398 51.0465 150.783 51.4811 151.063 52.047C151.35 52.613 151.494 53.3465 151.494 54.2475C151.494 55.3157 151.258 56.2245 150.788 56.9739C150.324 57.7233 149.657 58.2933 148.79 58.6839C147.928 59.0745 146.905 59.2699 145.722 59.2699H139.927V41.7868ZM142.576 48.9977H145.114C146.314 48.9977 147.146 48.7864 147.609 48.3639C148.072 47.9414 148.304 47.3235 148.304 46.5104C148.304 45.6813 148.029 45.0834 147.476 44.7166C146.932 44.3499 146.063 44.1665 144.871 44.1665H142.576V48.9977ZM142.576 51.3176V56.8663H145.368C146.605 56.8663 147.472 56.6071 147.973 56.089C148.474 55.5707 148.724 54.8692 148.724 53.9843C148.724 53.4422 148.609 52.9718 148.382 52.5732C148.16 52.1746 147.797 51.8677 147.288 51.6524C146.781 51.4292 146.096 51.3176 145.236 51.3176H142.576ZM166.282 52.621C166.282 53.7212 166.15 54.6978 165.885 55.5508C165.62 56.4038 165.234 57.1254 164.726 57.7153C164.218 58.2973 163.608 58.7436 162.893 59.0546C162.18 59.3576 161.375 59.5089 160.478 59.5089C159.638 59.5089 158.87 59.3576 158.171 59.0546C157.471 58.7436 156.864 58.2973 156.35 57.7153C155.841 57.1254 155.448 56.4038 155.169 55.5508C154.889 54.6978 154.749 53.7212 154.749 52.621C154.749 51.1621 154.981 49.9264 155.444 48.914C155.914 47.8935 156.584 47.1163 157.453 46.5821C158.32 46.048 159.354 45.7809 160.554 45.7809C161.68 45.7809 162.673 46.048 163.535 46.5821C164.395 47.1163 165.069 47.8935 165.554 48.914C166.039 49.9344 166.282 51.1701 166.282 52.621ZM157.419 52.621C157.419 53.5857 157.526 54.4108 157.74 55.0964C157.96 55.7821 158.299 56.3082 158.755 56.6749C159.212 57.0337 159.799 57.213 160.521 57.213C161.242 57.213 161.831 57.0337 162.287 56.6749C162.744 56.3082 163.078 55.7821 163.292 55.0964C163.505 54.4108 163.611 53.5857 163.611 52.621C163.611 51.6564 163.505 50.8393 163.292 50.1696C163.078 49.492 162.744 48.9777 162.287 48.627C161.831 48.2682 161.239 48.0888 160.51 48.0888C159.436 48.0888 158.652 48.4795 158.159 49.2607C157.666 50.0421 157.419 51.1621 157.419 52.621ZM172.87 52.5014L168.787 46.0321H171.744L174.537 50.6838L177.34 46.0321H180.287L176.181 52.5014L180.497 59.2699H177.528L174.537 54.3071L171.535 59.2699H168.588L172.87 52.5014Z" fill="url(#paint3_linear_1656_64)"/>
<defs>
<linearGradient id="paint0_linear_1656_64" x1="28.326" y1="31.073" x2="50.0761" y2="60.5966" gradientUnits="userSpaceOnUse">
<stop stop-color="#F043FF"/>
<stop offset="0.461458" stop-color="#5489D8"/>
<stop offset="1" stop-color="#2CFF64"/>
</linearGradient>
<linearGradient id="paint1_linear_1656_64" x1="37.89" y1="29.4753" x2="64.5426" y2="50.5315" gradientUnits="userSpaceOnUse">
<stop stop-color="#FC2EF5"/>
<stop offset="0.461458" stop-color="#5489D8"/>
<stop offset="1" stop-color="#2CFF64"/>
</linearGradient>
<linearGradient id="paint2_linear_1656_64" x1="42.9766" y1="32.4253" x2="58.0321" y2="80.6802" gradientUnits="userSpaceOnUse">
<stop stop-color="#FC2EF5"/>
<stop offset="0.461458" stop-color="#5489D8"/>
<stop offset="1" stop-color="#2CFF64"/>
</linearGradient>
<linearGradient id="paint3_linear_1656_64" x1="79.7817" y1="33.2486" x2="185.652" y2="52.2735" gradientUnits="userSpaceOnUse">
<stop stop-color="#FC2EF5"/>
<stop offset="0.461458" stop-color="#5489D8"/>
<stop offset="1" stop-color="#2CFF64"/>
</linearGradient>
</defs>
</svg>
