<svg xmlns="http://www.w3.org/2000/svg" width="236" height="62" viewBox="0 0 236 62" fill="none">
<mask id="mask0_35_195" style="mask-type:alpha" maskUnits="userSpaceOnUse" x="5" y="14" width="50" height="32">
<path d="M30.0337 14.8418C16.6093 14.8418 5.72662 21.6434 5.72662 30.0337C5.72662 38.4239 16.6093 45.2256 30.0337 45.2256C43.4582 45.2256 54.3408 38.4239 54.3408 30.0337C54.3408 21.6434 43.4582 14.8418 30.0337 14.8418Z" fill="white"/>
</mask>
<g mask="url(#mask0_35_195)">
<path d="M45.6053 30.0338C45.6053 44.5501 36.3015 51.6587 33.9816 53.1087C32.3934 54.1013 31.2396 54.4645 30.7641 54.5902C30.4889 54.6629 30.2989 54.6937 30.1939 54.7072C30.0871 54.7208 30.0355 54.7207 30.0335 54.7207V-25.0369C17.0429 -25.0369 3.38958 -21.8253 -8.28991 -14.5256C-19.4073 -7.5772 -34.1523 7.12741 -34.1523 30.0338H45.6053ZM30.0335 54.7207C30.0316 54.7207 29.98 54.7208 29.8732 54.7072C29.7682 54.6937 29.5782 54.6629 29.303 54.5902C28.8275 54.4645 27.6737 54.1013 26.0855 53.1087C23.7655 51.6587 14.4618 44.5501 14.4618 30.0338H94.2194C94.2194 7.12741 79.4744 -7.5772 68.357 -14.5256C56.6775 -21.8253 43.0241 -25.0369 30.0335 -25.0369V54.7207ZM14.4618 30.0338C14.4618 15.5176 23.7655 8.40904 26.0855 6.95905C27.6737 5.96643 28.8275 5.60324 29.303 5.47754C29.5782 5.40479 29.7682 5.374 29.8732 5.36057C29.98 5.34691 30.0316 5.34702 30.0335 5.34702V85.1046C43.0241 85.1046 56.6775 81.893 68.357 74.5933C79.4744 67.6449 94.2194 52.9403 94.2194 30.0338H14.4618ZM30.0335 5.34702C30.0355 5.34702 30.0871 5.34691 30.1939 5.36057C30.2989 5.374 30.4889 5.40479 30.7641 5.47754C31.2396 5.60324 32.3934 5.96643 33.9816 6.95905C36.3015 8.40904 45.6053 15.5176 45.6053 30.0338H-34.1523C-34.1523 52.9403 -19.4073 67.6449 -8.28991 74.5933C3.38958 81.893 17.0429 85.1046 30.0335 85.1046V5.34702Z" fill="#FF7070" fill-opacity="0.5"/>
</g>
<mask id="mask1_35_195" style="mask-type:alpha" maskUnits="userSpaceOnUse" x="9" y="9" width="42" height="42">
<path d="M19.4664 19.4666C9.97386 28.9591 7.08814 41.4638 13.0209 47.3966C18.9538 53.3294 31.4584 50.4437 40.951 40.9511C50.4435 31.4586 53.3292 18.9539 47.3964 13.0211C41.4636 7.08833 28.9589 9.97404 19.4664 19.4666Z" fill="white"/>
</mask>
<g mask="url(#mask1_35_195)">
<path d="M41.2193 19.198C51.4838 29.4626 49.9316 41.0678 49.3164 43.7336C48.8953 45.5585 48.3363 46.6312 48.0889 47.0563C47.9457 47.3023 47.8332 47.4585 47.7684 47.5422C47.7026 47.6274 47.666 47.6638 47.6646 47.6652L-8.73247 -8.73199C-17.9182 0.453758 -25.3017 12.3791 -28.3987 25.7994C-31.3466 38.5738 -31.3752 59.3979 -15.1779 75.5952L41.2193 19.198ZM47.6646 47.6652C47.6632 47.6666 47.6269 47.7031 47.5417 47.7689C47.4579 47.8337 47.3018 47.9463 47.0558 48.0894C46.6306 48.3368 45.558 48.8958 43.7331 49.317C41.0673 49.9321 29.462 51.4843 19.1975 41.2198L75.5946 -15.1773C59.3973 -31.3747 38.5733 -31.3461 25.7988 -28.3981C12.3785 -25.3011 0.453278 -17.9177 -8.73247 -8.73199L47.6646 47.6652ZM19.1975 41.2198C8.93303 30.9553 10.4852 19.35 11.1003 16.6842C11.5215 14.8593 12.0805 13.7867 12.3279 13.3615C12.471 13.1155 12.5836 12.9594 12.6484 12.8756C12.7142 12.7904 12.7507 12.7541 12.7521 12.7527L69.1493 69.1498C78.335 59.964 85.7184 48.0388 88.8154 34.6185C91.7634 21.844 91.792 1.01994 75.5946 -15.1773L19.1975 41.2198ZM12.7521 12.7527C12.7535 12.7513 12.7899 12.7147 12.8751 12.6489C12.9588 12.5841 13.115 12.4716 13.361 12.3284C13.7861 12.081 14.8588 11.522 16.6837 11.1009C19.3495 10.4857 30.9547 8.93352 41.2193 19.198L-15.1779 75.5952C1.01947 91.7925 21.8435 91.7639 34.6179 88.816C48.0382 85.719 59.9635 78.3355 69.1493 69.1498L12.7521 12.7527Z" fill="#FFF970" fill-opacity="0.5"/>
</g>
<mask id="mask2_35_195" style="mask-type:alpha" maskUnits="userSpaceOnUse" x="9" y="9" width="42" height="42">
<path d="M40.9502 19.4666C31.4577 9.9741 18.953 7.08838 13.0202 13.0212C7.08738 18.954 9.9731 31.4587 19.4656 40.9512C28.9581 50.4437 41.4628 53.3294 47.3956 47.3966C53.3284 41.4638 50.4427 28.9591 40.9502 19.4666Z" fill="white"/>
</mask>
<g mask="url(#mask2_35_195)">
<path d="M41.2193 41.2198C30.9547 51.4843 19.3495 49.9321 16.6837 49.317C14.8588 48.8958 13.7861 48.3368 13.361 48.0894C13.115 47.9463 12.9589 47.8337 12.8751 47.7689C12.7899 47.7031 12.7535 47.6666 12.7521 47.6652L69.1493 -8.73199C59.9635 -17.9177 48.0382 -25.3011 34.6179 -28.3981C21.8435 -31.3461 1.01947 -31.3747 -15.1779 -15.1774L41.2193 41.2198ZM12.7521 47.6652C12.7507 47.6638 12.7142 47.6274 12.6484 47.5422C12.5836 47.4584 12.471 47.3023 12.3279 47.0563C12.0805 46.6312 11.5215 45.5585 11.1003 43.7336C10.4852 41.0678 8.93303 29.4625 19.1975 19.198L75.5946 75.5952C91.792 59.3978 91.7634 38.5738 88.8154 25.7994C85.7184 12.3791 78.335 0.453753 69.1493 -8.73199L12.7521 47.6652ZM19.1975 19.198C29.462 8.93351 41.0673 10.4857 43.7331 11.1009C45.558 11.522 46.6306 12.081 47.0558 12.3284C47.3018 12.4715 47.4579 12.5841 47.5417 12.6489C47.6269 12.7147 47.6632 12.7513 47.6646 12.7527L-8.73247 69.1498C0.453279 78.3355 12.3785 85.719 25.7988 88.8159C38.5733 91.7639 59.3973 91.7925 75.5946 75.5952L19.1975 19.198ZM47.6646 12.7527C47.666 12.7541 47.7026 12.7904 47.7684 12.8756C47.8332 12.9594 47.9458 13.1155 48.0889 13.3615C48.3363 13.7866 48.8953 14.8593 49.3164 16.6842C49.9316 19.35 51.4838 30.9553 41.2193 41.2198L-15.1779 -15.1774C-31.3752 1.01995 -31.3466 21.844 -28.3987 34.6185C-25.3017 48.0388 -17.9182 59.964 -8.73247 69.1498L47.6646 12.7527Z" fill="#70E5FF" fill-opacity="0.5"/>
</g>
<mask id="mask3_35_195" style="mask-type:alpha" maskUnits="userSpaceOnUse" x="14" y="5" width="32" height="50">
<path d="M14.8418 30.0339C14.8418 43.4583 21.6434 54.341 30.0337 54.341C38.4239 54.341 45.2256 43.4583 45.2256 30.0339C45.2256 16.6095 38.4239 5.72681 30.0337 5.72681C21.6434 5.72681 14.8418 16.6095 14.8418 30.0339Z" fill="white"/>
</mask>
<g mask="url(#mask3_35_195)">
<path d="M30.0336 14.462C44.5498 14.462 51.6585 23.7657 53.1085 26.0857C54.1011 27.6739 54.4643 28.8277 54.59 29.3032C54.6627 29.5784 54.6935 29.7684 54.7069 29.8734C54.7206 29.9802 54.7205 30.0317 54.7205 30.0337H-25.0371C-25.0371 43.0243 -21.8255 56.6776 -14.5258 68.3571C-7.57745 79.4746 7.12715 94.2196 30.0336 94.2196V14.462ZM54.7205 30.0337C54.7205 30.0357 54.7206 30.0872 54.7069 30.194C54.6935 30.2991 54.6627 30.489 54.59 30.7643C54.4643 31.2398 54.1011 32.3935 53.1085 33.9817C51.6585 36.3017 44.5498 45.6054 30.0336 45.6054V-34.1521C7.12714 -34.1521 -7.57746 -19.4071 -14.5258 -8.28969C-21.8255 3.38981 -25.0371 17.0431 -25.0371 30.0337H54.7205ZM30.0336 45.6054C15.5174 45.6054 8.40877 36.3017 6.95878 33.9817C5.96616 32.3935 5.60298 31.2398 5.47728 30.7643C5.40453 30.4891 5.37373 30.2991 5.3603 30.194C5.34664 30.0873 5.34675 30.0357 5.34675 30.0337H85.1043C85.1043 17.0431 81.8928 3.3898 74.5931 -8.2897C67.6447 -19.4071 52.9401 -34.1521 30.0336 -34.1521V45.6054ZM5.34675 30.0337C5.34675 30.0317 5.34664 29.9802 5.3603 29.8734C5.37373 29.7684 5.40453 29.5784 5.47728 29.3032C5.60298 28.8277 5.96616 27.6739 6.95878 26.0857C8.40877 23.7657 15.5174 14.462 30.0336 14.462V94.2196C52.9401 94.2196 67.6447 79.4745 74.5931 68.3571C81.8928 56.6776 85.1043 43.0243 85.1043 30.0337H5.34675Z" fill="#B1EAD5" fill-opacity="0.5"/>
</g>
<mask id="mask4_35_195" style="mask-type:alpha" maskUnits="userSpaceOnUse" x="5" y="14" width="50" height="32">
<path d="M30.0337 14.8418C16.6093 14.8418 5.72662 21.6434 5.72662 30.0337C5.72662 38.4239 16.6093 45.2256 30.0337 45.2256C43.4582 45.2256 54.3408 38.4239 54.3408 30.0337C54.3408 21.6434 43.4582 14.8418 30.0337 14.8418Z" fill="white"/>
</mask>
<g mask="url(#mask4_35_195)">
<path d="M45.6053 30.0338C45.6053 44.5501 36.3015 51.6587 33.9816 53.1087C32.3934 54.1013 31.2396 54.4645 30.7641 54.5902C30.4889 54.6629 30.2989 54.6937 30.1939 54.7072C30.0871 54.7208 30.0355 54.7207 30.0335 54.7207V-25.0369C17.0429 -25.0369 3.38958 -21.8253 -8.28991 -14.5256C-19.4073 -7.5772 -34.1523 7.12741 -34.1523 30.0338H45.6053ZM30.0335 54.7207C30.0316 54.7207 29.98 54.7208 29.8732 54.7072C29.7682 54.6937 29.5782 54.6629 29.303 54.5902C28.8275 54.4645 27.6737 54.1013 26.0855 53.1087C23.7655 51.6587 14.4618 44.5501 14.4618 30.0338H94.2194C94.2194 7.12741 79.4744 -7.5772 68.357 -14.5256C56.6775 -21.8253 43.0241 -25.0369 30.0335 -25.0369V54.7207ZM14.4618 30.0338C14.4618 15.5176 23.7655 8.40904 26.0855 6.95905C27.6737 5.96643 28.8275 5.60324 29.303 5.47754C29.5782 5.40479 29.7682 5.374 29.8732 5.36057C29.98 5.34691 30.0316 5.34702 30.0335 5.34702V85.1046C43.0241 85.1046 56.6775 81.893 68.357 74.5933C79.4744 67.6449 94.2194 52.9403 94.2194 30.0338H14.4618ZM30.0335 5.34702C30.0355 5.34702 30.0871 5.34691 30.1939 5.36057C30.2989 5.374 30.4889 5.40479 30.7641 5.47754C31.2396 5.60324 32.3934 5.96643 33.9816 6.95905C36.3015 8.40904 45.6053 15.5176 45.6053 30.0338H-34.1523C-34.1523 52.9403 -19.4073 67.6449 -8.28991 74.5933C3.38958 81.893 17.0429 85.1046 30.0335 85.1046V5.34702Z" fill="#FF7070" fill-opacity="0.5"/>
</g>
<mask id="mask5_35_195" style="mask-type:alpha" maskUnits="userSpaceOnUse" x="9" y="9" width="42" height="42">
<path d="M19.4664 19.4666C9.97386 28.9591 7.08814 41.4638 13.0209 47.3966C18.9538 53.3294 31.4584 50.4437 40.951 40.9511C50.4435 31.4586 53.3292 18.9539 47.3964 13.0211C41.4636 7.08833 28.9589 9.97404 19.4664 19.4666Z" fill="white"/>
</mask>
<g mask="url(#mask5_35_195)">
<path d="M41.2193 19.198C51.4838 29.4626 49.9316 41.0678 49.3164 43.7336C48.8953 45.5585 48.3363 46.6312 48.0889 47.0563C47.9457 47.3023 47.8332 47.4585 47.7684 47.5422C47.7026 47.6274 47.666 47.6638 47.6646 47.6652L-8.73247 -8.73199C-17.9182 0.453758 -25.3017 12.3791 -28.3987 25.7994C-31.3466 38.5738 -31.3752 59.3979 -15.1779 75.5952L41.2193 19.198ZM47.6646 47.6652C47.6632 47.6666 47.6269 47.7031 47.5417 47.7689C47.4579 47.8337 47.3018 47.9463 47.0558 48.0894C46.6306 48.3368 45.558 48.8958 43.7331 49.317C41.0673 49.9321 29.462 51.4843 19.1975 41.2198L75.5946 -15.1773C59.3973 -31.3747 38.5733 -31.3461 25.7988 -28.3981C12.3785 -25.3011 0.453278 -17.9177 -8.73247 -8.73199L47.6646 47.6652ZM19.1975 41.2198C8.93303 30.9553 10.4852 19.35 11.1003 16.6842C11.5215 14.8593 12.0805 13.7867 12.3279 13.3615C12.471 13.1155 12.5836 12.9594 12.6484 12.8756C12.7142 12.7904 12.7507 12.7541 12.7521 12.7527L69.1493 69.1498C78.335 59.964 85.7184 48.0388 88.8154 34.6185C91.7634 21.844 91.792 1.01994 75.5946 -15.1773L19.1975 41.2198ZM12.7521 12.7527C12.7535 12.7513 12.7899 12.7147 12.8751 12.6489C12.9588 12.5841 13.115 12.4716 13.361 12.3284C13.7861 12.081 14.8588 11.522 16.6837 11.1009C19.3495 10.4857 30.9547 8.93352 41.2193 19.198L-15.1779 75.5952C1.01947 91.7925 21.8435 91.7639 34.6179 88.816C48.0382 85.719 59.9635 78.3355 69.1493 69.1498L12.7521 12.7527Z" fill="#FFF970" fill-opacity="0.5"/>
</g>
<mask id="mask6_35_195" style="mask-type:alpha" maskUnits="userSpaceOnUse" x="9" y="9" width="42" height="42">
<path d="M40.9502 19.4666C31.4577 9.9741 18.953 7.08838 13.0202 13.0212C7.08738 18.954 9.9731 31.4587 19.4656 40.9512C28.9581 50.4437 41.4628 53.3294 47.3956 47.3966C53.3284 41.4638 50.4427 28.9591 40.9502 19.4666Z" fill="white"/>
</mask>
<g mask="url(#mask6_35_195)">
<path d="M41.2193 41.2198C30.9547 51.4843 19.3495 49.9321 16.6837 49.317C14.8588 48.8958 13.7861 48.3368 13.361 48.0894C13.115 47.9463 12.9589 47.8337 12.8751 47.7689C12.7899 47.7031 12.7535 47.6666 12.7521 47.6652L69.1493 -8.73199C59.9635 -17.9177 48.0382 -25.3011 34.6179 -28.3981C21.8435 -31.3461 1.01947 -31.3747 -15.1779 -15.1774L41.2193 41.2198ZM12.7521 47.6652C12.7507 47.6638 12.7142 47.6274 12.6484 47.5422C12.5836 47.4584 12.471 47.3023 12.3279 47.0563C12.0805 46.6312 11.5215 45.5585 11.1003 43.7336C10.4852 41.0678 8.93303 29.4625 19.1975 19.198L75.5946 75.5952C91.792 59.3978 91.7634 38.5738 88.8154 25.7994C85.7184 12.3791 78.335 0.453753 69.1493 -8.73199L12.7521 47.6652ZM19.1975 19.198C29.462 8.93351 41.0673 10.4857 43.7331 11.1009C45.558 11.522 46.6306 12.081 47.0558 12.3284C47.3018 12.4715 47.4579 12.5841 47.5417 12.6489C47.6269 12.7147 47.6632 12.7513 47.6646 12.7527L-8.73247 69.1498C0.453279 78.3355 12.3785 85.719 25.7988 88.8159C38.5733 91.7639 59.3973 91.7925 75.5946 75.5952L19.1975 19.198ZM47.6646 12.7527C47.666 12.7541 47.7026 12.7904 47.7684 12.8756C47.8332 12.9594 47.9458 13.1155 48.0889 13.3615C48.3363 13.7866 48.8953 14.8593 49.3164 16.6842C49.9316 19.35 51.4838 30.9553 41.2193 41.2198L-15.1779 -15.1774C-31.3752 1.01995 -31.3466 21.844 -28.3987 34.6185C-25.3017 48.0388 -17.9182 59.964 -8.73247 69.1498L47.6646 12.7527Z" fill="#70E5FF" fill-opacity="0.5"/>
</g>
<mask id="mask7_35_195" style="mask-type:alpha" maskUnits="userSpaceOnUse" x="14" y="5" width="32" height="50">
<path d="M14.8418 30.0339C14.8418 43.4583 21.6434 54.341 30.0337 54.341C38.4239 54.341 45.2256 43.4583 45.2256 30.0339C45.2256 16.6095 38.4239 5.72681 30.0337 5.72681C21.6434 5.72681 14.8418 16.6095 14.8418 30.0339Z" fill="white"/>
</mask>
<g mask="url(#mask7_35_195)">
<path d="M30.0336 14.462C44.5498 14.462 51.6585 23.7657 53.1085 26.0857C54.1011 27.6739 54.4643 28.8277 54.59 29.3032C54.6627 29.5784 54.6935 29.7684 54.7069 29.8734C54.7206 29.9802 54.7205 30.0317 54.7205 30.0337H-25.0371C-25.0371 43.0243 -21.8255 56.6776 -14.5258 68.3571C-7.57745 79.4746 7.12715 94.2196 30.0336 94.2196V14.462ZM54.7205 30.0337C54.7205 30.0357 54.7206 30.0872 54.7069 30.194C54.6935 30.2991 54.6627 30.489 54.59 30.7643C54.4643 31.2398 54.1011 32.3935 53.1085 33.9817C51.6585 36.3017 44.5498 45.6054 30.0336 45.6054V-34.1521C7.12714 -34.1521 -7.57746 -19.4071 -14.5258 -8.28969C-21.8255 3.38981 -25.0371 17.0431 -25.0371 30.0337H54.7205ZM30.0336 45.6054C15.5174 45.6054 8.40877 36.3017 6.95878 33.9817C5.96616 32.3935 5.60298 31.2398 5.47728 30.7643C5.40453 30.4891 5.37373 30.2991 5.3603 30.194C5.34664 30.0873 5.34675 30.0357 5.34675 30.0337H85.1043C85.1043 17.0431 81.8928 3.3898 74.5931 -8.2897C67.6447 -19.4071 52.9401 -34.1521 30.0336 -34.1521V45.6054ZM5.34675 30.0337C5.34675 30.0317 5.34664 29.9802 5.3603 29.8734C5.37373 29.7684 5.40453 29.5784 5.47728 29.3032C5.60298 28.8277 5.96616 27.6739 6.95878 26.0857C8.40877 23.7657 15.5174 14.462 30.0336 14.462V94.2196C52.9401 94.2196 67.6447 79.4745 74.5931 68.3571C81.8928 56.6776 85.1043 43.0243 85.1043 30.0337H5.34675Z" fill="#B1EAD5" fill-opacity="0.5"/>
</g>
<mask id="mask8_35_195" style="mask-type:alpha" maskUnits="userSpaceOnUse" x="5" y="14" width="50" height="32">
<path d="M30.0337 14.8418C16.6093 14.8418 5.72662 21.6434 5.72662 30.0337C5.72662 38.4239 16.6093 45.2256 30.0337 45.2256C43.4582 45.2256 54.3408 38.4239 54.3408 30.0337C54.3408 21.6434 43.4582 14.8418 30.0337 14.8418Z" fill="white"/>
</mask>
<g mask="url(#mask8_35_195)">
<path d="M45.6053 30.0338C45.6053 44.5501 36.3015 51.6587 33.9816 53.1087C32.3934 54.1013 31.2396 54.4645 30.7641 54.5902C30.4889 54.6629 30.2989 54.6937 30.1939 54.7072C30.0871 54.7208 30.0355 54.7207 30.0335 54.7207V-25.0369C17.0429 -25.0369 3.38958 -21.8253 -8.28991 -14.5256C-19.4073 -7.5772 -34.1523 7.12741 -34.1523 30.0338H45.6053ZM30.0335 54.7207C30.0316 54.7207 29.98 54.7208 29.8732 54.7072C29.7682 54.6937 29.5782 54.6629 29.303 54.5902C28.8275 54.4645 27.6737 54.1013 26.0855 53.1087C23.7655 51.6587 14.4618 44.5501 14.4618 30.0338H94.2194C94.2194 7.12741 79.4744 -7.5772 68.357 -14.5256C56.6775 -21.8253 43.0241 -25.0369 30.0335 -25.0369V54.7207ZM14.4618 30.0338C14.4618 15.5176 23.7655 8.40904 26.0855 6.95905C27.6737 5.96643 28.8275 5.60324 29.303 5.47754C29.5782 5.40479 29.7682 5.374 29.8732 5.36057C29.98 5.34691 30.0316 5.34702 30.0335 5.34702V85.1046C43.0241 85.1046 56.6775 81.893 68.357 74.5933C79.4744 67.6449 94.2194 52.9403 94.2194 30.0338H14.4618ZM30.0335 5.34702C30.0355 5.34702 30.0871 5.34691 30.1939 5.36057C30.2989 5.374 30.4889 5.40479 30.7641 5.47754C31.2396 5.60324 32.3934 5.96643 33.9816 6.95905C36.3015 8.40904 45.6053 15.5176 45.6053 30.0338H-34.1523C-34.1523 52.9403 -19.4073 67.6449 -8.28991 74.5933C3.38958 81.893 17.0429 85.1046 30.0335 85.1046V5.34702Z" fill="#FF7070" fill-opacity="0.5"/>
</g>
<mask id="mask9_35_195" style="mask-type:alpha" maskUnits="userSpaceOnUse" x="9" y="9" width="42" height="42">
<path d="M19.4664 19.4666C9.97386 28.9591 7.08814 41.4638 13.0209 47.3966C18.9538 53.3294 31.4584 50.4437 40.951 40.9511C50.4435 31.4586 53.3292 18.9539 47.3964 13.0211C41.4636 7.08833 28.9589 9.97404 19.4664 19.4666Z" fill="white"/>
</mask>
<g mask="url(#mask9_35_195)">
<path d="M41.2193 19.198C51.4838 29.4626 49.9316 41.0678 49.3164 43.7336C48.8953 45.5585 48.3363 46.6312 48.0889 47.0563C47.9457 47.3023 47.8332 47.4585 47.7684 47.5422C47.7026 47.6274 47.666 47.6638 47.6646 47.6652L-8.73247 -8.73199C-17.9182 0.453758 -25.3017 12.3791 -28.3987 25.7994C-31.3466 38.5738 -31.3752 59.3979 -15.1779 75.5952L41.2193 19.198ZM47.6646 47.6652C47.6632 47.6666 47.6269 47.7031 47.5417 47.7689C47.4579 47.8337 47.3018 47.9463 47.0558 48.0894C46.6306 48.3368 45.558 48.8958 43.7331 49.317C41.0673 49.9321 29.462 51.4843 19.1975 41.2198L75.5946 -15.1773C59.3973 -31.3747 38.5733 -31.3461 25.7988 -28.3981C12.3785 -25.3011 0.453278 -17.9177 -8.73247 -8.73199L47.6646 47.6652ZM19.1975 41.2198C8.93303 30.9553 10.4852 19.35 11.1003 16.6842C11.5215 14.8593 12.0805 13.7867 12.3279 13.3615C12.471 13.1155 12.5836 12.9594 12.6484 12.8756C12.7142 12.7904 12.7507 12.7541 12.7521 12.7527L69.1493 69.1498C78.335 59.964 85.7184 48.0388 88.8154 34.6185C91.7634 21.844 91.792 1.01994 75.5946 -15.1773L19.1975 41.2198ZM12.7521 12.7527C12.7535 12.7513 12.7899 12.7147 12.8751 12.6489C12.9588 12.5841 13.115 12.4716 13.361 12.3284C13.7861 12.081 14.8588 11.522 16.6837 11.1009C19.3495 10.4857 30.9547 8.93352 41.2193 19.198L-15.1779 75.5952C1.01947 91.7925 21.8435 91.7639 34.6179 88.816C48.0382 85.719 59.9635 78.3355 69.1493 69.1498L12.7521 12.7527Z" fill="#FFF970" fill-opacity="0.5"/>
</g>
<mask id="mask10_35_195" style="mask-type:alpha" maskUnits="userSpaceOnUse" x="9" y="9" width="42" height="42">
<path d="M40.9502 19.4666C31.4577 9.9741 18.953 7.08838 13.0202 13.0212C7.08738 18.954 9.9731 31.4587 19.4656 40.9512C28.9581 50.4437 41.4628 53.3294 47.3956 47.3966C53.3284 41.4638 50.4427 28.9591 40.9502 19.4666Z" fill="white"/>
</mask>
<g mask="url(#mask10_35_195)">
<path d="M41.2193 41.2198C30.9547 51.4843 19.3495 49.9321 16.6837 49.317C14.8588 48.8958 13.7861 48.3368 13.361 48.0894C13.115 47.9463 12.9589 47.8337 12.8751 47.7689C12.7899 47.7031 12.7535 47.6666 12.7521 47.6652L69.1493 -8.73199C59.9635 -17.9177 48.0382 -25.3011 34.6179 -28.3981C21.8435 -31.3461 1.01947 -31.3747 -15.1779 -15.1774L41.2193 41.2198ZM12.7521 47.6652C12.7507 47.6638 12.7142 47.6274 12.6484 47.5422C12.5836 47.4584 12.471 47.3023 12.3279 47.0563C12.0805 46.6312 11.5215 45.5585 11.1003 43.7336C10.4852 41.0678 8.93303 29.4625 19.1975 19.198L75.5946 75.5952C91.792 59.3978 91.7634 38.5738 88.8154 25.7994C85.7184 12.3791 78.335 0.453753 69.1493 -8.73199L12.7521 47.6652ZM19.1975 19.198C29.462 8.93351 41.0673 10.4857 43.7331 11.1009C45.558 11.522 46.6306 12.081 47.0558 12.3284C47.3018 12.4715 47.4579 12.5841 47.5417 12.6489C47.6269 12.7147 47.6632 12.7513 47.6646 12.7527L-8.73247 69.1498C0.453279 78.3355 12.3785 85.719 25.7988 88.8159C38.5733 91.7639 59.3973 91.7925 75.5946 75.5952L19.1975 19.198ZM47.6646 12.7527C47.666 12.7541 47.7026 12.7904 47.7684 12.8756C47.8332 12.9594 47.9458 13.1155 48.0889 13.3615C48.3363 13.7866 48.8953 14.8593 49.3164 16.6842C49.9316 19.35 51.4838 30.9553 41.2193 41.2198L-15.1779 -15.1774C-31.3752 1.01995 -31.3466 21.844 -28.3987 34.6185C-25.3017 48.0388 -17.9182 59.964 -8.73247 69.1498L47.6646 12.7527Z" fill="#70E5FF" fill-opacity="0.5"/>
</g>
<mask id="mask11_35_195" style="mask-type:alpha" maskUnits="userSpaceOnUse" x="14" y="5" width="32" height="50">
<path d="M14.8418 30.0339C14.8418 43.4583 21.6434 54.341 30.0337 54.341C38.4239 54.341 45.2256 43.4583 45.2256 30.0339C45.2256 16.6095 38.4239 5.72681 30.0337 5.72681C21.6434 5.72681 14.8418 16.6095 14.8418 30.0339Z" fill="white"/>
</mask>
<g mask="url(#mask11_35_195)">
<path d="M30.0336 14.462C44.5498 14.462 51.6585 23.7657 53.1085 26.0857C54.1011 27.6739 54.4643 28.8277 54.59 29.3032C54.6627 29.5784 54.6935 29.7684 54.7069 29.8734C54.7206 29.9802 54.7205 30.0317 54.7205 30.0337H-25.0371C-25.0371 43.0243 -21.8255 56.6776 -14.5258 68.3571C-7.57745 79.4746 7.12715 94.2196 30.0336 94.2196V14.462ZM54.7205 30.0337C54.7205 30.0357 54.7206 30.0872 54.7069 30.194C54.6935 30.2991 54.6627 30.489 54.59 30.7643C54.4643 31.2398 54.1011 32.3935 53.1085 33.9817C51.6585 36.3017 44.5498 45.6054 30.0336 45.6054V-34.1521C7.12714 -34.1521 -7.57746 -19.4071 -14.5258 -8.28969C-21.8255 3.38981 -25.0371 17.0431 -25.0371 30.0337H54.7205ZM30.0336 45.6054C15.5174 45.6054 8.40877 36.3017 6.95878 33.9817C5.96616 32.3935 5.60298 31.2398 5.47728 30.7643C5.40453 30.4891 5.37373 30.2991 5.3603 30.194C5.34664 30.0873 5.34675 30.0357 5.34675 30.0337H85.1043C85.1043 17.0431 81.8928 3.3898 74.5931 -8.2897C67.6447 -19.4071 52.9401 -34.1521 30.0336 -34.1521V45.6054ZM5.34675 30.0337C5.34675 30.0317 5.34664 29.9802 5.3603 29.8734C5.37373 29.7684 5.40453 29.5784 5.47728 29.3032C5.60298 28.8277 5.96616 27.6739 6.95878 26.0857C8.40877 23.7657 15.5174 14.462 30.0336 14.462V94.2196C52.9401 94.2196 67.6447 79.4745 74.5931 68.3571C81.8928 56.6776 85.1043 43.0243 85.1043 30.0337H5.34675Z" fill="#B1EAD5" fill-opacity="0.5"/>
</g>
<mask id="mask12_35_195" style="mask-type:alpha" maskUnits="userSpaceOnUse" x="5" y="14" width="50" height="32">
<path d="M30.0337 14.8418C16.6093 14.8418 5.72662 21.6434 5.72662 30.0337C5.72662 38.4239 16.6093 45.2256 30.0337 45.2256C43.4582 45.2256 54.3408 38.4239 54.3408 30.0337C54.3408 21.6434 43.4582 14.8418 30.0337 14.8418Z" fill="white"/>
</mask>
<g mask="url(#mask12_35_195)">
<path d="M45.6053 30.0338C45.6053 44.5501 36.3015 51.6587 33.9816 53.1087C32.3934 54.1013 31.2396 54.4645 30.7641 54.5902C30.4889 54.6629 30.2989 54.6937 30.1939 54.7072C30.0871 54.7208 30.0355 54.7207 30.0335 54.7207V-25.0369C17.0429 -25.0369 3.38958 -21.8253 -8.28991 -14.5256C-19.4073 -7.5772 -34.1523 7.12741 -34.1523 30.0338H45.6053ZM30.0335 54.7207C30.0316 54.7207 29.98 54.7208 29.8732 54.7072C29.7682 54.6937 29.5782 54.6629 29.303 54.5902C28.8275 54.4645 27.6737 54.1013 26.0855 53.1087C23.7655 51.6587 14.4618 44.5501 14.4618 30.0338H94.2194C94.2194 7.12741 79.4744 -7.5772 68.357 -14.5256C56.6775 -21.8253 43.0241 -25.0369 30.0335 -25.0369V54.7207ZM14.4618 30.0338C14.4618 15.5176 23.7655 8.40904 26.0855 6.95905C27.6737 5.96643 28.8275 5.60324 29.303 5.47754C29.5782 5.40479 29.7682 5.374 29.8732 5.36057C29.98 5.34691 30.0316 5.34702 30.0335 5.34702V85.1046C43.0241 85.1046 56.6775 81.893 68.357 74.5933C79.4744 67.6449 94.2194 52.9403 94.2194 30.0338H14.4618ZM30.0335 5.34702C30.0355 5.34702 30.0871 5.34691 30.1939 5.36057C30.2989 5.374 30.4889 5.40479 30.7641 5.47754C31.2396 5.60324 32.3934 5.96643 33.9816 6.95905C36.3015 8.40904 45.6053 15.5176 45.6053 30.0338H-34.1523C-34.1523 52.9403 -19.4073 67.6449 -8.28991 74.5933C3.38958 81.893 17.0429 85.1046 30.0335 85.1046V5.34702Z" fill="#FF7070" fill-opacity="0.5"/>
</g>
<mask id="mask13_35_195" style="mask-type:alpha" maskUnits="userSpaceOnUse" x="9" y="9" width="42" height="42">
<path d="M19.4664 19.4666C9.97386 28.9591 7.08814 41.4638 13.0209 47.3966C18.9538 53.3294 31.4584 50.4437 40.951 40.9511C50.4435 31.4586 53.3292 18.9539 47.3964 13.0211C41.4636 7.08833 28.9589 9.97404 19.4664 19.4666Z" fill="white"/>
</mask>
<g mask="url(#mask13_35_195)">
<path d="M41.2193 19.198C51.4838 29.4626 49.9316 41.0678 49.3164 43.7336C48.8953 45.5585 48.3363 46.6312 48.0889 47.0563C47.9457 47.3023 47.8332 47.4585 47.7684 47.5422C47.7026 47.6274 47.666 47.6638 47.6646 47.6652L-8.73247 -8.73199C-17.9182 0.453758 -25.3017 12.3791 -28.3987 25.7994C-31.3466 38.5738 -31.3752 59.3979 -15.1779 75.5952L41.2193 19.198ZM47.6646 47.6652C47.6632 47.6666 47.6269 47.7031 47.5417 47.7689C47.4579 47.8337 47.3018 47.9463 47.0558 48.0894C46.6306 48.3368 45.558 48.8958 43.7331 49.317C41.0673 49.9321 29.462 51.4843 19.1975 41.2198L75.5946 -15.1773C59.3973 -31.3747 38.5733 -31.3461 25.7988 -28.3981C12.3785 -25.3011 0.453278 -17.9177 -8.73247 -8.73199L47.6646 47.6652ZM19.1975 41.2198C8.93303 30.9553 10.4852 19.35 11.1003 16.6842C11.5215 14.8593 12.0805 13.7867 12.3279 13.3615C12.471 13.1155 12.5836 12.9594 12.6484 12.8756C12.7142 12.7904 12.7507 12.7541 12.7521 12.7527L69.1493 69.1498C78.335 59.964 85.7184 48.0388 88.8154 34.6185C91.7634 21.844 91.792 1.01994 75.5946 -15.1773L19.1975 41.2198ZM12.7521 12.7527C12.7535 12.7513 12.7899 12.7147 12.8751 12.6489C12.9588 12.5841 13.115 12.4716 13.361 12.3284C13.7861 12.081 14.8588 11.522 16.6837 11.1009C19.3495 10.4857 30.9547 8.93352 41.2193 19.198L-15.1779 75.5952C1.01947 91.7925 21.8435 91.7639 34.6179 88.816C48.0382 85.719 59.9635 78.3355 69.1493 69.1498L12.7521 12.7527Z" fill="#FFF970" fill-opacity="0.5"/>
</g>
<mask id="mask14_35_195" style="mask-type:alpha" maskUnits="userSpaceOnUse" x="9" y="9" width="42" height="42">
<path d="M40.9502 19.4666C31.4577 9.9741 18.953 7.08838 13.0202 13.0212C7.08738 18.954 9.9731 31.4587 19.4656 40.9512C28.9581 50.4437 41.4628 53.3294 47.3956 47.3966C53.3284 41.4638 50.4427 28.9591 40.9502 19.4666Z" fill="white"/>
</mask>
<g mask="url(#mask14_35_195)">
<path d="M41.2193 41.2198C30.9547 51.4843 19.3495 49.9321 16.6837 49.317C14.8588 48.8958 13.7861 48.3368 13.361 48.0894C13.115 47.9463 12.9589 47.8337 12.8751 47.7689C12.7899 47.7031 12.7535 47.6666 12.7521 47.6652L69.1493 -8.73199C59.9635 -17.9177 48.0382 -25.3011 34.6179 -28.3981C21.8435 -31.3461 1.01947 -31.3747 -15.1779 -15.1774L41.2193 41.2198ZM12.7521 47.6652C12.7507 47.6638 12.7142 47.6274 12.6484 47.5422C12.5836 47.4584 12.471 47.3023 12.3279 47.0563C12.0805 46.6312 11.5215 45.5585 11.1003 43.7336C10.4852 41.0678 8.93303 29.4625 19.1975 19.198L75.5946 75.5952C91.792 59.3978 91.7634 38.5738 88.8154 25.7994C85.7184 12.3791 78.335 0.453753 69.1493 -8.73199L12.7521 47.6652ZM19.1975 19.198C29.462 8.93351 41.0673 10.4857 43.7331 11.1009C45.558 11.522 46.6306 12.081 47.0558 12.3284C47.3018 12.4715 47.4579 12.5841 47.5417 12.6489C47.6269 12.7147 47.6632 12.7513 47.6646 12.7527L-8.73247 69.1498C0.453279 78.3355 12.3785 85.719 25.7988 88.8159C38.5733 91.7639 59.3973 91.7925 75.5946 75.5952L19.1975 19.198ZM47.6646 12.7527C47.666 12.7541 47.7026 12.7904 47.7684 12.8756C47.8332 12.9594 47.9458 13.1155 48.0889 13.3615C48.3363 13.7866 48.8953 14.8593 49.3164 16.6842C49.9316 19.35 51.4838 30.9553 41.2193 41.2198L-15.1779 -15.1774C-31.3752 1.01995 -31.3466 21.844 -28.3987 34.6185C-25.3017 48.0388 -17.9182 59.964 -8.73247 69.1498L47.6646 12.7527Z" fill="#70E5FF" fill-opacity="0.5"/>
</g>
<mask id="mask15_35_195" style="mask-type:alpha" maskUnits="userSpaceOnUse" x="14" y="5" width="32" height="50">
<path d="M14.8418 30.0339C14.8418 43.4583 21.6434 54.341 30.0337 54.341C38.4239 54.341 45.2256 43.4583 45.2256 30.0339C45.2256 16.6095 38.4239 5.72681 30.0337 5.72681C21.6434 5.72681 14.8418 16.6095 14.8418 30.0339Z" fill="white"/>
</mask>
<g mask="url(#mask15_35_195)">
<path d="M30.0336 14.462C44.5498 14.462 51.6585 23.7657 53.1085 26.0857C54.1011 27.6739 54.4643 28.8277 54.59 29.3032C54.6627 29.5784 54.6935 29.7684 54.7069 29.8734C54.7206 29.9802 54.7205 30.0317 54.7205 30.0337H-25.0371C-25.0371 43.0243 -21.8255 56.6776 -14.5258 68.3571C-7.57745 79.4746 7.12715 94.2196 30.0336 94.2196V14.462ZM54.7205 30.0337C54.7205 30.0357 54.7206 30.0872 54.7069 30.194C54.6935 30.2991 54.6627 30.489 54.59 30.7643C54.4643 31.2398 54.1011 32.3935 53.1085 33.9817C51.6585 36.3017 44.5498 45.6054 30.0336 45.6054V-34.1521C7.12714 -34.1521 -7.57746 -19.4071 -14.5258 -8.28969C-21.8255 3.38981 -25.0371 17.0431 -25.0371 30.0337H54.7205ZM30.0336 45.6054C15.5174 45.6054 8.40877 36.3017 6.95878 33.9817C5.96616 32.3935 5.60298 31.2398 5.47728 30.7643C5.40453 30.4891 5.37373 30.2991 5.3603 30.194C5.34664 30.0873 5.34675 30.0357 5.34675 30.0337H85.1043C85.1043 17.0431 81.8928 3.3898 74.5931 -8.2897C67.6447 -19.4071 52.9401 -34.1521 30.0336 -34.1521V45.6054ZM5.34675 30.0337C5.34675 30.0317 5.34664 29.9802 5.3603 29.8734C5.37373 29.7684 5.40453 29.5784 5.47728 29.3032C5.60298 28.8277 5.96616 27.6739 6.95878 26.0857C8.40877 23.7657 15.5174 14.462 30.0336 14.462V94.2196C52.9401 94.2196 67.6447 79.4745 74.5931 68.3571C81.8928 56.6776 85.1043 43.0243 85.1043 30.0337H5.34675Z" fill="#B1EAD5" fill-opacity="0.5"/>
</g>
<path d="M103.963 40.3711V55.6135H98.7375C98.7138 55.3648 98.6704 55.1162 98.6704 54.8675C98.6704 46.7964 98.6427 38.7293 98.6743 30.6582C98.698 24.7539 101.271 20.2901 106.722 17.8984C115.515 14.0424 125.457 19.1732 126.542 28.7993C127.588 38.0978 120.626 45.0757 111.217 44.085C108.821 43.8324 107.109 42.9049 103.963 40.3711V40.3711ZM121.325 30.4569C121.352 25.559 117.591 21.6951 112.764 21.6675C107.823 21.6399 104.022 25.4366 103.967 30.4569C103.916 35.2088 107.776 39.1634 112.508 39.2187C117.433 39.2739 121.293 35.4337 121.325 30.4569V30.4569Z" fill="white"/>
<path d="M193.326 43.485H188.337V39.3094C187.256 40.296 186.309 41.4564 185.109 42.2142C178.214 46.5753 169.385 43.4968 166.299 35.7297C162.766 26.8376 168.702 17.401 178.249 16.6945C186.332 16.0985 193.279 21.6556 193.381 30.5752C193.429 34.6719 193.389 38.7686 193.389 42.8654C193.389 43.0548 193.354 43.2443 193.33 43.4811L193.326 43.485ZM179.354 21.6279C174.52 21.6161 170.577 25.4523 170.628 30.3739C170.68 35.26 174.251 39.1475 179.327 39.1594C184.296 39.1712 188.045 35.41 188.033 30.4055C188.026 25.3458 184.252 21.6398 179.354 21.6319V21.6279Z" fill="white"/>
<path d="M75.1046 36.0888C75.3888 36.4874 75.6098 36.8466 75.8782 37.1662C77.9857 39.7237 82.2916 40.4815 85.1964 38.8397C86.3292 38.2003 86.933 37.2728 86.8896 35.9625C86.8462 34.6916 86.0174 33.9615 84.9439 33.63C82.8521 32.9827 80.705 32.5091 78.6014 31.8894C77.4411 31.5461 76.2807 31.1475 75.2033 30.6107C70.7987 28.4124 70.9526 22.2554 73.9956 19.5361C77.3148 16.5721 81.1905 16.1775 85.3306 17.2628C88.0184 17.9653 90.0904 19.5085 91.4797 22.0107C90.1338 22.7725 88.8275 23.5145 87.525 24.2525C85.1175 21.1464 81.5457 20.3018 78.5935 22.1015C76.6281 23.3013 76.5649 25.8667 78.6409 26.8021C80.4406 27.6112 82.4535 27.9427 84.3479 28.5623C85.9582 29.0912 87.6 29.5924 89.1116 30.3502C92.8452 32.221 92.9636 37.6359 90.7179 40.371C88.8472 42.6483 86.3884 43.7494 83.5585 44.0296C79.7894 44.4006 76.186 43.9112 73.2891 41.1525C72.4485 40.3513 71.8012 39.3488 71 38.3661C72.4563 37.5609 73.7627 36.8347 75.1007 36.0927L75.1046 36.0888Z" fill="white"/>
<path d="M214.945 38.2793C216.268 37.5452 217.578 36.823 218.951 36.0612C219.891 37.857 221.26 39.0845 223.222 39.4554C225.325 39.8541 227.437 39.8896 229.288 38.599C231.36 37.1545 231.186 34.6523 228.854 33.7129C227.046 32.9828 225.077 32.6631 223.198 32.0987C221.789 31.6764 220.341 31.2896 219.03 30.6463C215.261 28.7913 214.977 24.5525 216.22 21.7582C217.278 19.3783 219.208 17.9694 221.659 17.2945C225.858 16.1381 229.801 16.6196 233.227 19.4889C234.016 20.148 234.6 21.0478 235.358 21.9319C233.902 22.7607 232.575 23.5145 231.257 24.2605C229.019 21.2017 225.317 20.3019 222.417 22.0424C221.39 22.6581 220.873 23.5422 220.873 24.7104C220.873 25.8471 221.6 26.5693 222.555 26.9206C224.086 27.481 225.681 27.8796 227.247 28.3454C228.751 28.7953 230.294 29.1544 231.755 29.7149C237.102 31.7751 237.217 38.6148 233.112 41.7367C230.113 44.0179 226.73 44.4323 223.123 43.935C219.626 43.4496 216.895 41.8156 215.131 38.7016C215.068 38.5911 215.024 38.4648 214.941 38.2754L214.945 38.2793Z" fill="white"/>
<path d="M202.174 5.22534H207.364V43.4575H202.174V5.22534Z" fill="white"/>
<path d="M153.097 43.4812H147.911C147.887 43.2128 147.84 42.9326 147.84 42.6523C147.836 37.5018 147.816 32.3553 147.84 27.2048C147.867 22.449 150.287 18.8219 154.427 17.3498C157.02 16.4262 159.644 16.5644 162.261 17.3379C162.892 17.5234 163.129 17.8549 163.098 18.5417C163.035 19.9467 163.078 21.3518 163.078 22.6542C161.712 22.3779 160.394 21.9556 159.052 21.8688C155.769 21.6557 153.432 23.7395 153.223 27.0311C153.089 29.1545 153.112 31.2897 153.097 33.4209C153.077 36.4046 153.093 39.3884 153.093 42.3721V43.4812H153.097Z" fill="white"/>
<path d="M133.828 17.2668H138.994V43.4693H133.828V17.2668Z" fill="white"/>
<path d="M136.397 12.0098C134.471 12.0019 132.904 10.4113 132.928 8.48137C132.952 6.63034 134.538 5.02796 136.381 5.00034C138.232 4.97271 139.851 6.65008 139.831 8.5682C139.811 10.4903 138.292 12.0137 136.397 12.0058V12.0098Z" fill="white"/>
</svg>