<svg width="208" height="50" viewBox="0 0 208 50" fill="none" xmlns="http://www.w3.org/2000/svg">
<g filter="url(#filter0_d_1663_59)">
<path d="M84.5483 29.8856V42H80.0672C80.0469 41.8023 80.0096 41.6048 80.0096 41.4071C80.0096 34.9923 79.9859 28.5807 80.013 22.1659C80.0333 17.4733 82.2398 13.9255 86.9142 12.0247C94.4546 8.95998 102.98 13.0379 103.911 20.6885C104.808 28.0788 98.8375 33.6247 90.7689 32.8373C88.7142 32.6366 87.2461 31.8994 84.5483 29.8856ZM99.4369 22.006C99.4601 18.1132 96.2349 15.0422 92.0955 15.0203C87.8584 14.9983 84.5989 18.0159 84.5517 22.006C84.508 25.7827 87.8181 28.9257 91.876 28.9697C96.0994 29.0136 99.4095 25.9614 99.4369 22.006Z" fill="white"/>
</g>
<g filter="url(#filter1_d_1663_59)">
<path d="M166.936 32.4235H162.857V29.0898C161.974 29.8775 161.2 30.8039 160.219 31.4089C154.582 34.8906 147.365 32.4329 144.842 26.2319C141.954 19.1327 146.807 11.5989 154.611 11.0348C161.218 10.559 166.897 14.9956 166.981 22.1167C167.02 25.3874 166.987 28.658 166.987 31.9288C166.987 32.08 166.959 32.2313 166.939 32.4203L166.936 32.4235ZM155.514 14.9735C151.563 14.9641 148.339 18.0268 148.381 21.956C148.424 25.8569 151.343 28.9605 155.492 28.97C159.554 28.9795 162.619 25.9766 162.609 21.9812C162.603 17.9417 159.518 14.983 155.514 14.9767V14.9735Z" fill="white"/>
</g>
<g filter="url(#filter2_d_1663_59)">
<path d="M187.003 28.3103C188.071 27.7211 189.129 27.1415 190.237 26.5301C190.996 27.9714 192.101 28.9566 193.685 29.2543C195.383 29.5743 197.088 29.6028 198.582 28.5669C200.255 27.4076 200.114 25.3993 198.232 24.6453C196.772 24.0593 195.183 23.8027 193.666 23.3497C192.528 23.0108 191.359 22.7003 190.301 22.184C187.258 20.6952 187.029 17.2931 188.033 15.0504C188.887 13.1402 190.445 12.0094 192.423 11.4678C195.813 10.5396 198.996 10.9261 201.762 13.229C202.399 13.758 202.87 14.4802 203.482 15.1898C202.307 15.855 201.235 16.46 200.171 17.0587C198.365 14.6037 195.376 13.8815 193.035 15.2785C192.206 15.7726 191.789 16.4822 191.789 17.4198C191.789 18.3321 192.376 18.9118 193.147 19.1938C194.383 19.6435 195.67 19.9635 196.934 20.3373C198.148 20.6984 199.394 20.9866 200.573 21.4365C204.89 23.09 204.983 28.5796 201.669 31.0853C199.248 32.9162 196.517 33.2488 193.605 32.8497C190.782 32.4601 188.577 31.1486 187.153 28.6493C187.103 28.5606 187.067 28.4592 187 28.3072L187.003 28.3103Z" fill="white"/>
</g>
<g filter="url(#filter3_d_1663_59)">
<path d="M175 0H179V33H175V0Z" fill="white"/>
</g>
<g filter="url(#filter4_d_1663_59)">
<path d="M128.795 33H125.06C125.042 32.7795 125.008 32.5492 125.008 32.3189C125.005 28.0869 124.991 23.8581 125.008 19.6261C125.028 15.7184 126.771 12.7381 129.753 11.5285C131.62 10.7696 133.51 10.8832 135.395 11.5188C135.85 11.6712 136.02 11.9436 135.998 12.5079C135.953 13.6623 135.984 14.8169 135.984 15.887C135 15.66 134.05 15.313 133.084 15.2417C130.719 15.0666 129.036 16.7788 128.886 19.4834C128.789 21.2281 128.806 22.9826 128.795 24.7337C128.78 27.1853 128.792 29.6371 128.792 32.0887V33H128.795Z" fill="white"/>
</g>
<g filter="url(#filter5_d_1663_59)">
<path d="M112 11H117V33H112V11Z" fill="white"/>
</g>
<g filter="url(#filter6_d_1663_59)">
<path d="M59.0972 26.5434C59.3117 26.8631 59.4784 27.1512 59.6809 27.4076C61.2712 29.459 64.5203 30.0668 66.7122 28.7499C67.567 28.237 68.0226 27.4931 67.9898 26.4421C67.9571 25.4226 67.3317 24.837 66.5217 24.5711C64.9432 24.0519 63.3231 23.672 61.7358 23.1749C60.8603 22.8996 59.9847 22.5799 59.1717 22.1493C55.8481 20.386 55.9642 15.4473 58.2604 13.2661C60.765 10.8886 63.6895 10.5721 66.8134 11.4427C68.8416 12.0061 70.4051 13.244 71.4534 15.251C70.4378 15.8621 69.4521 16.4573 68.4693 17.0492C66.6527 14.5578 63.9575 13.8803 61.7298 15.3239C60.2468 16.2863 60.1991 18.344 61.7656 19.0943C63.1236 19.7433 64.6425 20.0092 66.0719 20.5062C67.287 20.9305 68.5259 21.3325 69.6665 21.9403C72.4838 23.4409 72.5731 27.7843 70.8786 29.9782C69.467 31.8049 67.6116 32.6881 65.4763 32.9128C62.6322 33.2104 59.9132 32.8179 57.7273 30.6051C57.093 29.9624 56.6046 29.1583 56 28.37C57.0989 27.7242 58.0847 27.1417 59.0943 26.5465L59.0972 26.5434Z" fill="white"/>
</g>
<mask id="mask0_1663_59" style="mask-type:alpha" maskUnits="userSpaceOnUse" x="4" y="8" width="41" height="26">
<path d="M24.8755 8.36084C13.8166 8.36084 4.85156 13.9639 4.85156 20.8758C4.85156 27.7875 13.8166 33.3907 24.8755 33.3907C35.9345 33.3907 44.8994 27.7875 44.8994 20.8758C44.8994 13.9639 35.9345 8.36084 24.8755 8.36084Z" fill="white"/>
</mask>
<g mask="url(#mask0_1663_59)">
<g filter="url(#filter7_d_1663_59)">
<path d="M37.7035 20.876C37.7035 32.8343 30.0391 38.6903 28.128 39.8848C26.8197 40.7025 25.8692 41.0017 25.4775 41.1053C25.2508 41.1652 25.0942 41.1905 25.0077 41.2017C24.9198 41.2129 24.8773 41.2128 24.8756 41.2128V-24.4907C14.1741 -24.4907 2.92662 -21.845 -6.69482 -15.8316C-15.8532 -10.1076 -28 2.00591 -28 20.876H37.7035ZM24.8756 41.2128C24.8741 41.2128 24.8315 41.2129 24.7436 41.2017C24.6571 41.1905 24.5005 41.1652 24.2738 41.1053C23.8821 41.0017 22.9316 40.7025 21.6233 39.8848C19.7121 38.6903 12.0478 32.8343 12.0478 20.876H77.7513C77.7513 2.00591 65.6045 -10.1076 56.4461 -15.8316C46.8247 -21.845 35.5771 -24.4907 24.8756 -24.4907V41.2128ZM12.0478 20.876C12.0478 8.91767 19.7121 3.0617 21.6233 1.86722C22.9316 1.04951 23.8821 0.750314 24.2738 0.646764C24.5005 0.586833 24.6571 0.561468 24.7436 0.550405C24.8315 0.539152 24.8741 0.539243 24.8756 0.539243V66.2427C35.5771 66.2427 46.8247 63.5971 56.4461 57.5836C65.6045 51.8596 77.7513 39.7461 77.7513 20.876H12.0478ZM24.8756 0.539243C24.8773 0.539243 24.9198 0.539152 25.0077 0.550405C25.0942 0.561468 25.2508 0.586833 25.4775 0.646764C25.8692 0.750314 26.8197 1.04951 28.128 1.86722C30.0391 3.0617 37.7035 8.91767 37.7035 20.876H-28C-28 39.7461 -15.8532 51.8596 -6.69482 57.5836C2.92662 63.5971 14.1741 66.2427 24.8756 66.2427V0.539243Z" fill="#FF7070" fill-opacity="0.5"/>
</g>
</g>
<mask id="mask1_1663_59" style="mask-type:alpha" maskUnits="userSpaceOnUse" x="8" y="4" width="34" height="34">
<path d="M16.1702 12.171C8.35036 19.9908 5.97314 30.292 10.8605 35.1794C15.7479 40.0668 26.0491 37.6896 33.869 29.8697C41.6888 22.0499 44.0661 11.7486 39.1787 6.86122C34.2913 1.97387 23.99 4.35109 16.1702 12.171Z" fill="white"/>
</mask>
<g mask="url(#mask1_1663_59)">
<g filter="url(#filter8_d_1663_59)">
<path d="M34.0909 11.9496C42.5467 20.4054 41.268 29.9657 40.7612 32.1617C40.4143 33.6651 39.9538 34.5487 39.75 34.8989C39.6321 35.1016 39.5394 35.2303 39.486 35.2992C39.4318 35.3694 39.4016 35.3994 39.4005 35.4005L-7.05884 -11.0589C-14.626 -3.49176 -20.7084 6.33221 -23.2597 17.3877C-25.6881 27.9111 -25.7117 45.0658 -12.3685 58.409L34.0909 11.9496ZM39.4005 35.4005C39.3993 35.4017 39.3694 35.4318 39.2993 35.486C39.2302 35.5394 39.1016 35.6321 38.899 35.75C38.5487 35.9538 37.6651 36.4143 36.1618 36.7613C33.9657 37.268 24.4054 38.5467 15.9496 30.0909L62.4089 -16.3685C49.0658 -29.7117 31.9112 -29.6882 21.3877 -27.2596C10.3322 -24.7084 0.508284 -18.626 -7.05884 -11.0589L39.4005 35.4005ZM15.9496 30.0909C7.49382 21.6351 8.77248 12.0748 9.27919 9.87871C9.62617 8.37538 10.0867 7.49178 10.2905 7.14151C10.4084 6.93885 10.5011 6.81026 10.5545 6.74123C10.6087 6.67104 10.6388 6.64113 10.6399 6.63998L57.0994 53.0993C64.6665 45.5322 70.7488 35.7083 73.3001 24.6528C75.7286 14.1293 75.7522 -3.02535 62.4089 -16.3685L15.9496 30.0909ZM10.6399 6.63998C10.6411 6.63882 10.6711 6.60868 10.7413 6.55447C10.8102 6.50109 10.9389 6.40841 11.1415 6.29045C11.4917 6.08664 12.3754 5.62614 13.8787 5.27924C16.0748 4.77245 25.635 3.49378 34.0909 11.9496L-12.3685 58.409C0.974707 71.7522 18.1293 71.7286 28.6528 69.3002C39.7083 66.7489 49.5322 60.6664 57.0994 53.0993L10.6399 6.63998Z" fill="#FFF970" fill-opacity="0.5"/>
</g>
</g>
<mask id="mask2_1663_59" style="mask-type:alpha" maskUnits="userSpaceOnUse" x="8" y="4" width="34" height="34">
<path d="M33.869 12.1709C26.0491 4.35108 15.7479 1.97386 10.8605 6.86125C5.97313 11.7486 8.35035 22.0499 16.1702 29.8697C23.99 37.6895 34.2912 40.0667 39.1786 35.1794C44.066 30.292 41.6888 19.9907 33.869 12.1709Z" fill="white"/>
</mask>
<g mask="url(#mask2_1663_59)">
<g filter="url(#filter9_d_1663_59)">
<path d="M34.0909 30.0909C25.635 38.5467 16.0748 37.268 13.8787 36.7613C12.3754 36.4143 11.4917 35.9538 11.1415 35.75C10.9389 35.6321 10.8103 35.5394 10.7413 35.486C10.6711 35.4318 10.6411 35.4017 10.6399 35.4006L57.0994 -11.0589C49.5322 -18.626 39.7083 -24.7084 28.6528 -27.2596C18.1293 -29.6882 0.974707 -29.7117 -12.3685 -16.3686L34.0909 30.0909ZM10.6399 35.4006C10.6388 35.3994 10.6087 35.3694 10.5545 35.2992C10.5011 35.2302 10.4084 35.1016 10.2905 34.8989C10.0867 34.5488 9.62617 33.6651 9.27919 32.1617C8.77248 29.9657 7.49382 20.4053 15.9496 11.9496L62.4089 58.409C75.7522 45.0658 75.7286 27.9111 73.3001 17.3877C70.7488 6.33222 64.6665 -3.49176 57.0994 -11.0589L10.6399 35.4006ZM15.9496 11.9496C24.4054 3.49378 33.9657 4.77245 36.1618 5.27925C37.6651 5.62614 38.5487 6.08664 38.899 6.29045C39.1016 6.40833 39.2302 6.50109 39.2993 6.55447C39.3694 6.60868 39.3993 6.63883 39.4005 6.63998L-7.05884 53.0993C0.508286 60.6664 10.3322 66.7489 21.3877 69.3001C31.9112 71.7286 49.0658 71.7522 62.4089 58.409L15.9496 11.9496ZM39.4005 6.63998C39.4016 6.64114 39.4318 6.67104 39.486 6.74123C39.5394 6.81026 39.6321 6.93885 39.75 7.14151C39.9538 7.4917 40.4143 8.37538 40.7612 9.87872C41.268 12.0748 42.5467 21.6351 34.0909 30.0909L-12.3685 -16.3686C-25.7117 -3.02534 -25.6881 14.1293 -23.2597 24.6528C-20.7084 35.7083 -14.626 45.5322 -7.05884 53.0993L39.4005 6.63998Z" fill="#70E5FF" fill-opacity="0.5"/>
</g>
</g>
<mask id="mask3_1663_59" style="mask-type:alpha" maskUnits="userSpaceOnUse" x="12" y="0" width="26" height="41">
<path d="M12.3613 20.8757C12.3613 31.9346 17.9644 40.8997 24.8763 40.8997C31.788 40.8997 37.3912 31.9346 37.3912 20.8757C37.3912 9.81686 31.788 0.851807 24.8763 0.851807C17.9644 0.851807 12.3613 9.81686 12.3613 20.8757Z" fill="white"/>
</mask>
<g mask="url(#mask3_1663_59)">
<g filter="url(#filter10_d_1663_59)">
<path d="M24.8745 8.0478C36.8328 8.0478 42.6889 15.7121 43.8834 17.6233C44.7011 18.9316 45.0003 19.8821 45.1038 20.2738C45.1637 20.5005 45.1891 20.6571 45.2001 20.7436C45.2114 20.8315 45.2113 20.874 45.2113 20.8756H-20.4922C-20.4922 31.5771 -17.8465 42.8246 -11.8331 52.446C-6.10911 61.6045 6.0044 73.7513 24.8745 73.7513V8.0478ZM45.2113 20.8756C45.2113 20.8773 45.2114 20.9197 45.2001 21.0077C45.1891 21.0942 45.1637 21.2507 45.1038 21.4775C45.0003 21.8692 44.7011 22.8196 43.8834 24.1279C42.6889 26.0391 36.8328 33.7034 24.8745 33.7034V-32C6.00439 -32 -6.10911 -19.8532 -11.8331 -10.6948C-17.8465 -1.07335 -20.4922 10.1741 -20.4922 20.8756H45.2113ZM24.8745 33.7034C12.9162 33.7034 7.06018 26.0391 5.86569 24.1279C5.04798 22.8196 4.7488 21.8692 4.64525 21.4775C4.58532 21.2508 4.55994 21.0942 4.54888 21.0077C4.53763 20.9198 4.53772 20.8773 4.53772 20.8756H70.2412C70.2412 10.1741 67.5956 -1.07336 61.5822 -10.6948C55.8581 -19.8532 43.7446 -32 24.8745 -32V33.7034ZM4.53772 20.8756C4.53772 20.874 4.53763 20.8315 4.54888 20.7436C4.55994 20.6571 4.58532 20.5005 4.64525 20.2738C4.7488 19.8821 5.04798 18.9316 5.86569 17.6233C7.06018 15.7121 12.9162 8.0478 24.8745 8.0478V73.7513C43.7446 73.7513 55.8581 61.6044 61.5822 52.446C67.5956 42.8246 70.2412 31.5771 70.2412 20.8756H4.53772Z" fill="#B1EAD5" fill-opacity="0.5"/>
</g>
</g>
<mask id="mask4_1663_59" style="mask-type:alpha" maskUnits="userSpaceOnUse" x="4" y="8" width="41" height="26">
<path d="M24.8755 8.36084C13.8166 8.36084 4.85156 13.9639 4.85156 20.8758C4.85156 27.7875 13.8166 33.3907 24.8755 33.3907C35.9345 33.3907 44.8994 27.7875 44.8994 20.8758C44.8994 13.9639 35.9345 8.36084 24.8755 8.36084Z" fill="white"/>
</mask>
<g mask="url(#mask4_1663_59)">
<g filter="url(#filter11_d_1663_59)">
<path d="M37.7035 20.876C37.7035 32.8343 30.0391 38.6903 28.128 39.8848C26.8197 40.7025 25.8692 41.0017 25.4775 41.1053C25.2508 41.1652 25.0942 41.1905 25.0077 41.2017C24.9198 41.2129 24.8773 41.2128 24.8756 41.2128V-24.4907C14.1741 -24.4907 2.92662 -21.845 -6.69482 -15.8316C-15.8532 -10.1076 -28 2.00591 -28 20.876H37.7035ZM24.8756 41.2128C24.8741 41.2128 24.8315 41.2129 24.7436 41.2017C24.6571 41.1905 24.5005 41.1652 24.2738 41.1053C23.8821 41.0017 22.9316 40.7025 21.6233 39.8848C19.7121 38.6903 12.0478 32.8343 12.0478 20.876H77.7513C77.7513 2.00591 65.6045 -10.1076 56.4461 -15.8316C46.8247 -21.845 35.5771 -24.4907 24.8756 -24.4907V41.2128ZM12.0478 20.876C12.0478 8.91767 19.7121 3.0617 21.6233 1.86722C22.9316 1.04951 23.8821 0.750314 24.2738 0.646764C24.5005 0.586833 24.6571 0.561468 24.7436 0.550405C24.8315 0.539152 24.8741 0.539243 24.8756 0.539243V66.2427C35.5771 66.2427 46.8247 63.5971 56.4461 57.5836C65.6045 51.8596 77.7513 39.7461 77.7513 20.876H12.0478ZM24.8756 0.539243C24.8773 0.539243 24.9198 0.539152 25.0077 0.550405C25.0942 0.561468 25.2508 0.586833 25.4775 0.646764C25.8692 0.750314 26.8197 1.04951 28.128 1.86722C30.0391 3.0617 37.7035 8.91767 37.7035 20.876H-28C-28 39.7461 -15.8532 51.8596 -6.69482 57.5836C2.92662 63.5971 14.1741 66.2427 24.8756 66.2427V0.539243Z" fill="#FF7070" fill-opacity="0.5"/>
</g>
</g>
<mask id="mask5_1663_59" style="mask-type:alpha" maskUnits="userSpaceOnUse" x="8" y="4" width="34" height="34">
<path d="M16.1702 12.171C8.35036 19.9908 5.97314 30.292 10.8605 35.1794C15.7479 40.0668 26.0491 37.6896 33.869 29.8697C41.6888 22.0499 44.0661 11.7486 39.1787 6.86122C34.2913 1.97387 23.99 4.35109 16.1702 12.171Z" fill="white"/>
</mask>
<g mask="url(#mask5_1663_59)">
<g filter="url(#filter12_d_1663_59)">
<path d="M34.0909 11.9496C42.5467 20.4054 41.268 29.9657 40.7612 32.1617C40.4143 33.6651 39.9538 34.5487 39.75 34.8989C39.6321 35.1016 39.5394 35.2303 39.486 35.2992C39.4318 35.3694 39.4016 35.3994 39.4005 35.4005L-7.05884 -11.0589C-14.626 -3.49176 -20.7084 6.33221 -23.2597 17.3877C-25.6881 27.9111 -25.7117 45.0658 -12.3685 58.409L34.0909 11.9496ZM39.4005 35.4005C39.3993 35.4017 39.3694 35.4318 39.2993 35.486C39.2302 35.5394 39.1016 35.6321 38.899 35.75C38.5487 35.9538 37.6651 36.4143 36.1618 36.7613C33.9657 37.268 24.4054 38.5467 15.9496 30.0909L62.4089 -16.3685C49.0658 -29.7117 31.9112 -29.6882 21.3877 -27.2596C10.3322 -24.7084 0.508284 -18.626 -7.05884 -11.0589L39.4005 35.4005ZM15.9496 30.0909C7.49382 21.6351 8.77248 12.0748 9.27919 9.87871C9.62617 8.37538 10.0867 7.49178 10.2905 7.14151C10.4084 6.93885 10.5011 6.81026 10.5545 6.74123C10.6087 6.67104 10.6388 6.64113 10.6399 6.63998L57.0994 53.0993C64.6665 45.5322 70.7488 35.7083 73.3001 24.6528C75.7286 14.1293 75.7522 -3.02535 62.4089 -16.3685L15.9496 30.0909ZM10.6399 6.63998C10.6411 6.63882 10.6711 6.60868 10.7413 6.55447C10.8102 6.50109 10.9389 6.40841 11.1415 6.29045C11.4917 6.08664 12.3754 5.62614 13.8787 5.27924C16.0748 4.77245 25.635 3.49378 34.0909 11.9496L-12.3685 58.409C0.974707 71.7522 18.1293 71.7286 28.6528 69.3002C39.7083 66.7489 49.5322 60.6664 57.0994 53.0993L10.6399 6.63998Z" fill="#FFF970" fill-opacity="0.5"/>
</g>
</g>
<mask id="mask6_1663_59" style="mask-type:alpha" maskUnits="userSpaceOnUse" x="8" y="4" width="34" height="34">
<path d="M33.869 12.1709C26.0491 4.35108 15.7479 1.97386 10.8605 6.86125C5.97313 11.7486 8.35035 22.0499 16.1702 29.8697C23.99 37.6895 34.2912 40.0667 39.1786 35.1794C44.066 30.292 41.6888 19.9907 33.869 12.1709Z" fill="white"/>
</mask>
<g mask="url(#mask6_1663_59)">
<g filter="url(#filter13_d_1663_59)">
<path d="M34.0909 30.0909C25.635 38.5467 16.0748 37.268 13.8787 36.7613C12.3754 36.4143 11.4917 35.9538 11.1415 35.75C10.9389 35.6321 10.8103 35.5394 10.7413 35.486C10.6711 35.4318 10.6411 35.4017 10.6399 35.4006L57.0994 -11.0589C49.5322 -18.626 39.7083 -24.7084 28.6528 -27.2596C18.1293 -29.6882 0.974707 -29.7117 -12.3685 -16.3686L34.0909 30.0909ZM10.6399 35.4006C10.6388 35.3994 10.6087 35.3694 10.5545 35.2992C10.5011 35.2302 10.4084 35.1016 10.2905 34.8989C10.0867 34.5488 9.62617 33.6651 9.27919 32.1617C8.77248 29.9657 7.49382 20.4054 15.9496 11.9496L62.4089 58.409C75.7522 45.0657 75.7286 27.9111 73.3001 17.3877C70.7488 6.33222 64.6665 -3.49176 57.0994 -11.0589L10.6399 35.4006ZM15.9496 11.9496C24.4054 3.49378 33.9657 4.77245 36.1618 5.27925C37.6651 5.62615 38.5487 6.08664 38.899 6.29045C39.1016 6.40833 39.2302 6.50109 39.2993 6.55447C39.3694 6.60868 39.3993 6.63883 39.4005 6.63999L-7.05884 53.0994C0.508285 60.6664 10.3322 66.7489 21.3877 69.3001C31.9112 71.7286 49.0658 71.7522 62.4089 58.409L15.9496 11.9496ZM39.4005 6.63999C39.4016 6.64114 39.4318 6.67104 39.486 6.74123C39.5394 6.81026 39.6321 6.93886 39.75 7.14151C39.9538 7.4917 40.4143 8.37538 40.7612 9.87871C41.268 12.0748 42.5467 21.6351 34.0909 30.0909L-12.3685 -16.3686C-25.7117 -3.02534 -25.6881 14.1293 -23.2597 24.6528C-20.7084 35.7083 -14.626 45.5322 -7.05884 53.0994L39.4005 6.63999Z" fill="#70E5FF" fill-opacity="0.5"/>
</g>
</g>
<mask id="mask7_1663_59" style="mask-type:alpha" maskUnits="userSpaceOnUse" x="12" y="0" width="26" height="41">
<path d="M12.3613 20.8757C12.3613 31.9346 17.9644 40.8997 24.8763 40.8997C31.788 40.8997 37.3912 31.9346 37.3912 20.8757C37.3912 9.81686 31.788 0.851807 24.8763 0.851807C17.9644 0.851807 12.3613 9.81686 12.3613 20.8757Z" fill="white"/>
</mask>
<g mask="url(#mask7_1663_59)">
<g filter="url(#filter14_d_1663_59)">
<path d="M24.8745 8.0478C36.8328 8.0478 42.6889 15.7121 43.8834 17.6233C44.7011 18.9316 45.0003 19.8821 45.1038 20.2738C45.1637 20.5005 45.1891 20.6571 45.2001 20.7436C45.2114 20.8315 45.2113 20.874 45.2113 20.8756H-20.4922C-20.4922 31.5771 -17.8465 42.8246 -11.8331 52.446C-6.10911 61.6045 6.0044 73.7513 24.8745 73.7513V8.0478ZM45.2113 20.8756C45.2113 20.8773 45.2114 20.9197 45.2001 21.0077C45.1891 21.0942 45.1637 21.2507 45.1038 21.4775C45.0003 21.8692 44.7011 22.8196 43.8834 24.1279C42.6889 26.0391 36.8328 33.7034 24.8745 33.7034V-32C6.00439 -32 -6.10911 -19.8532 -11.8331 -10.6948C-17.8465 -1.07335 -20.4922 10.1741 -20.4922 20.8756H45.2113ZM24.8745 33.7034C12.9162 33.7034 7.06018 26.0391 5.86569 24.1279C5.04798 22.8196 4.7488 21.8692 4.64525 21.4775C4.58532 21.2508 4.55994 21.0942 4.54888 21.0077C4.53763 20.9198 4.53772 20.8773 4.53772 20.8756H70.2412C70.2412 10.1741 67.5956 -1.07336 61.5822 -10.6948C55.8581 -19.8532 43.7446 -32 24.8745 -32V33.7034ZM4.53772 20.8756C4.53772 20.874 4.53763 20.8315 4.54888 20.7436C4.55994 20.6571 4.58532 20.5005 4.64525 20.2738C4.7488 19.8821 5.04798 18.9316 5.86569 17.6233C7.06018 15.7121 12.9162 8.0478 24.8745 8.0478V73.7513C43.7446 73.7513 55.8581 61.6044 61.5822 52.446C67.5956 42.8246 70.2412 31.5771 70.2412 20.8756H4.53772Z" fill="#B1EAD5" fill-opacity="0.5"/>
</g>
</g>
<mask id="mask8_1663_59" style="mask-type:alpha" maskUnits="userSpaceOnUse" x="4" y="8" width="41" height="26">
<path d="M24.8755 8.36084C13.8166 8.36084 4.85156 13.9639 4.85156 20.8758C4.85156 27.7875 13.8166 33.3907 24.8755 33.3907C35.9345 33.3907 44.8994 27.7875 44.8994 20.8758C44.8994 13.9639 35.9345 8.36084 24.8755 8.36084Z" fill="white"/>
</mask>
<g mask="url(#mask8_1663_59)">
</g>
<mask id="mask9_1663_59" style="mask-type:alpha" maskUnits="userSpaceOnUse" x="8" y="4" width="34" height="34">
<path d="M16.1702 12.171C8.35036 19.9908 5.97314 30.292 10.8605 35.1794C15.7479 40.0668 26.0491 37.6896 33.869 29.8697C41.6888 22.0499 44.0661 11.7486 39.1787 6.86122C34.2913 1.97387 23.99 4.35109 16.1702 12.171Z" fill="white"/>
</mask>
<g mask="url(#mask9_1663_59)">
<g filter="url(#filter15_d_1663_59)">
<path d="M34.0909 11.9496C42.5467 20.4054 41.268 29.9657 40.7612 32.1617C40.4143 33.6651 39.9538 34.5487 39.75 34.8989C39.6321 35.1016 39.5394 35.2303 39.486 35.2992C39.4318 35.3694 39.4016 35.3994 39.4005 35.4005L-7.05884 -11.0589C-14.626 -3.49176 -20.7084 6.33221 -23.2597 17.3877C-25.6881 27.9111 -25.7117 45.0658 -12.3685 58.409L34.0909 11.9496ZM39.4005 35.4005C39.3993 35.4017 39.3694 35.4318 39.2993 35.486C39.2302 35.5394 39.1016 35.6321 38.899 35.75C38.5487 35.9538 37.6651 36.4143 36.1618 36.7613C33.9657 37.268 24.4054 38.5467 15.9496 30.0909L62.4089 -16.3685C49.0658 -29.7117 31.9112 -29.6882 21.3877 -27.2596C10.3322 -24.7084 0.508284 -18.626 -7.05884 -11.0589L39.4005 35.4005ZM15.9496 30.0909C7.49382 21.6351 8.77248 12.0748 9.27919 9.87871C9.62617 8.37538 10.0867 7.49178 10.2905 7.1415C10.4084 6.93885 10.5011 6.81026 10.5545 6.74122C10.6087 6.67104 10.6388 6.64113 10.6399 6.63998L57.0994 53.0993C64.6665 45.5322 70.7488 35.7083 73.3001 24.6528C75.7286 14.1293 75.7522 -3.02535 62.4089 -16.3685L15.9496 30.0909ZM10.6399 6.63998C10.6411 6.63883 10.6711 6.60868 10.7413 6.55447C10.8102 6.50109 10.9389 6.40841 11.1415 6.29045C11.4917 6.08664 12.3754 5.62614 13.8787 5.27924C16.0748 4.77245 25.635 3.49378 34.0909 11.9496L-12.3685 58.409C0.974707 71.7522 18.1293 71.7286 28.6528 69.3002C39.7083 66.7489 49.5322 60.6664 57.0994 53.0993L10.6399 6.63998Z" fill="#FFF970" fill-opacity="0.5"/>
</g>
</g>
<mask id="mask10_1663_59" style="mask-type:alpha" maskUnits="userSpaceOnUse" x="8" y="4" width="34" height="34">
<path d="M33.869 12.1709C26.0491 4.35108 15.7479 1.97386 10.8605 6.86125C5.97313 11.7486 8.35035 22.0499 16.1702 29.8697C23.99 37.6895 34.2912 40.0667 39.1786 35.1794C44.066 30.292 41.6888 19.9907 33.869 12.1709Z" fill="white"/>
</mask>
<g mask="url(#mask10_1663_59)">
<g filter="url(#filter16_d_1663_59)">
<path d="M34.0909 30.0909C25.635 38.5467 16.0748 37.268 13.8787 36.7613C12.3754 36.4143 11.4917 35.9538 11.1415 35.75C10.9389 35.6321 10.8103 35.5394 10.7413 35.486C10.6711 35.4318 10.6411 35.4017 10.6399 35.4006L57.0994 -11.0589C49.5322 -18.626 39.7083 -24.7084 28.6528 -27.2596C18.1293 -29.6882 0.974707 -29.7117 -12.3685 -16.3686L34.0909 30.0909ZM10.6399 35.4006C10.6388 35.3994 10.6087 35.3694 10.5545 35.2992C10.5011 35.2302 10.4084 35.1016 10.2905 34.8989C10.0867 34.5488 9.62617 33.6651 9.27919 32.1617C8.77248 29.9657 7.49382 20.4054 15.9496 11.9496L62.4089 58.409C75.7522 45.0657 75.7286 27.9111 73.3001 17.3877C70.7488 6.33222 64.6665 -3.49176 57.0994 -11.0589L10.6399 35.4006ZM15.9496 11.9496C24.4054 3.49378 33.9657 4.77245 36.1618 5.27925C37.6651 5.62615 38.5487 6.08664 38.899 6.29045C39.1016 6.40833 39.2302 6.50109 39.2993 6.55447C39.3694 6.60868 39.3993 6.63883 39.4005 6.63999L-7.05884 53.0994C0.508285 60.6664 10.3322 66.7489 21.3877 69.3001C31.9112 71.7286 49.0658 71.7522 62.4089 58.409L15.9496 11.9496ZM39.4005 6.63999C39.4016 6.64114 39.4318 6.67104 39.486 6.74123C39.5394 6.81026 39.6321 6.93886 39.75 7.14151C39.9538 7.4917 40.4143 8.37538 40.7612 9.87871C41.268 12.0748 42.5467 21.6351 34.0909 30.0909L-12.3685 -16.3686C-25.7117 -3.02534 -25.6881 14.1293 -23.2597 24.6528C-20.7084 35.7083 -14.626 45.5322 -7.05884 53.0994L39.4005 6.63999Z" fill="#70E5FF" fill-opacity="0.5"/>
</g>
</g>
<mask id="mask11_1663_59" style="mask-type:alpha" maskUnits="userSpaceOnUse" x="12" y="0" width="26" height="41">
<path d="M12.3613 20.8757C12.3613 31.9346 17.9644 40.8997 24.8763 40.8997C31.788 40.8997 37.3912 31.9346 37.3912 20.8757C37.3912 9.81686 31.788 0.851807 24.8763 0.851807C17.9644 0.851807 12.3613 9.81686 12.3613 20.8757Z" fill="white"/>
</mask>
<g mask="url(#mask11_1663_59)">
<g filter="url(#filter17_d_1663_59)">
<path d="M24.8745 8.0478C36.8328 8.0478 42.6889 15.7121 43.8834 17.6233C44.7011 18.9316 45.0003 19.8821 45.1038 20.2738C45.1637 20.5005 45.1891 20.6571 45.2001 20.7436C45.2114 20.8315 45.2113 20.874 45.2113 20.8756H-20.4922C-20.4922 31.5771 -17.8465 42.8246 -11.8331 52.446C-6.10911 61.6045 6.0044 73.7513 24.8745 73.7513V8.0478ZM45.2113 20.8756C45.2113 20.8773 45.2114 20.9197 45.2001 21.0077C45.1891 21.0942 45.1637 21.2507 45.1038 21.4775C45.0003 21.8692 44.7011 22.8196 43.8834 24.1279C42.6889 26.0391 36.8328 33.7034 24.8745 33.7034V-32C6.00439 -32 -6.10911 -19.8532 -11.8331 -10.6948C-17.8465 -1.07335 -20.4922 10.1741 -20.4922 20.8756H45.2113ZM24.8745 33.7034C12.9162 33.7034 7.06018 26.0391 5.86569 24.1279C5.04798 22.8196 4.7488 21.8692 4.64525 21.4775C4.58532 21.2508 4.55995 21.0942 4.54888 21.0077C4.53763 20.9198 4.53772 20.8773 4.53772 20.8756H70.2412C70.2412 10.1741 67.5956 -1.07336 61.5822 -10.6948C55.8581 -19.8532 43.7446 -32 24.8745 -32V33.7034ZM4.53772 20.8756C4.53772 20.874 4.53763 20.8315 4.54888 20.7436C4.55995 20.6571 4.58532 20.5005 4.64525 20.2738C4.7488 19.8821 5.04798 18.9316 5.86569 17.6233C7.06018 15.7121 12.9162 8.0478 24.8745 8.0478V73.7513C43.7446 73.7513 55.8581 61.6044 61.5822 52.446C67.5956 42.8246 70.2412 31.5771 70.2412 20.8756H4.53772Z" fill="#B1EAD5" fill-opacity="0.5"/>
</g>
</g>
<mask id="mask12_1663_59" style="mask-type:alpha" maskUnits="userSpaceOnUse" x="4" y="8" width="41" height="26">
<path d="M24.8755 8.36084C13.8166 8.36084 4.85156 13.9639 4.85156 20.8758C4.85156 27.7875 13.8166 33.3907 24.8755 33.3907C35.9345 33.3907 44.8994 27.7875 44.8994 20.8758C44.8994 13.9639 35.9345 8.36084 24.8755 8.36084Z" fill="white"/>
</mask>
<g mask="url(#mask12_1663_59)">
</g>
<mask id="mask13_1663_59" style="mask-type:alpha" maskUnits="userSpaceOnUse" x="8" y="4" width="34" height="34">
<path d="M16.1702 12.171C8.35036 19.9908 5.97314 30.292 10.8605 35.1794C15.7479 40.0668 26.0491 37.6896 33.869 29.8697C41.6888 22.0499 44.0661 11.7486 39.1787 6.86122C34.2913 1.97387 23.99 4.35109 16.1702 12.171Z" fill="white"/>
</mask>
<g mask="url(#mask13_1663_59)">
</g>
<mask id="mask14_1663_59" style="mask-type:alpha" maskUnits="userSpaceOnUse" x="8" y="4" width="34" height="34">
<path d="M33.869 12.1709C26.0491 4.35108 15.7479 1.97386 10.8605 6.86125C5.97313 11.7486 8.35035 22.0499 16.1702 29.8697C23.99 37.6895 34.2912 40.0667 39.1786 35.1794C44.066 30.292 41.6888 19.9907 33.869 12.1709Z" fill="white"/>
</mask>
<g mask="url(#mask14_1663_59)">
</g>
<mask id="mask15_1663_59" style="mask-type:alpha" maskUnits="userSpaceOnUse" x="12" y="0" width="26" height="41">
<path d="M12.3613 20.8757C12.3613 31.9346 17.9644 40.8997 24.8763 40.8997C31.788 40.8997 37.3912 31.9346 37.3912 20.8757C37.3912 9.81686 31.788 0.851807 24.8763 0.851807C17.9644 0.851807 12.3613 9.81686 12.3613 20.8757Z" fill="white"/>
</mask>
<g mask="url(#mask15_1663_59)">
</g>
<defs>
<filter id="filter0_d_1663_59" x="76" y="11" width="32" height="39" filterUnits="userSpaceOnUse" color-interpolation-filters="sRGB">
<feFlood flood-opacity="0" result="BackgroundImageFix"/>
<feColorMatrix in="SourceAlpha" type="matrix" values="0 0 0 0 0 0 0 0 0 0 0 0 0 0 0 0 0 0 127 0" result="hardAlpha"/>
<feOffset dy="4"/>
<feGaussianBlur stdDeviation="2"/>
<feComposite in2="hardAlpha" operator="out"/>
<feColorMatrix type="matrix" values="0 0 0 0 0 0 0 0 0 0 0 0 0 0 0 0 0 0 0.25 0"/>
<feBlend mode="normal" in2="BackgroundImageFix" result="effect1_dropShadow_1663_59"/>
<feBlend mode="normal" in="SourceGraphic" in2="effect1_dropShadow_1663_59" result="shape"/>
</filter>
<filter id="filter1_d_1663_59" x="140" y="11" width="31" height="30" filterUnits="userSpaceOnUse" color-interpolation-filters="sRGB">
<feFlood flood-opacity="0" result="BackgroundImageFix"/>
<feColorMatrix in="SourceAlpha" type="matrix" values="0 0 0 0 0 0 0 0 0 0 0 0 0 0 0 0 0 0 127 0" result="hardAlpha"/>
<feOffset dy="4"/>
<feGaussianBlur stdDeviation="2"/>
<feComposite in2="hardAlpha" operator="out"/>
<feColorMatrix type="matrix" values="0 0 0 0 0 0 0 0 0 0 0 0 0 0 0 0 0 0 0.25 0"/>
<feBlend mode="normal" in2="BackgroundImageFix" result="effect1_dropShadow_1663_59"/>
<feBlend mode="normal" in="SourceGraphic" in2="effect1_dropShadow_1663_59" result="shape"/>
</filter>
<filter id="filter2_d_1663_59" x="183" y="11" width="25" height="30" filterUnits="userSpaceOnUse" color-interpolation-filters="sRGB">
<feFlood flood-opacity="0" result="BackgroundImageFix"/>
<feColorMatrix in="SourceAlpha" type="matrix" values="0 0 0 0 0 0 0 0 0 0 0 0 0 0 0 0 0 0 127 0" result="hardAlpha"/>
<feOffset dy="4"/>
<feGaussianBlur stdDeviation="2"/>
<feComposite in2="hardAlpha" operator="out"/>
<feColorMatrix type="matrix" values="0 0 0 0 0 0 0 0 0 0 0 0 0 0 0 0 0 0 0.25 0"/>
<feBlend mode="normal" in2="BackgroundImageFix" result="effect1_dropShadow_1663_59"/>
<feBlend mode="normal" in="SourceGraphic" in2="effect1_dropShadow_1663_59" result="shape"/>
</filter>
<filter id="filter3_d_1663_59" x="171" y="0" width="12" height="41" filterUnits="userSpaceOnUse" color-interpolation-filters="sRGB">
<feFlood flood-opacity="0" result="BackgroundImageFix"/>
<feColorMatrix in="SourceAlpha" type="matrix" values="0 0 0 0 0 0 0 0 0 0 0 0 0 0 0 0 0 0 127 0" result="hardAlpha"/>
<feOffset dy="4"/>
<feGaussianBlur stdDeviation="2"/>
<feComposite in2="hardAlpha" operator="out"/>
<feColorMatrix type="matrix" values="0 0 0 0 0 0 0 0 0 0 0 0 0 0 0 0 0 0 0.25 0"/>
<feBlend mode="normal" in2="BackgroundImageFix" result="effect1_dropShadow_1663_59"/>
<feBlend mode="normal" in="SourceGraphic" in2="effect1_dropShadow_1663_59" result="shape"/>
</filter>
<filter id="filter4_d_1663_59" x="121" y="11" width="19" height="30" filterUnits="userSpaceOnUse" color-interpolation-filters="sRGB">
<feFlood flood-opacity="0" result="BackgroundImageFix"/>
<feColorMatrix in="SourceAlpha" type="matrix" values="0 0 0 0 0 0 0 0 0 0 0 0 0 0 0 0 0 0 127 0" result="hardAlpha"/>
<feOffset dy="4"/>
<feGaussianBlur stdDeviation="2"/>
<feComposite in2="hardAlpha" operator="out"/>
<feColorMatrix type="matrix" values="0 0 0 0 0 0 0 0 0 0 0 0 0 0 0 0 0 0 0.25 0"/>
<feBlend mode="normal" in2="BackgroundImageFix" result="effect1_dropShadow_1663_59"/>
<feBlend mode="normal" in="SourceGraphic" in2="effect1_dropShadow_1663_59" result="shape"/>
</filter>
<filter id="filter5_d_1663_59" x="108" y="11" width="13" height="30" filterUnits="userSpaceOnUse" color-interpolation-filters="sRGB">
<feFlood flood-opacity="0" result="BackgroundImageFix"/>
<feColorMatrix in="SourceAlpha" type="matrix" values="0 0 0 0 0 0 0 0 0 0 0 0 0 0 0 0 0 0 127 0" result="hardAlpha"/>
<feOffset dy="4"/>
<feGaussianBlur stdDeviation="2"/>
<feComposite in2="hardAlpha" operator="out"/>
<feColorMatrix type="matrix" values="0 0 0 0 0 0 0 0 0 0 0 0 0 0 0 0 0 0 0.25 0"/>
<feBlend mode="normal" in2="BackgroundImageFix" result="effect1_dropShadow_1663_59"/>
<feBlend mode="normal" in="SourceGraphic" in2="effect1_dropShadow_1663_59" result="shape"/>
</filter>
<filter id="filter6_d_1663_59" x="52" y="11" width="24" height="30" filterUnits="userSpaceOnUse" color-interpolation-filters="sRGB">
<feFlood flood-opacity="0" result="BackgroundImageFix"/>
<feColorMatrix in="SourceAlpha" type="matrix" values="0 0 0 0 0 0 0 0 0 0 0 0 0 0 0 0 0 0 127 0" result="hardAlpha"/>
<feOffset dy="4"/>
<feGaussianBlur stdDeviation="2"/>
<feComposite in2="hardAlpha" operator="out"/>
<feColorMatrix type="matrix" values="0 0 0 0 0 0 0 0 0 0 0 0 0 0 0 0 0 0 0.25 0"/>
<feBlend mode="normal" in2="BackgroundImageFix" result="effect1_dropShadow_1663_59"/>
<feBlend mode="normal" in="SourceGraphic" in2="effect1_dropShadow_1663_59" result="shape"/>
</filter>
<filter id="filter7_d_1663_59" x="-32" y="-24.4907" width="113.752" height="98.7334" filterUnits="userSpaceOnUse" color-interpolation-filters="sRGB">
<feFlood flood-opacity="0" result="BackgroundImageFix"/>
<feColorMatrix in="SourceAlpha" type="matrix" values="0 0 0 0 0 0 0 0 0 0 0 0 0 0 0 0 0 0 127 0" result="hardAlpha"/>
<feOffset dy="4"/>
<feGaussianBlur stdDeviation="2"/>
<feComposite in2="hardAlpha" operator="out"/>
<feColorMatrix type="matrix" values="0 0 0 0 0 0 0 0 0 0 0 0 0 0 0 0 0 0 0.25 0"/>
<feBlend mode="normal" in2="BackgroundImageFix" result="effect1_dropShadow_1663_59"/>
<feBlend mode="normal" in="SourceGraphic" in2="effect1_dropShadow_1663_59" result="shape"/>
</filter>
<filter id="filter8_d_1663_59" x="-28.5" y="-28.5" width="107.041" height="107.041" filterUnits="userSpaceOnUse" color-interpolation-filters="sRGB">
<feFlood flood-opacity="0" result="BackgroundImageFix"/>
<feColorMatrix in="SourceAlpha" type="matrix" values="0 0 0 0 0 0 0 0 0 0 0 0 0 0 0 0 0 0 127 0" result="hardAlpha"/>
<feOffset dy="4"/>
<feGaussianBlur stdDeviation="2"/>
<feComposite in2="hardAlpha" operator="out"/>
<feColorMatrix type="matrix" values="0 0 0 0 0 0 0 0 0 0 0 0 0 0 0 0 0 0 0.25 0"/>
<feBlend mode="normal" in2="BackgroundImageFix" result="effect1_dropShadow_1663_59"/>
<feBlend mode="normal" in="SourceGraphic" in2="effect1_dropShadow_1663_59" result="shape"/>
</filter>
<filter id="filter9_d_1663_59" x="-28.5" y="-28.5" width="107.041" height="107.041" filterUnits="userSpaceOnUse" color-interpolation-filters="sRGB">
<feFlood flood-opacity="0" result="BackgroundImageFix"/>
<feColorMatrix in="SourceAlpha" type="matrix" values="0 0 0 0 0 0 0 0 0 0 0 0 0 0 0 0 0 0 127 0" result="hardAlpha"/>
<feOffset dy="4"/>
<feGaussianBlur stdDeviation="2"/>
<feComposite in2="hardAlpha" operator="out"/>
<feColorMatrix type="matrix" values="0 0 0 0 0 0 0 0 0 0 0 0 0 0 0 0 0 0 0.25 0"/>
<feBlend mode="normal" in2="BackgroundImageFix" result="effect1_dropShadow_1663_59"/>
<feBlend mode="normal" in="SourceGraphic" in2="effect1_dropShadow_1663_59" result="shape"/>
</filter>
<filter id="filter10_d_1663_59" x="-24.4922" y="-32" width="98.7324" height="113.751" filterUnits="userSpaceOnUse" color-interpolation-filters="sRGB">
<feFlood flood-opacity="0" result="BackgroundImageFix"/>
<feColorMatrix in="SourceAlpha" type="matrix" values="0 0 0 0 0 0 0 0 0 0 0 0 0 0 0 0 0 0 127 0" result="hardAlpha"/>
<feOffset dy="4"/>
<feGaussianBlur stdDeviation="2"/>
<feComposite in2="hardAlpha" operator="out"/>
<feColorMatrix type="matrix" values="0 0 0 0 0 0 0 0 0 0 0 0 0 0 0 0 0 0 0.25 0"/>
<feBlend mode="normal" in2="BackgroundImageFix" result="effect1_dropShadow_1663_59"/>
<feBlend mode="normal" in="SourceGraphic" in2="effect1_dropShadow_1663_59" result="shape"/>
</filter>
<filter id="filter11_d_1663_59" x="-32" y="-24.4907" width="113.752" height="98.7334" filterUnits="userSpaceOnUse" color-interpolation-filters="sRGB">
<feFlood flood-opacity="0" result="BackgroundImageFix"/>
<feColorMatrix in="SourceAlpha" type="matrix" values="0 0 0 0 0 0 0 0 0 0 0 0 0 0 0 0 0 0 127 0" result="hardAlpha"/>
<feOffset dy="4"/>
<feGaussianBlur stdDeviation="2"/>
<feComposite in2="hardAlpha" operator="out"/>
<feColorMatrix type="matrix" values="0 0 0 0 0 0 0 0 0 0 0 0 0 0 0 0 0 0 0.25 0"/>
<feBlend mode="normal" in2="BackgroundImageFix" result="effect1_dropShadow_1663_59"/>
<feBlend mode="normal" in="SourceGraphic" in2="effect1_dropShadow_1663_59" result="shape"/>
</filter>
<filter id="filter12_d_1663_59" x="-28.5" y="-28.5" width="107.041" height="107.041" filterUnits="userSpaceOnUse" color-interpolation-filters="sRGB">
<feFlood flood-opacity="0" result="BackgroundImageFix"/>
<feColorMatrix in="SourceAlpha" type="matrix" values="0 0 0 0 0 0 0 0 0 0 0 0 0 0 0 0 0 0 127 0" result="hardAlpha"/>
<feOffset dy="4"/>
<feGaussianBlur stdDeviation="2"/>
<feComposite in2="hardAlpha" operator="out"/>
<feColorMatrix type="matrix" values="0 0 0 0 0 0 0 0 0 0 0 0 0 0 0 0 0 0 0.25 0"/>
<feBlend mode="normal" in2="BackgroundImageFix" result="effect1_dropShadow_1663_59"/>
<feBlend mode="normal" in="SourceGraphic" in2="effect1_dropShadow_1663_59" result="shape"/>
</filter>
<filter id="filter13_d_1663_59" x="-28.5" y="-28.5" width="107.041" height="107.041" filterUnits="userSpaceOnUse" color-interpolation-filters="sRGB">
<feFlood flood-opacity="0" result="BackgroundImageFix"/>
<feColorMatrix in="SourceAlpha" type="matrix" values="0 0 0 0 0 0 0 0 0 0 0 0 0 0 0 0 0 0 127 0" result="hardAlpha"/>
<feOffset dy="4"/>
<feGaussianBlur stdDeviation="2"/>
<feComposite in2="hardAlpha" operator="out"/>
<feColorMatrix type="matrix" values="0 0 0 0 0 0 0 0 0 0 0 0 0 0 0 0 0 0 0.25 0"/>
<feBlend mode="normal" in2="BackgroundImageFix" result="effect1_dropShadow_1663_59"/>
<feBlend mode="normal" in="SourceGraphic" in2="effect1_dropShadow_1663_59" result="shape"/>
</filter>
<filter id="filter14_d_1663_59" x="-24.4922" y="-32" width="98.7324" height="113.751" filterUnits="userSpaceOnUse" color-interpolation-filters="sRGB">
<feFlood flood-opacity="0" result="BackgroundImageFix"/>
<feColorMatrix in="SourceAlpha" type="matrix" values="0 0 0 0 0 0 0 0 0 0 0 0 0 0 0 0 0 0 127 0" result="hardAlpha"/>
<feOffset dy="4"/>
<feGaussianBlur stdDeviation="2"/>
<feComposite in2="hardAlpha" operator="out"/>
<feColorMatrix type="matrix" values="0 0 0 0 0 0 0 0 0 0 0 0 0 0 0 0 0 0 0.25 0"/>
<feBlend mode="normal" in2="BackgroundImageFix" result="effect1_dropShadow_1663_59"/>
<feBlend mode="normal" in="SourceGraphic" in2="effect1_dropShadow_1663_59" result="shape"/>
</filter>
<filter id="filter15_d_1663_59" x="-28.5" y="-28.5" width="107.041" height="107.041" filterUnits="userSpaceOnUse" color-interpolation-filters="sRGB">
<feFlood flood-opacity="0" result="BackgroundImageFix"/>
<feColorMatrix in="SourceAlpha" type="matrix" values="0 0 0 0 0 0 0 0 0 0 0 0 0 0 0 0 0 0 127 0" result="hardAlpha"/>
<feOffset dy="4"/>
<feGaussianBlur stdDeviation="2"/>
<feComposite in2="hardAlpha" operator="out"/>
<feColorMatrix type="matrix" values="0 0 0 0 0 0 0 0 0 0 0 0 0 0 0 0 0 0 0.25 0"/>
<feBlend mode="normal" in2="BackgroundImageFix" result="effect1_dropShadow_1663_59"/>
<feBlend mode="normal" in="SourceGraphic" in2="effect1_dropShadow_1663_59" result="shape"/>
</filter>
<filter id="filter16_d_1663_59" x="-28.5" y="-28.5" width="107.041" height="107.041" filterUnits="userSpaceOnUse" color-interpolation-filters="sRGB">
<feFlood flood-opacity="0" result="BackgroundImageFix"/>
<feColorMatrix in="SourceAlpha" type="matrix" values="0 0 0 0 0 0 0 0 0 0 0 0 0 0 0 0 0 0 127 0" result="hardAlpha"/>
<feOffset dy="4"/>
<feGaussianBlur stdDeviation="2"/>
<feComposite in2="hardAlpha" operator="out"/>
<feColorMatrix type="matrix" values="0 0 0 0 0 0 0 0 0 0 0 0 0 0 0 0 0 0 0.25 0"/>
<feBlend mode="normal" in2="BackgroundImageFix" result="effect1_dropShadow_1663_59"/>
<feBlend mode="normal" in="SourceGraphic" in2="effect1_dropShadow_1663_59" result="shape"/>
</filter>
<filter id="filter17_d_1663_59" x="-24.4922" y="-32" width="98.7324" height="113.751" filterUnits="userSpaceOnUse" color-interpolation-filters="sRGB">
<feFlood flood-opacity="0" result="BackgroundImageFix"/>
<feColorMatrix in="SourceAlpha" type="matrix" values="0 0 0 0 0 0 0 0 0 0 0 0 0 0 0 0 0 0 127 0" result="hardAlpha"/>
<feOffset dy="4"/>
<feGaussianBlur stdDeviation="2"/>
<feComposite in2="hardAlpha" operator="out"/>
<feColorMatrix type="matrix" values="0 0 0 0 0 0 0 0 0 0 0 0 0 0 0 0 0 0 0.25 0"/>
<feBlend mode="normal" in2="BackgroundImageFix" result="effect1_dropShadow_1663_59"/>
<feBlend mode="normal" in="SourceGraphic" in2="effect1_dropShadow_1663_59" result="shape"/>
</filter>
</defs>
</svg>
