<svg width="231" height="51" viewBox="0 0 231 51" fill="none" xmlns="http://www.w3.org/2000/svg">
<mask id="mask0_0_1" style="mask-type:alpha" maskUnits="userSpaceOnUse" x="0" y="9" width="50" height="32">
<path d="M25.0336 9.8418C11.6092 9.8418 0.726562 16.6434 0.726562 25.0337C0.726562 33.4239 11.6092 40.2256 25.0336 40.2256C38.4581 40.2256 49.3407 33.4239 49.3407 25.0337C49.3407 16.6434 38.4581 9.8418 25.0336 9.8418Z" fill="white"/>
</mask>
<g mask="url(#mask0_0_1)">
<path d="M40.6053 25.0338C40.6053 39.5501 31.3015 46.6587 28.9816 48.1087C27.3934 49.1013 26.2396 49.4645 25.7641 49.5902C25.4889 49.6629 25.2989 49.6937 25.1939 49.7072C25.0871 49.7208 25.0355 49.7207 25.0335 49.7207V-30.0369C12.0429 -30.0369 -1.61046 -26.8253 -13.29 -19.5256C-24.4073 -12.5772 -39.1523 2.12745 -39.1523 25.0338H40.6053ZM25.0335 49.7207C25.0316 49.7207 24.98 49.7208 24.8732 49.7072C24.7682 49.6937 24.5782 49.6629 24.303 49.5902C23.8275 49.4645 22.6737 49.1013 21.0855 48.1087C18.7655 46.6587 9.46176 39.5501 9.46176 25.0338H89.2194C89.2194 2.12745 74.4744 -12.5772 63.357 -19.5256C51.6775 -26.8253 38.0241 -30.0369 25.0335 -30.0369V49.7207ZM9.46176 25.0338C9.46176 10.5176 18.7655 3.40907 21.0855 1.95908C22.6737 0.966464 23.8275 0.603273 24.303 0.477573C24.5782 0.404823 24.7682 0.374033 24.8732 0.360603C24.98 0.346943 25.0316 0.347054 25.0335 0.347054V80.1046C38.0241 80.1046 51.6775 76.893 63.357 69.5933C74.4744 62.6449 89.2194 47.9403 89.2194 25.0338H9.46176ZM25.0335 0.347054C25.0355 0.347054 25.0871 0.346943 25.1939 0.360603C25.2989 0.374033 25.4889 0.404823 25.7641 0.477573C26.2396 0.603273 27.3934 0.966464 28.9816 1.95908C31.3015 3.40907 40.6053 10.5176 40.6053 25.0338H-39.1523C-39.1523 47.9403 -24.4073 62.6449 -13.29 69.5933C-1.61046 76.893 12.0429 80.1046 25.0335 80.1046V0.347054Z" fill="#FF7070" fill-opacity="0.5"/>
</g>
<mask id="mask1_0_1" style="mask-type:alpha" maskUnits="userSpaceOnUse" x="4" y="4" width="42" height="42">
<path d="M14.4665 14.4665C4.97398 23.959 2.08826 36.4637 8.02102 42.3965C13.9539 48.3293 26.4585 45.4436 35.9511 35.951C45.4436 26.4585 48.3293 13.9538 42.3965 8.02103C36.4637 2.08826 23.959 4.97397 14.4665 14.4665Z" fill="white"/>
</mask>
<g mask="url(#mask1_0_1)">
<path d="M36.2193 14.198C46.4838 24.4626 44.9316 36.0678 44.3164 38.7336C43.8953 40.5585 43.3363 41.6312 43.0889 42.0563C42.9457 42.3023 42.8332 42.4585 42.7684 42.5422C42.7026 42.6274 42.666 42.6638 42.6646 42.6652L-13.7324 -13.732C-22.9182 -4.54627 -30.3017 7.37908 -33.3987 20.7994C-36.3466 33.5738 -36.3752 54.3979 -20.1779 70.5952L36.2193 14.198ZM42.6646 42.6652C42.6632 42.6666 42.6269 42.7031 42.5417 42.7689C42.4579 42.8337 42.3018 42.9463 42.0558 43.0894C41.6306 43.3368 40.558 43.8958 38.7331 44.317C36.0673 44.9321 24.462 46.4843 14.1975 36.2198L70.5946 -20.1773C54.3973 -36.3747 33.5733 -36.3461 20.7988 -33.3981C7.37852 -30.3011 -4.5467 -22.9177 -13.7324 -13.732L42.6646 42.6652ZM14.1975 36.2198C3.93305 25.9553 5.48522 14.35 6.10032 11.6842C6.52152 9.85928 7.08052 8.78668 7.32792 8.36148C7.47102 8.11548 7.58363 7.95938 7.64843 7.87558C7.71423 7.79038 7.75072 7.75407 7.75212 7.75267L64.1493 64.1498C73.335 54.964 80.7184 43.0388 83.8154 29.6185C86.7634 16.844 86.792 -3.98008 70.5946 -20.1773L14.1975 36.2198ZM7.75212 7.75267C7.75352 7.75127 7.78993 7.71468 7.87513 7.64888C7.95883 7.58408 8.11502 7.47158 8.36102 7.32838C8.78612 7.08098 9.85882 6.52198 11.6837 6.10088C14.3495 5.48568 25.9547 3.9335 36.2193 14.198L-20.1779 70.5952C-3.9805 86.7925 16.8435 86.7639 29.6179 83.816C43.0382 80.719 54.9635 73.3355 64.1493 64.1498L7.75212 7.75267Z" fill="#FFF970" fill-opacity="0.5"/>
</g>
<mask id="mask2_0_1" style="mask-type:alpha" maskUnits="userSpaceOnUse" x="4" y="4" width="42" height="42">
<path d="M35.9511 14.4667C26.4586 4.97421 13.9539 2.08849 8.02107 8.02131C2.08825 13.9541 4.97396 26.4588 14.4665 35.9513C23.959 45.4438 36.4637 48.3295 42.3965 42.3967C48.3293 36.4639 45.4436 23.9592 35.9511 14.4667Z" fill="white"/>
</mask>
<g mask="url(#mask2_0_1)">
<path d="M36.2193 36.22C25.9547 46.4845 14.3495 44.9323 11.6837 44.3172C9.85882 43.896 8.78612 43.337 8.36102 43.0896C8.11502 42.9465 7.95893 42.8339 7.87513 42.7691C7.78993 42.7033 7.75352 42.6668 7.75212 42.6654L64.1493 -13.7318C54.9635 -22.9175 43.0382 -30.3009 29.6179 -33.3979C16.8435 -36.3459 -3.9805 -36.3745 -20.1779 -20.1772L36.2193 36.22ZM7.75212 42.6654C7.75072 42.664 7.71423 42.6276 7.64843 42.5424C7.58363 42.4586 7.47102 42.3025 7.32792 42.0565C7.08052 41.6314 6.52152 40.5587 6.10032 38.7338C5.48522 36.068 3.93305 24.4627 14.1975 14.1982L70.5946 70.5954C86.792 54.398 86.7634 33.574 83.8154 20.7996C80.7184 7.37932 73.335 -4.54602 64.1493 -13.7318L7.75212 42.6654ZM14.1975 14.1982C24.462 3.93373 36.0673 5.48592 38.7331 6.10112C40.558 6.52222 41.6306 7.08122 42.0558 7.32862C42.3018 7.47172 42.4579 7.58432 42.5417 7.64912C42.6269 7.71492 42.6632 7.75152 42.6646 7.75292L-13.7324 64.15C-4.5467 73.3357 7.37852 80.7192 20.7988 83.8161C33.5733 86.7641 54.3973 86.7927 70.5946 70.5954L14.1975 14.1982ZM42.6646 7.75292C42.666 7.75432 42.7026 7.79062 42.7684 7.87582C42.8332 7.95962 42.9458 8.11572 43.0889 8.36172C43.3363 8.78682 43.8953 9.85952 44.3164 11.6844C44.9316 14.3502 46.4838 25.9555 36.2193 36.22L-20.1779 -20.1772C-36.3752 -3.97983 -36.3466 16.8442 -33.3987 29.6187C-30.3017 43.039 -22.9182 54.9642 -13.7324 64.15L42.6646 7.75292Z" fill="#70E5FF" fill-opacity="0.5"/>
</g>
<mask id="mask3_0_1" style="mask-type:alpha" maskUnits="userSpaceOnUse" x="9" y="0" width="32" height="50">
<path d="M9.8418 25.0339C9.8418 38.4583 16.6434 49.341 25.0337 49.341C33.4239 49.341 40.2256 38.4583 40.2256 25.0339C40.2256 11.6095 33.4239 0.726807 25.0337 0.726807C16.6434 0.726807 9.8418 11.6095 9.8418 25.0339Z" fill="white"/>
</mask>
<g mask="url(#mask3_0_1)">
<path d="M25.0336 9.462C39.5498 9.462 46.6585 18.7657 48.1085 21.0857C49.1011 22.6739 49.4643 23.8277 49.59 24.3032C49.6627 24.5784 49.6935 24.7684 49.7069 24.8734C49.7206 24.9802 49.7205 25.0317 49.7205 25.0337H-30.0371C-30.0371 38.0243 -26.8255 51.6776 -19.5258 63.3571C-12.5775 74.4746 2.12714 89.2196 25.0336 89.2196V9.462ZM49.7205 25.0337C49.7205 25.0357 49.7206 25.0872 49.7069 25.194C49.6935 25.2991 49.6627 25.489 49.59 25.7643C49.4643 26.2398 49.1011 27.3935 48.1085 28.9817C46.6585 31.3017 39.5498 40.6054 25.0336 40.6054V-39.1521C2.12713 -39.1521 -12.5775 -24.4071 -19.5258 -13.2897C-26.8255 -1.61019 -30.0371 12.0431 -30.0371 25.0337H49.7205ZM25.0336 40.6054C10.5174 40.6054 3.40876 31.3017 1.95877 28.9817C0.966151 27.3935 0.60297 26.2398 0.47727 25.7643C0.40452 25.4891 0.373721 25.2991 0.360291 25.194C0.346631 25.0873 0.346741 25.0357 0.346741 25.0337H80.1043C80.1043 12.0431 76.8928 -1.6102 69.5931 -13.2897C62.6447 -24.4071 47.9401 -39.1521 25.0336 -39.1521V40.6054ZM0.346741 25.0337C0.346741 25.0317 0.346631 24.9802 0.360291 24.8734C0.373721 24.7684 0.40452 24.5784 0.47727 24.3032C0.60297 23.8277 0.966151 22.6739 1.95877 21.0857C3.40876 18.7657 10.5174 9.462 25.0336 9.462V89.2196C47.9401 89.2196 62.6447 74.4745 69.5931 63.3571C76.8928 51.6776 80.1043 38.0243 80.1043 25.0337H0.346741Z" fill="#B1EAD5" fill-opacity="0.5"/>
</g>
<mask id="mask4_0_1" style="mask-type:alpha" maskUnits="userSpaceOnUse" x="0" y="9" width="50" height="32">
<path d="M25.0336 9.8418C11.6092 9.8418 0.726562 16.6434 0.726562 25.0337C0.726562 33.4239 11.6092 40.2256 25.0336 40.2256C38.4581 40.2256 49.3407 33.4239 49.3407 25.0337C49.3407 16.6434 38.4581 9.8418 25.0336 9.8418Z" fill="white"/>
</mask>
<g mask="url(#mask4_0_1)">
<path d="M40.6053 25.0338C40.6053 39.5501 31.3015 46.6587 28.9816 48.1087C27.3934 49.1013 26.2396 49.4645 25.7641 49.5902C25.4889 49.6629 25.2989 49.6937 25.1939 49.7072C25.0871 49.7208 25.0355 49.7207 25.0335 49.7207V-30.0369C12.0429 -30.0369 -1.61046 -26.8253 -13.29 -19.5256C-24.4073 -12.5772 -39.1523 2.12745 -39.1523 25.0338H40.6053ZM25.0335 49.7207C25.0316 49.7207 24.98 49.7208 24.8732 49.7072C24.7682 49.6937 24.5782 49.6629 24.303 49.5902C23.8275 49.4645 22.6737 49.1013 21.0855 48.1087C18.7655 46.6587 9.46176 39.5501 9.46176 25.0338H89.2194C89.2194 2.12745 74.4744 -12.5772 63.357 -19.5256C51.6775 -26.8253 38.0241 -30.0369 25.0335 -30.0369V49.7207ZM9.46176 25.0338C9.46176 10.5176 18.7655 3.40907 21.0855 1.95908C22.6737 0.966464 23.8275 0.603273 24.303 0.477573C24.5782 0.404823 24.7682 0.374033 24.8732 0.360603C24.98 0.346943 25.0316 0.347054 25.0335 0.347054V80.1046C38.0241 80.1046 51.6775 76.893 63.357 69.5933C74.4744 62.6449 89.2194 47.9403 89.2194 25.0338H9.46176ZM25.0335 0.347054C25.0355 0.347054 25.0871 0.346943 25.1939 0.360603C25.2989 0.374033 25.4889 0.404823 25.7641 0.477573C26.2396 0.603273 27.3934 0.966464 28.9816 1.95908C31.3015 3.40907 40.6053 10.5176 40.6053 25.0338H-39.1523C-39.1523 47.9403 -24.4073 62.6449 -13.29 69.5933C-1.61046 76.893 12.0429 80.1046 25.0335 80.1046V0.347054Z" fill="#FF7070" fill-opacity="0.5"/>
</g>
<mask id="mask5_0_1" style="mask-type:alpha" maskUnits="userSpaceOnUse" x="4" y="4" width="42" height="42">
<path d="M14.4665 14.4665C4.97398 23.959 2.08826 36.4637 8.02102 42.3965C13.9539 48.3293 26.4585 45.4436 35.9511 35.951C45.4436 26.4585 48.3293 13.9538 42.3965 8.02103C36.4637 2.08826 23.959 4.97397 14.4665 14.4665Z" fill="white"/>
</mask>
<g mask="url(#mask5_0_1)">
<path d="M36.2193 14.198C46.4838 24.4626 44.9316 36.0678 44.3164 38.7336C43.8953 40.5585 43.3363 41.6312 43.0889 42.0563C42.9457 42.3023 42.8332 42.4585 42.7684 42.5422C42.7026 42.6274 42.666 42.6638 42.6646 42.6652L-13.7324 -13.732C-22.9182 -4.54627 -30.3017 7.37908 -33.3987 20.7994C-36.3466 33.5738 -36.3752 54.3979 -20.1779 70.5952L36.2193 14.198ZM42.6646 42.6652C42.6632 42.6666 42.6269 42.7031 42.5417 42.7689C42.4579 42.8337 42.3018 42.9463 42.0558 43.0894C41.6306 43.3368 40.558 43.8958 38.7331 44.317C36.0673 44.9321 24.462 46.4843 14.1975 36.2198L70.5946 -20.1773C54.3973 -36.3747 33.5733 -36.3461 20.7988 -33.3981C7.37852 -30.3011 -4.5467 -22.9177 -13.7324 -13.732L42.6646 42.6652ZM14.1975 36.2198C3.93305 25.9553 5.48522 14.35 6.10032 11.6842C6.52152 9.85928 7.08052 8.78668 7.32792 8.36148C7.47102 8.11548 7.58363 7.95938 7.64843 7.87558C7.71423 7.79038 7.75072 7.75407 7.75212 7.75267L64.1493 64.1498C73.335 54.964 80.7184 43.0388 83.8154 29.6185C86.7634 16.844 86.792 -3.98008 70.5946 -20.1773L14.1975 36.2198ZM7.75212 7.75267C7.75352 7.75127 7.78993 7.71468 7.87513 7.64888C7.95883 7.58408 8.11502 7.47158 8.36102 7.32838C8.78612 7.08098 9.85882 6.52198 11.6837 6.10088C14.3495 5.48568 25.9547 3.9335 36.2193 14.198L-20.1779 70.5952C-3.9805 86.7925 16.8435 86.7639 29.6179 83.816C43.0382 80.719 54.9635 73.3355 64.1493 64.1498L7.75212 7.75267Z" fill="#FFF970" fill-opacity="0.5"/>
</g>
<mask id="mask6_0_1" style="mask-type:alpha" maskUnits="userSpaceOnUse" x="4" y="4" width="42" height="42">
<path d="M35.9511 14.4667C26.4586 4.97421 13.9539 2.08849 8.02107 8.02131C2.08825 13.9541 4.97396 26.4588 14.4665 35.9513C23.959 45.4438 36.4637 48.3295 42.3965 42.3967C48.3293 36.4639 45.4436 23.9592 35.9511 14.4667Z" fill="white"/>
</mask>
<g mask="url(#mask6_0_1)">
<path d="M36.2193 36.22C25.9547 46.4845 14.3495 44.9323 11.6837 44.3172C9.85882 43.896 8.78612 43.337 8.36102 43.0896C8.11502 42.9465 7.95893 42.8339 7.87513 42.7691C7.78993 42.7033 7.75352 42.6668 7.75212 42.6654L64.1493 -13.7318C54.9635 -22.9175 43.0382 -30.3009 29.6179 -33.3979C16.8435 -36.3459 -3.9805 -36.3745 -20.1779 -20.1772L36.2193 36.22ZM7.75212 42.6654C7.75072 42.664 7.71423 42.6276 7.64843 42.5424C7.58363 42.4586 7.47102 42.3025 7.32792 42.0565C7.08052 41.6314 6.52152 40.5587 6.10032 38.7338C5.48522 36.068 3.93305 24.4627 14.1975 14.1982L70.5946 70.5954C86.792 54.398 86.7634 33.574 83.8154 20.7996C80.7184 7.37932 73.335 -4.54602 64.1493 -13.7318L7.75212 42.6654ZM14.1975 14.1982C24.462 3.93373 36.0673 5.48592 38.7331 6.10112C40.558 6.52222 41.6306 7.08122 42.0558 7.32862C42.3018 7.47172 42.4579 7.58432 42.5417 7.64912C42.6269 7.71492 42.6632 7.75152 42.6646 7.75292L-13.7324 64.15C-4.5467 73.3357 7.37852 80.7192 20.7988 83.8161C33.5733 86.7641 54.3973 86.7927 70.5946 70.5954L14.1975 14.1982ZM42.6646 7.75292C42.666 7.75432 42.7026 7.79062 42.7684 7.87582C42.8332 7.95962 42.9458 8.11572 43.0889 8.36172C43.3363 8.78682 43.8953 9.85952 44.3164 11.6844C44.9316 14.3502 46.4838 25.9555 36.2193 36.22L-20.1779 -20.1772C-36.3752 -3.97983 -36.3466 16.8442 -33.3987 29.6187C-30.3017 43.039 -22.9182 54.9642 -13.7324 64.15L42.6646 7.75292Z" fill="#70E5FF" fill-opacity="0.5"/>
</g>
<mask id="mask7_0_1" style="mask-type:alpha" maskUnits="userSpaceOnUse" x="9" y="0" width="32" height="50">
<path d="M9.8418 25.0339C9.8418 38.4583 16.6434 49.341 25.0337 49.341C33.4239 49.341 40.2256 38.4583 40.2256 25.0339C40.2256 11.6095 33.4239 0.726807 25.0337 0.726807C16.6434 0.726807 9.8418 11.6095 9.8418 25.0339Z" fill="white"/>
</mask>
<g mask="url(#mask7_0_1)">
<path d="M25.0336 9.462C39.5498 9.462 46.6585 18.7657 48.1085 21.0857C49.1011 22.6739 49.4643 23.8277 49.59 24.3032C49.6627 24.5784 49.6935 24.7684 49.7069 24.8734C49.7206 24.9802 49.7205 25.0317 49.7205 25.0337H-30.0371C-30.0371 38.0243 -26.8255 51.6776 -19.5258 63.3571C-12.5775 74.4746 2.12714 89.2196 25.0336 89.2196V9.462ZM49.7205 25.0337C49.7205 25.0357 49.7206 25.0872 49.7069 25.194C49.6935 25.2991 49.6627 25.489 49.59 25.7643C49.4643 26.2398 49.1011 27.3935 48.1085 28.9817C46.6585 31.3017 39.5498 40.6054 25.0336 40.6054V-39.1521C2.12713 -39.1521 -12.5775 -24.4071 -19.5258 -13.2897C-26.8255 -1.61019 -30.0371 12.0431 -30.0371 25.0337H49.7205ZM25.0336 40.6054C10.5174 40.6054 3.40876 31.3017 1.95877 28.9817C0.966151 27.3935 0.60297 26.2398 0.47727 25.7643C0.40452 25.4891 0.373721 25.2991 0.360291 25.194C0.346631 25.0873 0.346741 25.0357 0.346741 25.0337H80.1043C80.1043 12.0431 76.8928 -1.6102 69.5931 -13.2897C62.6447 -24.4071 47.9401 -39.1521 25.0336 -39.1521V40.6054ZM0.346741 25.0337C0.346741 25.0317 0.346631 24.9802 0.360291 24.8734C0.373721 24.7684 0.40452 24.5784 0.47727 24.3032C0.60297 23.8277 0.966151 22.6739 1.95877 21.0857C3.40876 18.7657 10.5174 9.462 25.0336 9.462V89.2196C47.9401 89.2196 62.6447 74.4745 69.5931 63.3571C76.8928 51.6776 80.1043 38.0243 80.1043 25.0337H0.346741Z" fill="#B1EAD5" fill-opacity="0.5"/>
</g>
<mask id="mask8_0_1" style="mask-type:alpha" maskUnits="userSpaceOnUse" x="0" y="9" width="50" height="32">
<path d="M25.0336 9.8418C11.6092 9.8418 0.726562 16.6434 0.726562 25.0337C0.726562 33.4239 11.6092 40.2256 25.0336 40.2256C38.4581 40.2256 49.3407 33.4239 49.3407 25.0337C49.3407 16.6434 38.4581 9.8418 25.0336 9.8418Z" fill="white"/>
</mask>
<g mask="url(#mask8_0_1)">
<path d="M40.6053 25.0338C40.6053 39.5501 31.3015 46.6587 28.9816 48.1087C27.3934 49.1013 26.2396 49.4645 25.7641 49.5902C25.4889 49.6629 25.2989 49.6937 25.1939 49.7072C25.0871 49.7208 25.0355 49.7207 25.0335 49.7207V-30.0369C12.0429 -30.0369 -1.61046 -26.8253 -13.29 -19.5256C-24.4073 -12.5772 -39.1523 2.12745 -39.1523 25.0338H40.6053ZM25.0335 49.7207C25.0316 49.7207 24.98 49.7208 24.8732 49.7072C24.7682 49.6937 24.5782 49.6629 24.303 49.5902C23.8275 49.4645 22.6737 49.1013 21.0855 48.1087C18.7655 46.6587 9.46176 39.5501 9.46176 25.0338H89.2194C89.2194 2.12745 74.4744 -12.5772 63.357 -19.5256C51.6775 -26.8253 38.0241 -30.0369 25.0335 -30.0369V49.7207ZM9.46176 25.0338C9.46176 10.5176 18.7655 3.40907 21.0855 1.95908C22.6737 0.966464 23.8275 0.603273 24.303 0.477573C24.5782 0.404823 24.7682 0.374033 24.8732 0.360603C24.98 0.346943 25.0316 0.347054 25.0335 0.347054V80.1046C38.0241 80.1046 51.6775 76.893 63.357 69.5933C74.4744 62.6449 89.2194 47.9403 89.2194 25.0338H9.46176ZM25.0335 0.347054C25.0355 0.347054 25.0871 0.346943 25.1939 0.360603C25.2989 0.374033 25.4889 0.404823 25.7641 0.477573C26.2396 0.603273 27.3934 0.966464 28.9816 1.95908C31.3015 3.40907 40.6053 10.5176 40.6053 25.0338H-39.1523C-39.1523 47.9403 -24.4073 62.6449 -13.29 69.5933C-1.61046 76.893 12.0429 80.1046 25.0335 80.1046V0.347054Z" fill="#FF7070" fill-opacity="0.5"/>
</g>
<mask id="mask9_0_1" style="mask-type:alpha" maskUnits="userSpaceOnUse" x="4" y="4" width="42" height="42">
<path d="M14.4665 14.4665C4.97398 23.959 2.08826 36.4637 8.02102 42.3965C13.9539 48.3293 26.4585 45.4436 35.9511 35.951C45.4436 26.4585 48.3293 13.9538 42.3965 8.02103C36.4637 2.08826 23.959 4.97397 14.4665 14.4665Z" fill="white"/>
</mask>
<g mask="url(#mask9_0_1)">
<path d="M36.2193 14.198C46.4838 24.4626 44.9316 36.0678 44.3164 38.7336C43.8953 40.5585 43.3363 41.6312 43.0889 42.0563C42.9457 42.3023 42.8332 42.4585 42.7684 42.5422C42.7026 42.6274 42.666 42.6638 42.6646 42.6652L-13.7324 -13.732C-22.9182 -4.54627 -30.3017 7.37908 -33.3987 20.7994C-36.3466 33.5738 -36.3752 54.3979 -20.1779 70.5952L36.2193 14.198ZM42.6646 42.6652C42.6632 42.6666 42.6269 42.7031 42.5417 42.7689C42.4579 42.8337 42.3018 42.9463 42.0558 43.0894C41.6306 43.3368 40.558 43.8958 38.7331 44.317C36.0673 44.9321 24.462 46.4843 14.1975 36.2198L70.5946 -20.1773C54.3973 -36.3747 33.5733 -36.3461 20.7988 -33.3981C7.37852 -30.3011 -4.5467 -22.9177 -13.7324 -13.732L42.6646 42.6652ZM14.1975 36.2198C3.93305 25.9553 5.48522 14.35 6.10032 11.6842C6.52152 9.85928 7.08052 8.78668 7.32792 8.36148C7.47102 8.11548 7.58363 7.95938 7.64843 7.87558C7.71423 7.79038 7.75072 7.75407 7.75212 7.75267L64.1493 64.1498C73.335 54.964 80.7184 43.0388 83.8154 29.6185C86.7634 16.844 86.792 -3.98008 70.5946 -20.1773L14.1975 36.2198ZM7.75212 7.75267C7.75352 7.75127 7.78993 7.71468 7.87513 7.64888C7.95883 7.58408 8.11502 7.47158 8.36102 7.32838C8.78612 7.08098 9.85882 6.52198 11.6837 6.10088C14.3495 5.48568 25.9547 3.9335 36.2193 14.198L-20.1779 70.5952C-3.9805 86.7925 16.8435 86.7639 29.6179 83.816C43.0382 80.719 54.9635 73.3355 64.1493 64.1498L7.75212 7.75267Z" fill="#FFF970" fill-opacity="0.5"/>
</g>
<mask id="mask10_0_1" style="mask-type:alpha" maskUnits="userSpaceOnUse" x="4" y="4" width="42" height="42">
<path d="M35.9511 14.4667C26.4586 4.97421 13.9539 2.08849 8.02107 8.02131C2.08825 13.9541 4.97396 26.4588 14.4665 35.9513C23.959 45.4438 36.4637 48.3295 42.3965 42.3967C48.3293 36.4639 45.4436 23.9592 35.9511 14.4667Z" fill="white"/>
</mask>
<g mask="url(#mask10_0_1)">
<path d="M36.2193 36.22C25.9547 46.4845 14.3495 44.9323 11.6837 44.3172C9.85882 43.896 8.78612 43.337 8.36102 43.0896C8.11502 42.9465 7.95893 42.8339 7.87513 42.7691C7.78993 42.7033 7.75352 42.6668 7.75212 42.6654L64.1493 -13.7318C54.9635 -22.9175 43.0382 -30.3009 29.6179 -33.3979C16.8435 -36.3459 -3.9805 -36.3745 -20.1779 -20.1772L36.2193 36.22ZM7.75212 42.6654C7.75072 42.664 7.71423 42.6276 7.64843 42.5424C7.58363 42.4586 7.47102 42.3025 7.32792 42.0565C7.08052 41.6314 6.52152 40.5587 6.10032 38.7338C5.48522 36.068 3.93305 24.4627 14.1975 14.1982L70.5946 70.5954C86.792 54.398 86.7634 33.574 83.8154 20.7996C80.7184 7.37932 73.335 -4.54602 64.1493 -13.7318L7.75212 42.6654ZM14.1975 14.1982C24.462 3.93373 36.0673 5.48592 38.7331 6.10112C40.558 6.52222 41.6306 7.08122 42.0558 7.32862C42.3018 7.47172 42.4579 7.58432 42.5417 7.64912C42.6269 7.71492 42.6632 7.75152 42.6646 7.75292L-13.7324 64.15C-4.5467 73.3357 7.37852 80.7192 20.7988 83.8161C33.5733 86.7641 54.3973 86.7927 70.5946 70.5954L14.1975 14.1982ZM42.6646 7.75292C42.666 7.75432 42.7026 7.79062 42.7684 7.87582C42.8332 7.95962 42.9458 8.11572 43.0889 8.36172C43.3363 8.78682 43.8953 9.85952 44.3164 11.6844C44.9316 14.3502 46.4838 25.9555 36.2193 36.22L-20.1779 -20.1772C-36.3752 -3.97983 -36.3466 16.8442 -33.3987 29.6187C-30.3017 43.039 -22.9182 54.9642 -13.7324 64.15L42.6646 7.75292Z" fill="#70E5FF" fill-opacity="0.5"/>
</g>
<mask id="mask11_0_1" style="mask-type:alpha" maskUnits="userSpaceOnUse" x="9" y="0" width="32" height="50">
<path d="M9.8418 25.0339C9.8418 38.4583 16.6434 49.341 25.0337 49.341C33.4239 49.341 40.2256 38.4583 40.2256 25.0339C40.2256 11.6095 33.4239 0.726807 25.0337 0.726807C16.6434 0.726807 9.8418 11.6095 9.8418 25.0339Z" fill="white"/>
</mask>
<g mask="url(#mask11_0_1)">
<path d="M25.0336 9.462C39.5498 9.462 46.6585 18.7657 48.1085 21.0857C49.1011 22.6739 49.4643 23.8277 49.59 24.3032C49.6627 24.5784 49.6935 24.7684 49.7069 24.8734C49.7206 24.9802 49.7205 25.0317 49.7205 25.0337H-30.0371C-30.0371 38.0243 -26.8255 51.6776 -19.5258 63.3571C-12.5775 74.4746 2.12714 89.2196 25.0336 89.2196V9.462ZM49.7205 25.0337C49.7205 25.0357 49.7206 25.0872 49.7069 25.194C49.6935 25.2991 49.6627 25.489 49.59 25.7643C49.4643 26.2398 49.1011 27.3935 48.1085 28.9817C46.6585 31.3017 39.5498 40.6054 25.0336 40.6054V-39.1521C2.12713 -39.1521 -12.5775 -24.4071 -19.5258 -13.2897C-26.8255 -1.61019 -30.0371 12.0431 -30.0371 25.0337H49.7205ZM25.0336 40.6054C10.5174 40.6054 3.40876 31.3017 1.95877 28.9817C0.966151 27.3935 0.60297 26.2398 0.47727 25.7643C0.40452 25.4891 0.373721 25.2991 0.360291 25.194C0.346631 25.0873 0.346741 25.0357 0.346741 25.0337H80.1043C80.1043 12.0431 76.8928 -1.6102 69.5931 -13.2897C62.6447 -24.4071 47.9401 -39.1521 25.0336 -39.1521V40.6054ZM0.346741 25.0337C0.346741 25.0317 0.346631 24.9802 0.360291 24.8734C0.373721 24.7684 0.40452 24.5784 0.47727 24.3032C0.60297 23.8277 0.966151 22.6739 1.95877 21.0857C3.40876 18.7657 10.5174 9.462 25.0336 9.462V89.2196C47.9401 89.2196 62.6447 74.4745 69.5931 63.3571C76.8928 51.6776 80.1043 38.0243 80.1043 25.0337H0.346741Z" fill="#B1EAD5" fill-opacity="0.5"/>
</g>
<mask id="mask12_0_1" style="mask-type:alpha" maskUnits="userSpaceOnUse" x="0" y="9" width="50" height="32">
<path d="M25.0336 9.8418C11.6092 9.8418 0.726562 16.6434 0.726562 25.0337C0.726562 33.4239 11.6092 40.2256 25.0336 40.2256C38.4581 40.2256 49.3407 33.4239 49.3407 25.0337C49.3407 16.6434 38.4581 9.8418 25.0336 9.8418Z" fill="white"/>
</mask>
<g mask="url(#mask12_0_1)">
<path d="M40.6053 25.0338C40.6053 39.5501 31.3015 46.6587 28.9816 48.1087C27.3934 49.1013 26.2396 49.4645 25.7641 49.5902C25.4889 49.6629 25.2989 49.6937 25.1939 49.7072C25.0871 49.7208 25.0355 49.7207 25.0335 49.7207V-30.0369C12.0429 -30.0369 -1.61046 -26.8253 -13.29 -19.5256C-24.4073 -12.5772 -39.1523 2.12745 -39.1523 25.0338H40.6053ZM25.0335 49.7207C25.0316 49.7207 24.98 49.7208 24.8732 49.7072C24.7682 49.6937 24.5782 49.6629 24.303 49.5902C23.8275 49.4645 22.6737 49.1013 21.0855 48.1087C18.7655 46.6587 9.46176 39.5501 9.46176 25.0338H89.2194C89.2194 2.12745 74.4744 -12.5772 63.357 -19.5256C51.6775 -26.8253 38.0241 -30.0369 25.0335 -30.0369V49.7207ZM9.46176 25.0338C9.46176 10.5176 18.7655 3.40907 21.0855 1.95908C22.6737 0.966464 23.8275 0.603273 24.303 0.477573C24.5782 0.404823 24.7682 0.374033 24.8732 0.360603C24.98 0.346943 25.0316 0.347054 25.0335 0.347054V80.1046C38.0241 80.1046 51.6775 76.893 63.357 69.5933C74.4744 62.6449 89.2194 47.9403 89.2194 25.0338H9.46176ZM25.0335 0.347054C25.0355 0.347054 25.0871 0.346943 25.1939 0.360603C25.2989 0.374033 25.4889 0.404823 25.7641 0.477573C26.2396 0.603273 27.3934 0.966464 28.9816 1.95908C31.3015 3.40907 40.6053 10.5176 40.6053 25.0338H-39.1523C-39.1523 47.9403 -24.4073 62.6449 -13.29 69.5933C-1.61046 76.893 12.0429 80.1046 25.0335 80.1046V0.347054Z" fill="#FF7070" fill-opacity="0.5"/>
</g>
<mask id="mask13_0_1" style="mask-type:alpha" maskUnits="userSpaceOnUse" x="4" y="4" width="42" height="42">
<path d="M14.4665 14.4665C4.97398 23.959 2.08826 36.4637 8.02102 42.3965C13.9539 48.3293 26.4585 45.4436 35.9511 35.951C45.4436 26.4585 48.3293 13.9538 42.3965 8.02103C36.4637 2.08826 23.959 4.97397 14.4665 14.4665Z" fill="white"/>
</mask>
<g mask="url(#mask13_0_1)">
<path d="M36.2193 14.198C46.4838 24.4626 44.9316 36.0678 44.3164 38.7336C43.8953 40.5585 43.3363 41.6312 43.0889 42.0563C42.9457 42.3023 42.8332 42.4585 42.7684 42.5422C42.7026 42.6274 42.666 42.6638 42.6646 42.6652L-13.7324 -13.732C-22.9182 -4.54627 -30.3017 7.37908 -33.3987 20.7994C-36.3466 33.5738 -36.3752 54.3979 -20.1779 70.5952L36.2193 14.198ZM42.6646 42.6652C42.6632 42.6666 42.6269 42.7031 42.5417 42.7689C42.4579 42.8337 42.3018 42.9463 42.0558 43.0894C41.6306 43.3368 40.558 43.8958 38.7331 44.317C36.0673 44.9321 24.462 46.4843 14.1975 36.2198L70.5946 -20.1773C54.3973 -36.3747 33.5733 -36.3461 20.7988 -33.3981C7.37852 -30.3011 -4.5467 -22.9177 -13.7324 -13.732L42.6646 42.6652ZM14.1975 36.2198C3.93305 25.9553 5.48522 14.35 6.10032 11.6842C6.52152 9.85928 7.08052 8.78668 7.32792 8.36148C7.47102 8.11548 7.58363 7.95938 7.64843 7.87558C7.71423 7.79038 7.75072 7.75407 7.75212 7.75267L64.1493 64.1498C73.335 54.964 80.7184 43.0388 83.8154 29.6185C86.7634 16.844 86.792 -3.98008 70.5946 -20.1773L14.1975 36.2198ZM7.75212 7.75267C7.75352 7.75127 7.78993 7.71468 7.87513 7.64888C7.95883 7.58408 8.11502 7.47158 8.36102 7.32838C8.78612 7.08098 9.85882 6.52198 11.6837 6.10088C14.3495 5.48568 25.9547 3.9335 36.2193 14.198L-20.1779 70.5952C-3.9805 86.7925 16.8435 86.7639 29.6179 83.816C43.0382 80.719 54.9635 73.3355 64.1493 64.1498L7.75212 7.75267Z" fill="#FFF970" fill-opacity="0.5"/>
</g>
<mask id="mask14_0_1" style="mask-type:alpha" maskUnits="userSpaceOnUse" x="4" y="4" width="42" height="42">
<path d="M35.9511 14.4667C26.4586 4.97421 13.9539 2.08849 8.02107 8.02131C2.08825 13.9541 4.97396 26.4588 14.4665 35.9513C23.959 45.4438 36.4637 48.3295 42.3965 42.3967C48.3293 36.4639 45.4436 23.9592 35.9511 14.4667Z" fill="white"/>
</mask>
<g mask="url(#mask14_0_1)">
<path d="M36.2193 36.22C25.9547 46.4845 14.3495 44.9323 11.6837 44.3172C9.85882 43.896 8.78612 43.337 8.36102 43.0896C8.11502 42.9465 7.95893 42.8339 7.87513 42.7691C7.78993 42.7033 7.75352 42.6668 7.75212 42.6654L64.1493 -13.7318C54.9635 -22.9175 43.0382 -30.3009 29.6179 -33.3979C16.8435 -36.3459 -3.9805 -36.3745 -20.1779 -20.1772L36.2193 36.22ZM7.75212 42.6654C7.75072 42.664 7.71423 42.6276 7.64843 42.5424C7.58363 42.4586 7.47102 42.3025 7.32792 42.0565C7.08052 41.6314 6.52152 40.5587 6.10032 38.7338C5.48522 36.068 3.93305 24.4627 14.1975 14.1982L70.5946 70.5954C86.792 54.398 86.7634 33.574 83.8154 20.7996C80.7184 7.37932 73.335 -4.54602 64.1493 -13.7318L7.75212 42.6654ZM14.1975 14.1982C24.462 3.93373 36.0673 5.48592 38.7331 6.10112C40.558 6.52222 41.6306 7.08122 42.0558 7.32862C42.3018 7.47172 42.4579 7.58432 42.5417 7.64912C42.6269 7.71492 42.6632 7.75152 42.6646 7.75292L-13.7324 64.15C-4.5467 73.3357 7.37852 80.7192 20.7988 83.8161C33.5733 86.7641 54.3973 86.7927 70.5946 70.5954L14.1975 14.1982ZM42.6646 7.75292C42.666 7.75432 42.7026 7.79062 42.7684 7.87582C42.8332 7.95962 42.9458 8.11572 43.0889 8.36172C43.3363 8.78682 43.8953 9.85952 44.3164 11.6844C44.9316 14.3502 46.4838 25.9555 36.2193 36.22L-20.1779 -20.1772C-36.3752 -3.97983 -36.3466 16.8442 -33.3987 29.6187C-30.3017 43.039 -22.9182 54.9642 -13.7324 64.15L42.6646 7.75292Z" fill="#70E5FF" fill-opacity="0.5"/>
</g>
<mask id="mask15_0_1" style="mask-type:alpha" maskUnits="userSpaceOnUse" x="9" y="0" width="32" height="50">
<path d="M9.8418 25.0339C9.8418 38.4583 16.6434 49.341 25.0337 49.341C33.4239 49.341 40.2256 38.4583 40.2256 25.0339C40.2256 11.6095 33.4239 0.726807 25.0337 0.726807C16.6434 0.726807 9.8418 11.6095 9.8418 25.0339Z" fill="white"/>
</mask>
<g mask="url(#mask15_0_1)">
<path d="M25.0336 9.462C39.5498 9.462 46.6585 18.7657 48.1085 21.0857C49.1011 22.6739 49.4643 23.8277 49.59 24.3032C49.6627 24.5784 49.6935 24.7684 49.7069 24.8734C49.7206 24.9802 49.7205 25.0317 49.7205 25.0337H-30.0371C-30.0371 38.0243 -26.8255 51.6776 -19.5258 63.3571C-12.5775 74.4746 2.12714 89.2196 25.0336 89.2196V9.462ZM49.7205 25.0337C49.7205 25.0357 49.7206 25.0872 49.7069 25.194C49.6935 25.2991 49.6627 25.489 49.59 25.7643C49.4643 26.2398 49.1011 27.3935 48.1085 28.9817C46.6585 31.3017 39.5498 40.6054 25.0336 40.6054V-39.1521C2.12713 -39.1521 -12.5775 -24.4071 -19.5258 -13.2897C-26.8255 -1.61019 -30.0371 12.0431 -30.0371 25.0337H49.7205ZM25.0336 40.6054C10.5174 40.6054 3.40876 31.3017 1.95877 28.9817C0.966151 27.3935 0.60297 26.2398 0.47727 25.7643C0.40452 25.4891 0.373721 25.2991 0.360291 25.194C0.346631 25.0873 0.346741 25.0357 0.346741 25.0337H80.1043C80.1043 12.0431 76.8928 -1.6102 69.5931 -13.2897C62.6447 -24.4071 47.9401 -39.1521 25.0336 -39.1521V40.6054ZM0.346741 25.0337C0.346741 25.0317 0.346631 24.9802 0.360291 24.8734C0.373721 24.7684 0.40452 24.5784 0.47727 24.3032C0.60297 23.8277 0.966151 22.6739 1.95877 21.0857C3.40876 18.7657 10.5174 9.462 25.0336 9.462V89.2196C47.9401 89.2196 62.6447 74.4745 69.5931 63.3571C76.8928 51.6776 80.1043 38.0243 80.1043 25.0337H0.346741Z" fill="#B1EAD5" fill-opacity="0.5"/>
</g>
<path d="M98.962 35.3711V50.6135H93.7365C93.7128 50.3648 93.6694 50.1162 93.6694 49.8675C93.6694 41.7964 93.6417 33.7293 93.6733 25.6582C93.697 19.7539 96.27 15.2901 101.721 12.8984C110.514 9.04237 120.456 14.1732 121.541 23.7993C122.587 33.0978 115.625 40.0757 106.216 39.085C103.82 38.8324 102.108 37.9049 98.962 35.3711ZM116.324 25.4569C116.351 20.559 112.59 16.6951 107.763 16.6675C102.822 16.6399 99.021 20.4366 98.966 25.4569C98.915 30.2088 102.775 34.1634 107.507 34.2187C112.432 34.2739 116.292 30.4337 116.324 25.4569Z" fill="white"/>
<path d="M188.327 38.485H183.338V34.3094C182.257 35.296 181.31 36.4564 180.11 37.2142C173.215 41.5753 164.386 38.4968 161.3 30.7297C157.767 21.8376 163.703 12.401 173.25 11.6945C181.333 11.0985 188.28 16.6556 188.382 25.5752C188.43 29.6719 188.39 33.7686 188.39 37.8654C188.39 38.0548 188.355 38.2443 188.331 38.4811L188.327 38.485ZM174.355 16.6279C169.521 16.6161 165.578 20.4523 165.629 25.3739C165.681 30.26 169.252 34.1475 174.328 34.1594C179.297 34.1712 183.046 30.41 183.034 25.4055C183.027 20.3458 179.253 16.6398 174.355 16.6319V16.6279Z" fill="white"/>
<path d="M70.1046 31.0888C70.3888 31.4874 70.6098 31.8466 70.8782 32.1662C72.9857 34.7237 77.2916 35.4815 80.1964 33.8397C81.3292 33.2003 81.933 32.2728 81.8896 30.9625C81.8462 29.6916 81.0174 28.9615 79.9439 28.63C77.8521 27.9827 75.705 27.5091 73.6014 26.8894C72.4411 26.5461 71.2807 26.1475 70.2033 25.6107C65.7987 23.4124 65.9526 17.2554 68.9956 14.5361C72.3148 11.5721 76.1905 11.1775 80.3306 12.2628C83.0184 12.9653 85.0904 14.5085 86.4797 17.0107C85.1338 17.7725 83.8275 18.5145 82.525 19.2525C80.1175 16.1464 76.5457 15.3018 73.5935 17.1015C71.6281 18.3013 71.5649 20.8667 73.6409 21.8021C75.4406 22.6112 77.4535 22.9427 79.3479 23.5623C80.9582 24.0912 82.6 24.5924 84.1116 25.3502C87.8452 27.221 87.9636 32.6359 85.7179 35.371C83.8472 37.6483 81.3884 38.7494 78.5585 39.0296C74.7894 39.4006 71.186 38.9112 68.2891 36.1525C67.4485 35.3513 66.8012 34.3488 66 33.3661C67.4563 32.5609 68.7627 31.8347 70.1007 31.0927L70.1046 31.0888Z" fill="white"/>
<path d="M209.945 33.2793C211.268 32.5452 212.578 31.823 213.951 31.0612C214.891 32.857 216.26 34.0845 218.222 34.4554C220.325 34.8541 222.437 34.8896 224.288 33.599C226.36 32.1545 226.186 29.6523 223.854 28.7129C222.046 27.9828 220.077 27.6631 218.198 27.0987C216.789 26.6764 215.341 26.2896 214.03 25.6463C210.261 23.7913 209.977 19.5525 211.22 16.7582C212.278 14.3783 214.208 12.9694 216.659 12.2945C220.858 11.1381 224.801 11.6196 228.227 14.4889C229.016 15.148 229.6 16.0478 230.358 16.9319C228.902 17.7607 227.575 18.5145 226.257 19.2605C224.019 16.2017 220.317 15.3019 217.417 17.0424C216.39 17.6581 215.873 18.5422 215.873 19.7104C215.873 20.8471 216.6 21.5693 217.555 21.9206C219.086 22.481 220.681 22.8796 222.247 23.3454C223.751 23.7953 225.294 24.1544 226.755 24.7149C232.102 26.7751 232.217 33.6148 228.112 36.7367C225.113 39.0179 221.73 39.4323 218.123 38.935C214.626 38.4496 211.895 36.8156 210.131 33.7016C210.068 33.5911 210.024 33.4648 209.941 33.2754L209.945 33.2793Z" fill="white"/>
<path d="M197.174 0.225342H202.364V38.4575H197.174V0.225342Z" fill="white"/>
<path d="M148.097 38.4812H142.911C142.887 38.2128 142.84 37.9326 142.84 37.6523C142.836 32.5018 142.816 27.3553 142.84 22.2048C142.867 17.449 145.287 13.8219 149.427 12.3498C152.02 11.4262 154.644 11.5644 157.261 12.3379C157.892 12.5234 158.129 12.8549 158.098 13.5417C158.035 14.9467 158.078 16.3518 158.078 17.6542C156.712 17.3779 155.394 16.9556 154.052 16.8688C150.769 16.6557 148.432 18.7395 148.223 22.0311C148.089 24.1545 148.112 26.2897 148.097 28.4209C148.077 31.4046 148.093 34.3884 148.093 37.3721V38.4812H148.097Z" fill="white"/>
<path d="M128.828 12.2668H133.994V38.4693H128.828V12.2668Z" fill="white"/>
<path d="M131.397 7.0098C129.471 7.0019 127.904 5.4113 127.928 3.48137C127.952 1.63034 129.538 0.0279566 131.381 0.000336597C133.232 -0.0272934 134.851 1.65008 134.831 3.5682C134.811 5.4903 133.292 7.0137 131.397 7.0058V7.0098Z" fill="white"/>
</svg>
