<svg width="116" height="25" viewBox="0 0 116 25" fill="none" xmlns="http://www.w3.org/2000/svg">
<path d="M46.6532 17.7097V24.7439H44.0392C44.0273 24.6291 44.0056 24.5144 44.0056 24.3996C44.0056 20.6749 43.9918 16.9521 44.0076 13.2273C44.0194 10.5026 45.3065 8.4426 48.0333 7.33886C52.4319 5.55937 57.4052 7.92717 57.9479 12.3695C58.4712 16.6606 54.9886 19.8808 50.2819 19.4236C49.0833 19.3071 48.2269 18.879 46.6532 17.7097ZM55.3382 13.1344C55.3517 10.8741 53.4703 9.09099 51.0557 9.07825C48.5841 9.06552 46.6827 10.8176 46.6552 13.1344C46.6296 15.3274 48.5605 17.1524 50.9277 17.1779C53.3913 17.2034 55.3222 15.4312 55.3382 13.1344Z" fill="white"/>
<path d="M93.9637 19.4032H91.6586V17.4333C91.1591 17.8988 90.7215 18.4462 90.1671 18.8037C86.9813 20.8611 82.902 19.4088 81.4761 15.7446C79.8437 11.5496 82.5864 7.09777 86.9975 6.76447C90.7322 6.4833 93.942 9.10493 93.9891 13.3129C94.0113 15.2455 93.9928 17.1782 93.9928 19.1109C93.9928 19.2003 93.9766 19.2897 93.9655 19.4014L93.9637 19.4032ZM87.508 9.09186C85.2745 9.0863 83.4527 10.8961 83.4763 13.2179C83.5003 15.523 85.1502 17.3569 87.4956 17.3626C89.7914 17.3681 91.5236 15.5937 91.5181 13.2328C91.5149 10.8458 89.7711 9.09748 87.508 9.09375V9.09186Z" fill="white"/>
<path d="M106.002 16.9727C106.63 16.6246 107.252 16.2821 107.904 15.9208C108.351 16.7724 109.001 17.3546 109.932 17.5305C110.931 17.7196 111.934 17.7364 112.813 17.1244C113.797 16.4393 113.714 15.2526 112.607 14.807C111.748 14.4608 110.813 14.3091 109.921 14.0415C109.252 13.8412 108.564 13.6577 107.942 13.3526C106.152 12.4729 106.017 10.4625 106.607 9.13729C107.11 8.00858 108.026 7.34038 109.19 7.0203C111.184 6.47186 113.057 6.70022 114.683 8.06104C115.058 8.37363 115.335 8.80037 115.695 9.21967C115.004 9.61275 114.374 9.97025 113.748 10.3241C112.685 8.87336 110.927 8.44662 109.55 9.27208C109.062 9.56409 108.817 9.98339 108.817 10.5374C108.817 11.0765 109.162 11.419 109.616 11.5857C110.343 11.8514 111.1 12.0405 111.844 12.2614C112.558 12.4748 113.291 12.6451 113.984 12.9109C116.524 13.888 116.578 17.1318 114.629 18.6125C113.205 19.6944 111.598 19.8909 109.885 19.6551C108.225 19.4248 106.928 18.6499 106.09 17.173C106.06 17.1206 106.039 17.0607 106 16.9709L106.002 16.9727Z" fill="white"/>
<path d="M100 0.743896H102V19.7439H100V0.743896Z" fill="white"/>
<path d="M72.0699 19.7439H70.0325C70.023 19.6136 70.0046 19.4775 70.0046 19.3414C70.003 16.8407 69.9951 14.3419 70.0046 11.8411C70.0152 9.53205 70.9659 7.77097 72.5924 7.05621C73.6111 6.60777 74.642 6.67487 75.6701 7.05043C75.918 7.1405 76.0111 7.30146 75.999 7.63492C75.9742 8.3171 75.9911 8.99932 75.9911 9.63168C75.4544 9.49753 74.9366 9.29248 74.4094 9.25034C73.1196 9.14687 72.2015 10.1586 72.1194 11.7568C72.0667 12.7878 72.0758 13.8245 72.0699 14.8593C72.062 16.308 72.0683 17.7567 72.0683 19.2054V19.7439H72.0699Z" fill="white"/>
<path d="M63 6.7439H66V19.7439H63V6.7439Z" fill="white"/>
<path d="M31.9358 15.9286C32.0698 16.1175 32.174 16.2878 32.3006 16.4393C33.2945 17.6515 35.3252 18.0107 36.6951 17.2325C37.2294 16.9294 37.5141 16.4898 37.4936 15.8688C37.4732 15.2664 37.0823 14.9203 36.576 14.7632C35.5895 14.4564 34.5769 14.2319 33.5849 13.9382C33.0377 13.7755 32.4904 13.5865 31.9823 13.3321C29.9051 12.2902 29.9776 9.37186 31.4127 8.08296C32.9781 6.67809 34.8059 6.49105 36.7584 7.00546C38.026 7.33843 39.0032 8.06988 39.6584 9.25587C39.0236 9.61695 38.4076 9.96865 37.7933 10.3184C36.6579 8.84621 34.9734 8.44589 33.5811 9.29891C32.6542 9.86759 32.6244 11.0835 33.6035 11.5269C34.4523 11.9104 35.4015 12.0675 36.295 12.3612C37.0544 12.6119 37.8287 12.8494 38.5416 13.2086C40.3023 14.0954 40.3582 16.6619 39.2991 17.9583C38.4169 19.0377 37.2573 19.5596 35.9227 19.6924C34.1451 19.8682 32.4458 19.6363 31.0796 18.3287C30.6831 17.949 30.3779 17.4738 30 17.008C30.6868 16.6264 31.3029 16.2822 31.9339 15.9305L31.9358 15.9286Z" fill="white"/>
<mask id="mask0_0_1" style="mask-type:alpha" maskUnits="userSpaceOnUse" x="0" y="5" width="24" height="16">
<path d="M11.769 5.48584C5.33391 5.48584 0.117188 8.74626 0.117188 12.7682C0.117188 16.7902 5.33391 20.0506 11.769 20.0506C18.2042 20.0506 23.4209 16.7902 23.4209 12.7682C23.4209 8.74626 18.2042 5.48584 11.769 5.48584Z" fill="white"/>
</mask>
<g mask="url(#mask0_0_1)">
<path d="M19.2326 12.7683C19.2326 19.7269 14.7728 23.1345 13.6607 23.8295C12.8994 24.3054 12.3463 24.4795 12.1184 24.5397C11.9864 24.5746 11.8954 24.5893 11.845 24.5958C11.7938 24.6023 11.7691 24.6023 11.7681 24.6023V-13.6304C5.54096 -13.6304 -1.0039 -12.0909 -6.60259 -8.59167C-11.9318 -5.26088 -19 1.78793 -19 12.7683H19.2326ZM11.7681 24.6023C11.7672 24.6023 11.7425 24.6023 11.6913 24.5958C11.641 24.5893 11.5499 24.5746 11.418 24.5397C11.19 24.4795 10.6369 24.3054 9.87562 23.8295C8.76351 23.1345 4.30368 19.7269 4.30368 12.7683H42.5363C42.5363 1.78793 35.4682 -5.26088 30.1389 -8.59167C24.5402 -12.0909 17.9953 -13.6304 11.7681 -13.6304V24.6023ZM4.30368 12.7683C4.30368 5.80986 8.76351 2.40229 9.87562 1.70722C10.6369 1.2314 11.19 1.0573 11.418 0.997046C11.5499 0.962173 11.641 0.947413 11.6913 0.940975C11.7425 0.934427 11.7672 0.93448 11.7681 0.93448V39.1671C17.9953 39.1671 24.5402 37.6276 30.1389 34.1284C35.4682 30.7976 42.5363 23.7488 42.5363 12.7683H4.30368ZM11.7681 0.93448C11.7691 0.93448 11.7938 0.934427 11.845 0.940975C11.8954 0.947413 11.9864 0.962173 12.1184 0.997046C12.3463 1.0573 12.8994 1.2314 13.6607 1.70722C14.7728 2.40229 19.2326 5.80986 19.2326 12.7683H-19C-19 23.7488 -11.9318 30.7976 -6.60259 34.1284C-1.0039 37.6276 5.54096 39.1671 11.7681 39.1671V0.93448Z" fill="#FF7070" fill-opacity="0.5"/>
</g>
<mask id="mask1_0_1" style="mask-type:alpha" maskUnits="userSpaceOnUse" x="2" y="3" width="20" height="20">
<path d="M6.7026 7.70285C2.15225 12.2532 0.768953 18.2474 3.61288 21.0914C6.45688 23.9353 12.4511 22.552 17.0015 18.0017C21.5518 13.4513 22.9351 7.45708 20.0911 4.61313C17.2472 1.7692 11.2529 3.15249 6.7026 7.70285Z" fill="white"/>
</mask>
<g mask="url(#mask1_0_1)">
<path d="M17.131 7.57408C22.0514 12.4945 21.3073 18.0576 21.0124 19.3355C20.8105 20.2103 20.5426 20.7245 20.424 20.9282C20.3553 21.0462 20.3014 21.121 20.2703 21.1612C20.2388 21.202 20.2213 21.2195 20.2206 21.2201L-6.81394 -5.81446C-11.2172 -1.41117 -14.7566 4.30537 -16.2412 10.7385C-17.6543 16.8621 -17.668 26.8443 -9.90363 34.6087L17.131 7.57408ZM20.2206 21.2201C20.2199 21.2208 20.2025 21.2383 20.1617 21.2698C20.1215 21.3009 20.0467 21.3549 19.9288 21.4235C19.7249 21.5421 19.2108 21.81 18.336 22.0119C17.0581 22.3068 11.495 23.0509 6.57458 18.1305L33.6091 -8.90408C25.8448 -16.6685 15.8626 -16.6548 9.73898 -15.2416C3.30582 -13.757 -2.41066 -10.2177 -6.81394 -5.81446L20.2206 21.2201ZM6.57458 18.1305C1.6542 13.2101 2.39825 7.64694 2.6931 6.36906C2.89501 5.49428 3.16297 4.98011 3.28157 4.77629C3.35016 4.65837 3.40414 4.58354 3.4352 4.54337C3.46675 4.50253 3.48424 4.48512 3.48491 4.48445L30.5195 31.519C34.9228 27.1157 38.4621 21.3992 39.9467 14.9661C41.3598 8.84246 41.3735 -1.13977 33.6091 -8.90408L6.57458 18.1305ZM3.48491 4.48445C3.48558 4.48378 3.50303 4.46624 3.54387 4.4347C3.584 4.40363 3.65887 4.34971 3.77679 4.28106C3.98057 4.16247 4.49478 3.89451 5.36957 3.69265C6.64744 3.39774 12.2105 2.65369 17.131 7.57408L-9.90363 34.6087C-2.13925 42.373 7.84297 42.3593 13.9665 40.9462C20.3997 39.4616 26.1162 35.9223 30.5195 31.519L3.48491 4.48445Z" fill="#FFF970" fill-opacity="0.5"/>
</g>
<mask id="mask2_0_1" style="mask-type:alpha" maskUnits="userSpaceOnUse" x="2" y="3" width="20" height="20">
<path d="M17.0014 7.70282C12.4511 3.15249 6.45686 1.76919 3.61291 4.61315C0.768945 7.4571 2.15225 13.4514 6.70258 18.0017C11.2529 22.552 17.2472 23.9353 20.0911 21.0914C22.9351 18.2474 21.5518 12.2531 17.0014 7.70282Z" fill="white"/>
</mask>
<g mask="url(#mask2_0_1)">
<path d="M17.131 18.1305C12.2105 23.0509 6.64744 22.3068 5.36957 22.0119C4.49478 21.81 3.98057 21.5421 3.77679 21.4235C3.65887 21.3549 3.58404 21.3009 3.54387 21.2698C3.50303 21.2383 3.48558 21.2208 3.48491 21.2201L30.5195 -5.81446C26.1162 -10.2177 20.3997 -13.757 13.9665 -15.2416C7.84297 -16.6548 -2.13925 -16.6685 -9.90363 -8.90413L17.131 18.1305ZM3.48491 21.2201C3.48424 21.2195 3.46675 21.202 3.4352 21.1612C3.40414 21.121 3.35016 21.0462 3.28157 20.9282C3.16297 20.7245 2.89501 20.2103 2.6931 19.3355C2.39825 18.0576 1.6542 12.4945 6.57458 7.57408L33.6091 34.6087C41.3735 26.8443 41.3598 16.8621 39.9467 10.7385C38.4621 4.30537 34.9228 -1.41117 30.5195 -5.81446L3.48491 21.2201ZM6.57458 7.57408C11.495 2.65369 17.0581 3.39774 18.336 3.69265C19.2108 3.89451 19.7249 4.16247 19.9288 4.28106C20.0467 4.34966 20.1215 4.40363 20.1617 4.4347C20.2025 4.46624 20.2199 4.48378 20.2206 4.48446L-6.81394 31.519C-2.41066 35.9223 3.30582 39.4616 9.73898 40.9461C15.8626 42.3593 25.8448 42.373 33.6091 34.6087L6.57458 7.57408ZM20.2206 4.48446C20.2213 4.48513 20.2388 4.50253 20.2703 4.54337C20.3014 4.58354 20.3554 4.65837 20.424 4.77629C20.5426 4.98007 20.8105 5.49428 21.0124 6.36906C21.3073 7.64694 22.0514 13.2101 17.131 18.1305L-9.90363 -8.90413C-17.668 -1.13976 -17.6543 8.84246 -16.2412 14.9661C-14.7566 21.3992 -11.2172 27.1157 -6.81394 31.519L20.2206 4.48446Z" fill="#70E5FF" fill-opacity="0.5"/>
</g>
<mask id="mask3_0_1" style="mask-type:alpha" maskUnits="userSpaceOnUse" x="4" y="1" width="16" height="24">
<path d="M4.48633 12.7683C4.48633 19.2034 7.74675 24.4202 11.7687 24.4202C15.7907 24.4202 19.0511 19.2034 19.0511 12.7683C19.0511 6.33319 15.7907 1.11646 11.7687 1.11646C7.74675 1.11646 4.48633 6.33319 4.48633 12.7683Z" fill="white"/>
</mask>
<g mask="url(#mask3_0_1)">
<path d="M11.7679 5.30368C18.7263 5.30368 22.134 9.76351 22.829 10.8756C23.3049 11.6369 23.479 12.19 23.5392 12.418C23.5741 12.5499 23.5888 12.641 23.5953 12.6913C23.6018 12.7425 23.6018 12.7672 23.6018 12.7681H-14.6309C-14.6309 18.9953 -13.0913 25.5402 -9.59216 31.1389C-6.26139 36.4682 0.78741 43.5363 11.7679 43.5363V5.30368ZM23.6018 12.7681C23.6018 12.7691 23.6018 12.7938 23.5953 12.845C23.5888 12.8954 23.5741 12.9864 23.5392 13.1184C23.479 13.3463 23.3049 13.8993 22.829 14.6607C22.134 15.7728 18.7263 20.2326 11.7679 20.2326V-18C0.787405 -18 -6.2614 -10.9318 -9.59216 -5.60258C-13.0913 -0.00389196 -14.6309 6.54096 -14.6309 12.7681H23.6018ZM11.7679 20.2326C4.80936 20.2326 1.40177 15.7728 0.7067 14.6607C0.230877 13.8993 0.0567824 13.3463 -0.00347325 13.1184C-0.0383467 12.9864 -0.0531108 12.8954 -0.0595486 12.845C-0.0660967 12.7938 -0.0660439 12.7691 -0.0660439 12.7681H38.1666C38.1666 6.54096 36.6271 -0.00389653 33.1279 -5.60259C29.7971 -10.9318 22.7483 -18 11.7679 -18V20.2326ZM-0.0660439 12.7681C-0.0660439 12.7672 -0.0660967 12.7425 -0.0595486 12.6913C-0.0531108 12.641 -0.0383467 12.5499 -0.00347325 12.418C0.0567824 12.19 0.230877 11.6369 0.7067 10.8756C1.40177 9.76351 4.80936 5.30368 11.7679 5.30368V43.5363C22.7483 43.5363 29.7971 36.4681 33.1279 31.1389C36.6271 25.5402 38.1666 18.9953 38.1666 12.7681H-0.0660439Z" fill="#B1EAD5" fill-opacity="0.5"/>
</g>
<mask id="mask4_0_1" style="mask-type:alpha" maskUnits="userSpaceOnUse" x="0" y="5" width="24" height="16">
<path d="M11.769 5.48584C5.33391 5.48584 0.117188 8.74626 0.117188 12.7682C0.117188 16.7902 5.33391 20.0506 11.769 20.0506C18.2042 20.0506 23.4209 16.7902 23.4209 12.7682C23.4209 8.74626 18.2042 5.48584 11.769 5.48584Z" fill="white"/>
</mask>
<g mask="url(#mask4_0_1)">
<path d="M19.2326 12.7683C19.2326 19.7269 14.7728 23.1345 13.6607 23.8295C12.8994 24.3054 12.3463 24.4795 12.1184 24.5397C11.9864 24.5746 11.8954 24.5893 11.845 24.5958C11.7938 24.6023 11.7691 24.6023 11.7681 24.6023V-13.6304C5.54096 -13.6304 -1.0039 -12.0909 -6.60259 -8.59167C-11.9318 -5.26088 -19 1.78793 -19 12.7683H19.2326ZM11.7681 24.6023C11.7672 24.6023 11.7425 24.6023 11.6913 24.5958C11.641 24.5893 11.5499 24.5746 11.418 24.5397C11.19 24.4795 10.6369 24.3054 9.87562 23.8295C8.76351 23.1345 4.30368 19.7269 4.30368 12.7683H42.5363C42.5363 1.78793 35.4682 -5.26088 30.1389 -8.59167C24.5402 -12.0909 17.9953 -13.6304 11.7681 -13.6304V24.6023ZM4.30368 12.7683C4.30368 5.80986 8.76351 2.40229 9.87562 1.70722C10.6369 1.2314 11.19 1.0573 11.418 0.997046C11.5499 0.962173 11.641 0.947413 11.6913 0.940975C11.7425 0.934427 11.7672 0.93448 11.7681 0.93448V39.1671C17.9953 39.1671 24.5402 37.6276 30.1389 34.1284C35.4682 30.7976 42.5363 23.7488 42.5363 12.7683H4.30368ZM11.7681 0.93448C11.7691 0.93448 11.7938 0.934427 11.845 0.940975C11.8954 0.947413 11.9864 0.962173 12.1184 0.997046C12.3463 1.0573 12.8994 1.2314 13.6607 1.70722C14.7728 2.40229 19.2326 5.80986 19.2326 12.7683H-19C-19 23.7488 -11.9318 30.7976 -6.60259 34.1284C-1.0039 37.6276 5.54096 39.1671 11.7681 39.1671V0.93448Z" fill="#FF7070" fill-opacity="0.5"/>
</g>
<mask id="mask5_0_1" style="mask-type:alpha" maskUnits="userSpaceOnUse" x="2" y="3" width="20" height="20">
<path d="M6.7026 7.70285C2.15225 12.2532 0.768953 18.2474 3.61288 21.0914C6.45688 23.9353 12.4511 22.552 17.0015 18.0017C21.5518 13.4513 22.9351 7.45708 20.0911 4.61313C17.2472 1.7692 11.2529 3.15249 6.7026 7.70285Z" fill="white"/>
</mask>
<g mask="url(#mask5_0_1)">
<path d="M17.131 7.57408C22.0514 12.4945 21.3073 18.0576 21.0124 19.3355C20.8105 20.2103 20.5426 20.7245 20.424 20.9282C20.3553 21.0462 20.3014 21.121 20.2703 21.1612C20.2388 21.202 20.2213 21.2195 20.2206 21.2201L-6.81394 -5.81446C-11.2172 -1.41117 -14.7566 4.30537 -16.2412 10.7385C-17.6543 16.8621 -17.668 26.8443 -9.90363 34.6087L17.131 7.57408ZM20.2206 21.2201C20.2199 21.2208 20.2025 21.2383 20.1617 21.2698C20.1215 21.3009 20.0467 21.3549 19.9288 21.4235C19.7249 21.5421 19.2108 21.81 18.336 22.0119C17.0581 22.3068 11.495 23.0509 6.57458 18.1305L33.6091 -8.90408C25.8448 -16.6685 15.8626 -16.6548 9.73898 -15.2416C3.30582 -13.757 -2.41066 -10.2177 -6.81394 -5.81446L20.2206 21.2201ZM6.57458 18.1305C1.6542 13.2101 2.39825 7.64694 2.6931 6.36906C2.89501 5.49428 3.16297 4.98011 3.28157 4.77629C3.35016 4.65837 3.40414 4.58354 3.4352 4.54337C3.46675 4.50253 3.48424 4.48512 3.48491 4.48445L30.5195 31.519C34.9228 27.1157 38.4621 21.3992 39.9467 14.9661C41.3598 8.84246 41.3735 -1.13977 33.6091 -8.90408L6.57458 18.1305ZM3.48491 4.48445C3.48558 4.48378 3.50303 4.46624 3.54387 4.4347C3.584 4.40363 3.65887 4.34971 3.77679 4.28106C3.98057 4.16247 4.49478 3.89451 5.36957 3.69265C6.64744 3.39774 12.2105 2.65369 17.131 7.57408L-9.90363 34.6087C-2.13925 42.373 7.84297 42.3593 13.9665 40.9462C20.3997 39.4616 26.1162 35.9223 30.5195 31.519L3.48491 4.48445Z" fill="#FFF970" fill-opacity="0.5"/>
</g>
<mask id="mask6_0_1" style="mask-type:alpha" maskUnits="userSpaceOnUse" x="2" y="3" width="20" height="20">
<path d="M17.0014 7.70282C12.4511 3.15249 6.45686 1.76919 3.61291 4.61315C0.768945 7.4571 2.15225 13.4514 6.70258 18.0017C11.2529 22.552 17.2472 23.9353 20.0911 21.0914C22.9351 18.2474 21.5518 12.2531 17.0014 7.70282Z" fill="white"/>
</mask>
<g mask="url(#mask6_0_1)">
<path d="M17.131 18.1305C12.2105 23.0509 6.64744 22.3068 5.36957 22.0119C4.49478 21.81 3.98057 21.5421 3.77679 21.4235C3.65887 21.3549 3.58404 21.3009 3.54387 21.2698C3.50303 21.2383 3.48558 21.2208 3.48491 21.2201L30.5195 -5.81446C26.1162 -10.2177 20.3997 -13.757 13.9665 -15.2416C7.84297 -16.6548 -2.13925 -16.6685 -9.90363 -8.90413L17.131 18.1305ZM3.48491 21.2201C3.48424 21.2195 3.46675 21.202 3.4352 21.1612C3.40414 21.121 3.35016 21.0462 3.28157 20.9282C3.16297 20.7245 2.89501 20.2103 2.6931 19.3355C2.39825 18.0576 1.6542 12.4945 6.57458 7.57408L33.6091 34.6087C41.3735 26.8443 41.3598 16.8621 39.9467 10.7385C38.4621 4.30537 34.9228 -1.41117 30.5195 -5.81446L3.48491 21.2201ZM6.57458 7.57408C11.495 2.65369 17.0581 3.39774 18.336 3.69265C19.2108 3.89451 19.7249 4.16247 19.9288 4.28106C20.0467 4.34966 20.1215 4.40363 20.1617 4.4347C20.2025 4.46624 20.2199 4.48378 20.2206 4.48446L-6.81394 31.519C-2.41066 35.9223 3.30582 39.4616 9.73898 40.9461C15.8626 42.3593 25.8448 42.373 33.6091 34.6087L6.57458 7.57408ZM20.2206 4.48446C20.2213 4.48513 20.2388 4.50253 20.2703 4.54337C20.3014 4.58354 20.3554 4.65837 20.424 4.77629C20.5426 4.98007 20.8105 5.49428 21.0124 6.36906C21.3073 7.64694 22.0514 13.2101 17.131 18.1305L-9.90363 -8.90413C-17.668 -1.13976 -17.6543 8.84246 -16.2412 14.9661C-14.7566 21.3992 -11.2172 27.1157 -6.81394 31.519L20.2206 4.48446Z" fill="#70E5FF" fill-opacity="0.5"/>
</g>
<mask id="mask7_0_1" style="mask-type:alpha" maskUnits="userSpaceOnUse" x="4" y="1" width="16" height="24">
<path d="M4.48633 12.7683C4.48633 19.2034 7.74675 24.4202 11.7687 24.4202C15.7907 24.4202 19.0511 19.2034 19.0511 12.7683C19.0511 6.33319 15.7907 1.11646 11.7687 1.11646C7.74675 1.11646 4.48633 6.33319 4.48633 12.7683Z" fill="white"/>
</mask>
<g mask="url(#mask7_0_1)">
<path d="M11.7679 5.30368C18.7263 5.30368 22.134 9.76351 22.829 10.8756C23.3049 11.6369 23.479 12.19 23.5392 12.418C23.5741 12.5499 23.5888 12.641 23.5953 12.6913C23.6018 12.7425 23.6018 12.7672 23.6018 12.7681H-14.6309C-14.6309 18.9953 -13.0913 25.5402 -9.59216 31.1389C-6.26139 36.4682 0.78741 43.5363 11.7679 43.5363V5.30368ZM23.6018 12.7681C23.6018 12.7691 23.6018 12.7938 23.5953 12.845C23.5888 12.8954 23.5741 12.9864 23.5392 13.1184C23.479 13.3463 23.3049 13.8993 22.829 14.6607C22.134 15.7728 18.7263 20.2326 11.7679 20.2326V-18C0.787405 -18 -6.2614 -10.9318 -9.59216 -5.60258C-13.0913 -0.00389196 -14.6309 6.54096 -14.6309 12.7681H23.6018ZM11.7679 20.2326C4.80936 20.2326 1.40177 15.7728 0.7067 14.6607C0.230877 13.8993 0.0567824 13.3463 -0.00347325 13.1184C-0.0383467 12.9864 -0.0531108 12.8954 -0.0595486 12.845C-0.0660967 12.7938 -0.0660439 12.7691 -0.0660439 12.7681H38.1666C38.1666 6.54096 36.6271 -0.00389653 33.1279 -5.60259C29.7971 -10.9318 22.7483 -18 11.7679 -18V20.2326ZM-0.0660439 12.7681C-0.0660439 12.7672 -0.0660967 12.7425 -0.0595486 12.6913C-0.0531108 12.641 -0.0383467 12.5499 -0.00347325 12.418C0.0567824 12.19 0.230877 11.6369 0.7067 10.8756C1.40177 9.76351 4.80936 5.30368 11.7679 5.30368V43.5363C22.7483 43.5363 29.7971 36.4681 33.1279 31.1389C36.6271 25.5402 38.1666 18.9953 38.1666 12.7681H-0.0660439Z" fill="#B1EAD5" fill-opacity="0.5"/>
</g>
<mask id="mask8_0_1" style="mask-type:alpha" maskUnits="userSpaceOnUse" x="0" y="5" width="24" height="16">
<path d="M11.769 5.48584C5.33391 5.48584 0.117188 8.74626 0.117188 12.7682C0.117188 16.7902 5.33391 20.0506 11.769 20.0506C18.2042 20.0506 23.4209 16.7902 23.4209 12.7682C23.4209 8.74626 18.2042 5.48584 11.769 5.48584Z" fill="white"/>
</mask>
<g mask="url(#mask8_0_1)">
<path d="M19.2326 12.7683C19.2326 19.7269 14.7728 23.1345 13.6607 23.8295C12.8994 24.3054 12.3463 24.4795 12.1184 24.5397C11.9864 24.5746 11.8954 24.5893 11.845 24.5958C11.7938 24.6023 11.7691 24.6023 11.7681 24.6023V-13.6304C5.54096 -13.6304 -1.0039 -12.0909 -6.60259 -8.59167C-11.9318 -5.26088 -19 1.78793 -19 12.7683H19.2326ZM11.7681 24.6023C11.7672 24.6023 11.7425 24.6023 11.6913 24.5958C11.641 24.5893 11.5499 24.5746 11.418 24.5397C11.19 24.4795 10.6369 24.3054 9.87562 23.8295C8.76351 23.1345 4.30368 19.7269 4.30368 12.7683H42.5363C42.5363 1.78793 35.4682 -5.26088 30.1389 -8.59167C24.5402 -12.0909 17.9953 -13.6304 11.7681 -13.6304V24.6023ZM4.30368 12.7683C4.30368 5.80986 8.76351 2.40229 9.87562 1.70722C10.6369 1.2314 11.19 1.0573 11.418 0.997046C11.5499 0.962173 11.641 0.947413 11.6913 0.940975C11.7425 0.934427 11.7672 0.93448 11.7681 0.93448V39.1671C17.9953 39.1671 24.5402 37.6276 30.1389 34.1284C35.4682 30.7976 42.5363 23.7488 42.5363 12.7683H4.30368ZM11.7681 0.93448C11.7691 0.93448 11.7938 0.934427 11.845 0.940975C11.8954 0.947413 11.9864 0.962173 12.1184 0.997046C12.3463 1.0573 12.8994 1.2314 13.6607 1.70722C14.7728 2.40229 19.2326 5.80986 19.2326 12.7683H-19C-19 23.7488 -11.9318 30.7976 -6.60259 34.1284C-1.0039 37.6276 5.54096 39.1671 11.7681 39.1671V0.93448Z" fill="#FF7070" fill-opacity="0.5"/>
</g>
<mask id="mask9_0_1" style="mask-type:alpha" maskUnits="userSpaceOnUse" x="2" y="3" width="20" height="20">
<path d="M6.7026 7.70285C2.15225 12.2532 0.768953 18.2474 3.61288 21.0914C6.45688 23.9353 12.4511 22.552 17.0015 18.0017C21.5518 13.4513 22.9351 7.45708 20.0911 4.61313C17.2472 1.7692 11.2529 3.15249 6.7026 7.70285Z" fill="white"/>
</mask>
<g mask="url(#mask9_0_1)">
<path d="M17.131 7.57408C22.0514 12.4945 21.3073 18.0576 21.0124 19.3355C20.8105 20.2103 20.5426 20.7245 20.424 20.9282C20.3553 21.0462 20.3014 21.121 20.2703 21.1612C20.2388 21.202 20.2213 21.2195 20.2206 21.2201L-6.81394 -5.81446C-11.2172 -1.41117 -14.7566 4.30537 -16.2412 10.7385C-17.6543 16.8621 -17.668 26.8443 -9.90363 34.6087L17.131 7.57408ZM20.2206 21.2201C20.2199 21.2208 20.2025 21.2383 20.1617 21.2698C20.1215 21.3009 20.0467 21.3549 19.9288 21.4235C19.7249 21.5421 19.2108 21.81 18.336 22.0119C17.0581 22.3068 11.495 23.0509 6.57458 18.1305L33.6091 -8.90408C25.8448 -16.6685 15.8626 -16.6548 9.73898 -15.2416C3.30582 -13.757 -2.41066 -10.2177 -6.81394 -5.81446L20.2206 21.2201ZM6.57458 18.1305C1.6542 13.2101 2.39825 7.64694 2.6931 6.36906C2.89501 5.49428 3.16297 4.98011 3.28157 4.77629C3.35016 4.65837 3.40414 4.58354 3.4352 4.54337C3.46675 4.50253 3.48424 4.48512 3.48491 4.48445L30.5195 31.519C34.9228 27.1157 38.4621 21.3992 39.9467 14.9661C41.3598 8.84246 41.3735 -1.13977 33.6091 -8.90408L6.57458 18.1305ZM3.48491 4.48445C3.48558 4.48378 3.50303 4.46624 3.54387 4.4347C3.584 4.40363 3.65887 4.34971 3.77679 4.28106C3.98057 4.16247 4.49478 3.89451 5.36957 3.69265C6.64744 3.39774 12.2105 2.65369 17.131 7.57408L-9.90363 34.6087C-2.13925 42.373 7.84297 42.3593 13.9665 40.9462C20.3997 39.4616 26.1162 35.9223 30.5195 31.519L3.48491 4.48445Z" fill="#FFF970" fill-opacity="0.5"/>
</g>
<mask id="mask10_0_1" style="mask-type:alpha" maskUnits="userSpaceOnUse" x="2" y="3" width="20" height="20">
<path d="M17.0014 7.70282C12.4511 3.15249 6.45686 1.76919 3.61291 4.61315C0.768945 7.4571 2.15225 13.4514 6.70258 18.0017C11.2529 22.552 17.2472 23.9353 20.0911 21.0914C22.9351 18.2474 21.5518 12.2531 17.0014 7.70282Z" fill="white"/>
</mask>
<g mask="url(#mask10_0_1)">
<path d="M17.131 18.1305C12.2105 23.0509 6.64744 22.3068 5.36957 22.0119C4.49478 21.81 3.98057 21.5421 3.77679 21.4235C3.65887 21.3549 3.58404 21.3009 3.54387 21.2698C3.50303 21.2383 3.48558 21.2208 3.48491 21.2201L30.5195 -5.81446C26.1162 -10.2177 20.3997 -13.757 13.9665 -15.2416C7.84297 -16.6548 -2.13925 -16.6685 -9.90363 -8.90413L17.131 18.1305ZM3.48491 21.2201C3.48424 21.2195 3.46675 21.202 3.4352 21.1612C3.40414 21.121 3.35016 21.0462 3.28157 20.9282C3.16297 20.7245 2.89501 20.2103 2.6931 19.3355C2.39825 18.0576 1.6542 12.4945 6.57458 7.57408L33.6091 34.6087C41.3735 26.8443 41.3598 16.8621 39.9467 10.7385C38.4621 4.30537 34.9228 -1.41117 30.5195 -5.81446L3.48491 21.2201ZM6.57458 7.57408C11.495 2.65369 17.0581 3.39774 18.336 3.69265C19.2108 3.89451 19.7249 4.16247 19.9288 4.28106C20.0467 4.34966 20.1215 4.40363 20.1617 4.4347C20.2025 4.46624 20.2199 4.48378 20.2206 4.48446L-6.81394 31.519C-2.41066 35.9223 3.30582 39.4616 9.73898 40.9461C15.8626 42.3593 25.8448 42.373 33.6091 34.6087L6.57458 7.57408ZM20.2206 4.48446C20.2213 4.48513 20.2388 4.50253 20.2703 4.54337C20.3014 4.58354 20.3554 4.65837 20.424 4.77629C20.5426 4.98007 20.8105 5.49428 21.0124 6.36906C21.3073 7.64694 22.0514 13.2101 17.131 18.1305L-9.90363 -8.90413C-17.668 -1.13976 -17.6543 8.84246 -16.2412 14.9661C-14.7566 21.3992 -11.2172 27.1157 -6.81394 31.519L20.2206 4.48446Z" fill="#70E5FF" fill-opacity="0.5"/>
</g>
<mask id="mask11_0_1" style="mask-type:alpha" maskUnits="userSpaceOnUse" x="4" y="1" width="16" height="24">
<path d="M4.48633 12.7683C4.48633 19.2034 7.74675 24.4202 11.7687 24.4202C15.7907 24.4202 19.0511 19.2034 19.0511 12.7683C19.0511 6.33319 15.7907 1.11646 11.7687 1.11646C7.74675 1.11646 4.48633 6.33319 4.48633 12.7683Z" fill="white"/>
</mask>
<g mask="url(#mask11_0_1)">
<path d="M11.7679 5.30368C18.7263 5.30368 22.134 9.76351 22.829 10.8756C23.3049 11.6369 23.479 12.19 23.5392 12.418C23.5741 12.5499 23.5888 12.641 23.5953 12.6913C23.6018 12.7425 23.6018 12.7672 23.6018 12.7681H-14.6309C-14.6309 18.9953 -13.0913 25.5402 -9.59216 31.1389C-6.26139 36.4682 0.78741 43.5363 11.7679 43.5363V5.30368ZM23.6018 12.7681C23.6018 12.7691 23.6018 12.7938 23.5953 12.845C23.5888 12.8954 23.5741 12.9864 23.5392 13.1184C23.479 13.3463 23.3049 13.8993 22.829 14.6607C22.134 15.7728 18.7263 20.2326 11.7679 20.2326V-18C0.787405 -18 -6.2614 -10.9318 -9.59216 -5.60258C-13.0913 -0.00389196 -14.6309 6.54096 -14.6309 12.7681H23.6018ZM11.7679 20.2326C4.80936 20.2326 1.40177 15.7728 0.7067 14.6607C0.230877 13.8993 0.0567824 13.3463 -0.00347325 13.1184C-0.0383467 12.9864 -0.0531108 12.8954 -0.0595486 12.845C-0.0660967 12.7938 -0.0660439 12.7691 -0.0660439 12.7681H38.1666C38.1666 6.54096 36.6271 -0.00389653 33.1279 -5.60259C29.7971 -10.9318 22.7483 -18 11.7679 -18V20.2326ZM-0.0660439 12.7681C-0.0660439 12.7672 -0.0660967 12.7425 -0.0595486 12.6913C-0.0531108 12.641 -0.0383467 12.5499 -0.00347325 12.418C0.0567824 12.19 0.230877 11.6369 0.7067 10.8756C1.40177 9.76351 4.80936 5.30368 11.7679 5.30368V43.5363C22.7483 43.5363 29.7971 36.4681 33.1279 31.1389C36.6271 25.5402 38.1666 18.9953 38.1666 12.7681H-0.0660439Z" fill="#B1EAD5" fill-opacity="0.5"/>
</g>
<mask id="mask12_0_1" style="mask-type:alpha" maskUnits="userSpaceOnUse" x="0" y="5" width="24" height="16">
<path d="M11.769 5.48584C5.33391 5.48584 0.117188 8.74626 0.117188 12.7682C0.117188 16.7902 5.33391 20.0506 11.769 20.0506C18.2042 20.0506 23.4209 16.7902 23.4209 12.7682C23.4209 8.74626 18.2042 5.48584 11.769 5.48584Z" fill="white"/>
</mask>
<g mask="url(#mask12_0_1)">
<path d="M19.2326 12.7683C19.2326 19.7269 14.7728 23.1345 13.6607 23.8295C12.8994 24.3054 12.3463 24.4795 12.1184 24.5397C11.9864 24.5746 11.8954 24.5893 11.845 24.5958C11.7938 24.6023 11.7691 24.6023 11.7681 24.6023V-13.6304C5.54096 -13.6304 -1.0039 -12.0909 -6.60259 -8.59167C-11.9318 -5.26088 -19 1.78793 -19 12.7683H19.2326ZM11.7681 24.6023C11.7672 24.6023 11.7425 24.6023 11.6913 24.5958C11.641 24.5893 11.5499 24.5746 11.418 24.5397C11.19 24.4795 10.6369 24.3054 9.87562 23.8295C8.76351 23.1345 4.30368 19.7269 4.30368 12.7683H42.5363C42.5363 1.78793 35.4682 -5.26088 30.1389 -8.59167C24.5402 -12.0909 17.9953 -13.6304 11.7681 -13.6304V24.6023ZM4.30368 12.7683C4.30368 5.80986 8.76351 2.40229 9.87562 1.70722C10.6369 1.2314 11.19 1.0573 11.418 0.997046C11.5499 0.962173 11.641 0.947413 11.6913 0.940975C11.7425 0.934427 11.7672 0.93448 11.7681 0.93448V39.1671C17.9953 39.1671 24.5402 37.6276 30.1389 34.1284C35.4682 30.7976 42.5363 23.7488 42.5363 12.7683H4.30368ZM11.7681 0.93448C11.7691 0.93448 11.7938 0.934427 11.845 0.940975C11.8954 0.947413 11.9864 0.962173 12.1184 0.997046C12.3463 1.0573 12.8994 1.2314 13.6607 1.70722C14.7728 2.40229 19.2326 5.80986 19.2326 12.7683H-19C-19 23.7488 -11.9318 30.7976 -6.60259 34.1284C-1.0039 37.6276 5.54096 39.1671 11.7681 39.1671V0.93448Z" fill="#FF7070" fill-opacity="0.5"/>
</g>
<mask id="mask13_0_1" style="mask-type:alpha" maskUnits="userSpaceOnUse" x="2" y="3" width="20" height="20">
<path d="M6.7026 7.70285C2.15225 12.2532 0.768953 18.2474 3.61288 21.0914C6.45688 23.9353 12.4511 22.552 17.0015 18.0017C21.5518 13.4513 22.9351 7.45708 20.0911 4.61313C17.2472 1.7692 11.2529 3.15249 6.7026 7.70285Z" fill="white"/>
</mask>
<g mask="url(#mask13_0_1)">
<path d="M17.131 7.57408C22.0514 12.4945 21.3073 18.0576 21.0124 19.3355C20.8105 20.2103 20.5426 20.7245 20.424 20.9282C20.3553 21.0462 20.3014 21.121 20.2703 21.1612C20.2388 21.202 20.2213 21.2195 20.2206 21.2201L-6.81394 -5.81446C-11.2172 -1.41117 -14.7566 4.30537 -16.2412 10.7385C-17.6543 16.8621 -17.668 26.8443 -9.90363 34.6087L17.131 7.57408ZM20.2206 21.2201C20.2199 21.2208 20.2025 21.2383 20.1617 21.2698C20.1215 21.3009 20.0467 21.3549 19.9288 21.4235C19.7249 21.5421 19.2108 21.81 18.336 22.0119C17.0581 22.3068 11.495 23.0509 6.57458 18.1305L33.6091 -8.90408C25.8448 -16.6685 15.8626 -16.6548 9.73898 -15.2416C3.30582 -13.757 -2.41066 -10.2177 -6.81394 -5.81446L20.2206 21.2201ZM6.57458 18.1305C1.6542 13.2101 2.39825 7.64694 2.6931 6.36906C2.89501 5.49428 3.16297 4.98011 3.28157 4.77629C3.35016 4.65837 3.40414 4.58354 3.4352 4.54337C3.46675 4.50253 3.48424 4.48512 3.48491 4.48445L30.5195 31.519C34.9228 27.1157 38.4621 21.3992 39.9467 14.9661C41.3598 8.84246 41.3735 -1.13977 33.6091 -8.90408L6.57458 18.1305ZM3.48491 4.48445C3.48558 4.48378 3.50303 4.46624 3.54387 4.4347C3.584 4.40363 3.65887 4.34971 3.77679 4.28106C3.98057 4.16247 4.49478 3.89451 5.36957 3.69265C6.64744 3.39774 12.2105 2.65369 17.131 7.57408L-9.90363 34.6087C-2.13925 42.373 7.84297 42.3593 13.9665 40.9462C20.3997 39.4616 26.1162 35.9223 30.5195 31.519L3.48491 4.48445Z" fill="#FFF970" fill-opacity="0.5"/>
</g>
<mask id="mask14_0_1" style="mask-type:alpha" maskUnits="userSpaceOnUse" x="2" y="3" width="20" height="20">
<path d="M17.0014 7.70282C12.4511 3.15249 6.45686 1.76919 3.61291 4.61315C0.768945 7.4571 2.15225 13.4514 6.70258 18.0017C11.2529 22.552 17.2472 23.9353 20.0911 21.0914C22.9351 18.2474 21.5518 12.2531 17.0014 7.70282Z" fill="white"/>
</mask>
<g mask="url(#mask14_0_1)">
<path d="M17.131 18.1305C12.2105 23.0509 6.64744 22.3068 5.36957 22.0119C4.49478 21.81 3.98057 21.5421 3.77679 21.4235C3.65887 21.3549 3.58404 21.3009 3.54387 21.2698C3.50303 21.2383 3.48558 21.2208 3.48491 21.2201L30.5195 -5.81446C26.1162 -10.2177 20.3997 -13.757 13.9665 -15.2416C7.84297 -16.6548 -2.13925 -16.6685 -9.90363 -8.90413L17.131 18.1305ZM3.48491 21.2201C3.48424 21.2195 3.46675 21.202 3.4352 21.1612C3.40414 21.121 3.35016 21.0462 3.28157 20.9282C3.16297 20.7245 2.89501 20.2103 2.6931 19.3355C2.39825 18.0576 1.6542 12.4945 6.57458 7.57408L33.6091 34.6087C41.3735 26.8443 41.3598 16.8621 39.9467 10.7385C38.4621 4.30537 34.9228 -1.41117 30.5195 -5.81446L3.48491 21.2201ZM6.57458 7.57408C11.495 2.65369 17.0581 3.39774 18.336 3.69265C19.2108 3.89451 19.7249 4.16247 19.9288 4.28106C20.0467 4.34966 20.1215 4.40363 20.1617 4.4347C20.2025 4.46624 20.2199 4.48378 20.2206 4.48446L-6.81394 31.519C-2.41066 35.9223 3.30582 39.4616 9.73898 40.9461C15.8626 42.3593 25.8448 42.373 33.6091 34.6087L6.57458 7.57408ZM20.2206 4.48446C20.2213 4.48513 20.2388 4.50253 20.2703 4.54337C20.3014 4.58354 20.3554 4.65837 20.424 4.77629C20.5426 4.98007 20.8105 5.49428 21.0124 6.36906C21.3073 7.64694 22.0514 13.2101 17.131 18.1305L-9.90363 -8.90413C-17.668 -1.13976 -17.6543 8.84246 -16.2412 14.9661C-14.7566 21.3992 -11.2172 27.1157 -6.81394 31.519L20.2206 4.48446Z" fill="#70E5FF" fill-opacity="0.5"/>
</g>
<mask id="mask15_0_1" style="mask-type:alpha" maskUnits="userSpaceOnUse" x="4" y="1" width="16" height="24">
<path d="M4.48633 12.7683C4.48633 19.2034 7.74675 24.4202 11.7687 24.4202C15.7907 24.4202 19.0511 19.2034 19.0511 12.7683C19.0511 6.33319 15.7907 1.11646 11.7687 1.11646C7.74675 1.11646 4.48633 6.33319 4.48633 12.7683Z" fill="white"/>
</mask>
<g mask="url(#mask15_0_1)">
<path d="M11.7679 5.30368C18.7263 5.30368 22.134 9.76351 22.829 10.8756C23.3049 11.6369 23.479 12.19 23.5392 12.418C23.5741 12.5499 23.5888 12.641 23.5953 12.6913C23.6018 12.7425 23.6018 12.7672 23.6018 12.7681H-14.6309C-14.6309 18.9953 -13.0913 25.5402 -9.59216 31.1389C-6.26139 36.4682 0.78741 43.5363 11.7679 43.5363V5.30368ZM23.6018 12.7681C23.6018 12.7691 23.6018 12.7938 23.5953 12.845C23.5888 12.8954 23.5741 12.9864 23.5392 13.1184C23.479 13.3463 23.3049 13.8993 22.829 14.6607C22.134 15.7728 18.7263 20.2326 11.7679 20.2326V-18C0.787405 -18 -6.2614 -10.9318 -9.59216 -5.60258C-13.0913 -0.00389196 -14.6309 6.54096 -14.6309 12.7681H23.6018ZM11.7679 20.2326C4.80936 20.2326 1.40177 15.7728 0.7067 14.6607C0.230877 13.8993 0.0567824 13.3463 -0.00347325 13.1184C-0.0383467 12.9864 -0.0531108 12.8954 -0.0595486 12.845C-0.0660967 12.7938 -0.0660439 12.7691 -0.0660439 12.7681H38.1666C38.1666 6.54096 36.6271 -0.00389653 33.1279 -5.60259C29.7971 -10.9318 22.7483 -18 11.7679 -18V20.2326ZM-0.0660439 12.7681C-0.0660439 12.7672 -0.0660967 12.7425 -0.0595486 12.6913C-0.0531108 12.641 -0.0383467 12.5499 -0.00347325 12.418C0.0567824 12.19 0.230877 11.6369 0.7067 10.8756C1.40177 9.76351 4.80936 5.30368 11.7679 5.30368V43.5363C22.7483 43.5363 29.7971 36.4681 33.1279 31.1389C36.6271 25.5402 38.1666 18.9953 38.1666 12.7681H-0.0660439Z" fill="#B1EAD5" fill-opacity="0.5"/>
</g>
<circle cx="64.5" cy="3.2439" r="1.5" fill="white"/>
</svg>
