<svg width="228" height="44" viewBox="0 0 228 44" fill="none" xmlns="http://www.w3.org/2000/svg">
<path d="M33.0918 7.62568C34.5012 8.31813 36.4336 12.0051 36.4336 13.0997C36.4336 14.1942 35.3196 12.0051 33.0918 9.8148C30.8626 7.62568 30.8626 6.53114 33.0918 7.62568ZM33.3154 17.3807C34.0659 18.0829 34.5629 20.7664 34.3491 21.4552C34.1351 22.1441 33.8607 20.5562 32.8866 18.7583C31.9111 16.9604 32.1262 16.2716 33.3154 17.3807Z" fill="#6D619A"/>
<path fill-rule="evenodd" clip-rule="evenodd" d="M27.8573 5.19369C22.1042 7.78639 15.5169 13.0136 12.7434 15.9045C12.6369 15.999 12.5328 16.0969 12.431 16.1981C8.97273 19.6397 9.51416 25.7507 13.5163 30.2738C13.4884 30.2736 13.4606 30.2736 13.4327 30.2736C7.07247 30.2736 1.83395 32.3311 1.14602 34.9771C0.926916 35.581 1.00788 37.2809 1.05023 38.1702C1.06114 38.3994 1.06949 38.5745 1.06949 38.6634C1.06949 41.0931 6.67353 43.6124 13.4509 43.6124C20.2283 43.6124 25.722 41.4365 25.722 38.7531C25.722 38.6974 25.7257 38.5461 25.7308 38.335C25.7448 37.7549 25.7697 36.7227 25.7601 35.9774C25.7839 35.8429 25.7962 35.7069 25.7962 35.5699C25.7962 35.3259 25.7575 35.0859 25.6831 34.8507C27.0709 34.5291 28.336 33.8866 29.3696 32.9114C29.3445 32.937 29.3191 32.9626 29.2936 32.9882C29.0405 33.2402 28.7725 33.4713 28.4917 33.6817C30.225 32.7881 31.496 30.8896 33.0894 28.4283C38.1434 19.7363 42.9787 10.7163 43.854 4.43444C44.4735 -0.01181 42.6362 0.125466 38.1806 1.22002C36.0196 1.7509 29.7463 4.34211 27.8573 5.19369ZM25.4066 34.2459C24.1126 32.0918 19.7343 30.4681 14.4084 30.29C10.164 25.883 9.6506 19.8751 12.8853 16.6561C16.2221 13.3355 22.6124 13.8878 27.1833 18.32C31.7532 22.754 32.3849 29.0032 29.0615 32.3117H29.0613C28.0702 33.2987 26.8094 33.9436 25.4066 34.2459ZM36.4323 13.0998C36.4323 12.0052 34.4999 8.31821 33.0907 7.62577C30.8616 6.53123 30.8616 7.62577 33.0907 9.81489C34.032 10.7404 34.7745 11.6657 35.3181 12.3431V12.3431C36.0611 13.2689 36.4323 13.7318 36.4323 13.0998ZM34.348 21.4553C34.5618 20.7665 34.0648 18.0829 33.3144 17.3808C32.1251 16.2716 31.9098 16.9605 32.8853 18.7584C33.2967 19.5174 33.5831 20.239 33.7933 20.7676V20.7676C34.0805 21.4912 34.2243 21.8533 34.348 21.4553ZM24.3661 37.1774C24.9118 36.6248 25.1516 36.0824 25.1516 35.5699C25.1516 35.0573 24.9118 34.5147 24.3661 33.9621C23.8178 33.4069 22.9925 32.8772 21.9215 32.4184C19.7818 31.5018 16.7811 30.9191 13.4327 30.9191C10.0845 30.9191 7.08369 31.5018 4.94406 32.4184C3.87309 32.8772 3.04764 33.4069 2.49934 33.9621C1.95374 34.5147 1.71401 35.0573 1.71401 35.5699C1.71401 36.0824 1.95374 36.6248 2.49934 37.1774C3.04764 37.7328 3.87309 38.2625 4.94406 38.7213C7.08369 39.6377 10.0845 40.2204 13.4327 40.2204C16.7811 40.2204 19.7818 39.6377 21.9215 38.7213C22.9925 38.2625 23.8178 37.7328 24.3661 37.1774Z" fill="#8878C3"/>
<path d="M29.2126 32.464C25.7636 35.8988 19.2364 35.2808 14.6152 30.802C9.99588 26.32 9.29264 19.9276 12.7337 16.5032C16.1842 13.0694 22.7129 13.6854 27.3324 18.1652C31.9518 22.647 32.654 29.0383 29.2126 32.464Z" fill="#BFB7DE" stroke="#6D619A" stroke-width="2"/>
<path d="M25.3653 35.5698C25.3653 36.155 25.0901 36.7489 24.5179 37.3286C23.9438 37.91 23.0917 38.4533 22.0049 38.9189C19.8327 39.8495 16.8019 40.4355 13.4317 40.4355C10.0614 40.4355 7.03065 39.8495 4.85847 38.9189C3.77159 38.4533 2.91954 37.91 2.34546 37.3286C1.77319 36.7489 1.49805 36.155 1.49805 35.5698C1.49805 34.9843 1.77319 34.3904 2.34546 33.8107C2.91954 33.2293 3.77159 32.686 4.85847 32.2204C7.03065 31.29 10.0614 30.7039 13.4317 30.7039C16.8019 30.7039 19.8327 31.29 22.0049 32.2204C23.0917 32.686 23.9438 33.2293 24.5179 33.8107C25.0901 34.3904 25.3653 34.9843 25.3653 35.5698Z" fill="#E3DFF3" stroke="#6D619A" stroke-width="2"/>
<path d="M69.7526 37.0283C65.8566 37.0283 62.8343 36.0815 60.6857 34.188C58.5657 32.2945 57.5059 29.4256 57.5059 25.5811V6.99024H62.2756V25.6672C62.2756 28.0485 62.9202 29.8702 64.2093 31.1326C65.527 32.3662 67.3748 32.9831 69.7526 32.9831C72.1589 32.9831 74.0211 32.3662 75.3388 31.1326C76.6565 29.8702 77.3155 28.0485 77.3155 25.6672V6.99024H82.0852V25.5811C82.0852 29.4256 81.011 32.2945 78.8624 34.188C76.7424 36.0815 73.7059 37.0283 69.7526 37.0283ZM98.7955 37.0051C97.373 37.0051 96.0733 36.7174 94.897 36.142C93.748 35.5666 92.8314 34.7309 92.1475 33.635H91.8602L91.4499 36.5119H88.0848V6.7981H92.3117V17.3603H92.5579C93.9259 15.3876 96.1008 14.4012 99.0828 14.4012C101.627 14.4012 103.638 15.3465 105.115 17.237C106.593 19.1001 107.331 21.9221 107.331 25.7031C107.331 29.539 106.593 32.3883 105.115 34.2515C103.638 36.0871 101.531 37.0051 98.7955 37.0051ZM97.6055 33.4296C99.548 33.4296 100.929 32.8542 101.75 31.7034C102.571 30.5527 102.981 28.6349 102.981 25.9497V25.5798C102.981 22.8401 102.571 20.8947 101.75 19.7439C100.929 18.5658 99.548 17.9767 97.6055 17.9767C95.7725 17.9767 94.4318 18.6206 93.5838 19.9083C92.7358 21.1961 92.3117 23.1002 92.3117 25.6209V25.9497C92.3117 28.4156 92.7358 30.2788 93.5838 31.539C94.4318 32.7993 95.7725 33.4296 97.6055 33.4296ZM120.678 37.0051C117.204 37.0051 114.619 36.0871 112.922 34.2515C111.226 32.4159 110.378 29.5663 110.378 25.7031C110.378 21.8399 111.226 18.9905 112.922 17.1548C114.619 15.3191 117.204 14.4012 120.678 14.4012C123.825 14.4012 126.177 15.2643 127.737 16.9904C129.296 18.6891 130.076 21.4016 130.076 25.1278V26.7717H114.728C114.837 29.1005 115.357 30.8266 116.287 31.95C117.245 33.0459 118.722 33.5939 120.719 33.5939C122.279 33.5939 123.537 33.2241 124.495 32.4843C125.452 31.7445 125.931 30.6076 125.931 29.0732H130.076C130.076 31.6486 129.2 33.6213 127.449 34.9913C125.726 36.3337 123.469 37.0051 120.678 37.0051ZM125.685 23.566C125.685 19.7302 124.016 17.8123 120.678 17.8123C118.818 17.8123 117.423 18.2781 116.492 19.2097C115.562 20.1138 115.002 21.566 114.81 23.566H125.685ZM142.168 37.0051C139.213 37.0051 136.956 36.3886 135.397 35.1557C133.865 33.9227 133.099 32.3748 133.099 30.5116C133.099 30.2101 133.099 30.0184 133.099 29.9362C133.126 29.8267 133.14 29.7581 133.14 29.7307H137.285V30.1006C137.285 31.2787 137.763 32.1693 138.721 32.772C139.678 33.3474 140.896 33.635 142.373 33.635C143.686 33.635 144.781 33.3885 145.656 32.8953C146.559 32.4021 147.01 31.7034 147.01 30.7993C147.01 30.0868 146.764 29.5115 146.272 29.0732C145.779 28.6073 145.177 28.2512 144.466 28.0046C143.755 27.7307 142.729 27.4155 141.388 27.0594C139.747 26.6484 138.406 26.2374 137.367 25.8264C136.327 25.4155 135.438 24.799 134.699 23.977C133.988 23.1551 133.632 22.0591 133.632 20.6892C133.632 18.7165 134.439 17.1822 136.053 16.0862C137.668 14.9629 139.815 14.4012 142.496 14.4012C144.165 14.4012 145.615 14.6615 146.846 15.1821C148.105 15.6752 149.062 16.3739 149.719 17.2781C150.403 18.1822 150.745 19.196 150.745 20.3193L150.704 21.1413H146.559V20.8536C146.559 19.9494 146.19 19.2234 145.451 18.6754C144.74 18.1 143.632 17.8123 142.127 17.8123C140.677 17.8123 139.61 18.0726 138.926 18.5932C138.269 19.0864 137.941 19.6755 137.941 20.3604C137.941 21.2098 138.352 21.8399 139.172 22.2509C139.993 22.6619 141.292 23.0729 143.071 23.4839C144.794 23.8948 146.203 24.3196 147.298 24.7579C148.392 25.1689 149.336 25.8264 150.129 26.7306C150.923 27.6074 151.319 28.7855 151.319 30.265C151.319 32.5665 150.485 34.2653 148.816 35.3612C147.175 36.457 144.959 37.0051 142.168 37.0051ZM153.027 14.8944H157.376L160.413 26.1141L161.685 31.539H161.85L162.999 26.1141L165.666 14.8944H170.467L173.258 26.1552C173.504 27.032 173.901 28.8266 174.448 31.539H174.653C175.228 28.991 175.638 27.1964 175.884 26.1552L178.839 14.8944H182.943L176.459 36.5119H171.945L169.031 24.388L168.046 19.8672H167.882C167.499 21.9495 167.184 23.4565 166.938 24.388L164.025 36.5119H159.469L153.027 14.8944ZM191.53 37.0051C189.752 37.0051 188.138 36.5668 186.688 35.6899C185.265 34.8131 184.554 33.2241 184.554 30.9226C184.554 28.1552 185.758 26.2374 188.165 25.1689C190.573 24.1003 194.02 23.566 198.506 23.566V21.429C198.506 20.2508 198.192 19.3604 197.562 18.7576C196.961 18.1274 195.825 17.8123 194.156 17.8123C192.542 17.8123 191.393 18.1 190.709 18.6754C190.053 19.2508 189.724 19.9494 189.724 20.7714V21.3057H185.621C185.593 21.1413 185.58 20.8399 185.58 20.4015C185.58 18.511 186.373 17.0452 187.96 16.004C189.547 14.9355 191.667 14.4012 194.321 14.4012C197.111 14.4012 199.204 14.9766 200.599 16.1273C202.022 17.2781 202.733 18.9083 202.733 21.018V32.0733C202.733 32.5665 202.87 32.9364 203.144 33.183C203.417 33.4022 203.759 33.5117 204.169 33.5117H205.647V36.3475C204.936 36.7036 203.964 36.8818 202.733 36.8818C201.748 36.8818 200.914 36.6214 200.23 36.1009C199.573 35.5529 199.136 34.8131 198.917 33.8816H198.629C197.863 34.868 196.879 35.6351 195.675 36.1831C194.498 36.7312 193.117 37.0051 191.53 37.0051ZM192.761 33.5528C194.375 33.5528 195.73 33.0734 196.824 32.1144C197.946 31.1281 198.506 29.7856 198.506 28.0868V26.7717C195.387 26.7717 193.007 27.0456 191.366 27.5936C189.724 28.1141 188.904 29.1143 188.904 30.5938C188.904 31.6075 189.218 32.361 189.847 32.8542C190.504 33.32 191.475 33.5528 192.761 33.5528ZM208.752 14.8944H212.117L212.527 17.7712H212.815C213.498 16.6753 214.415 15.8396 215.564 15.2643C216.741 14.6889 218.041 14.4012 219.463 14.4012C222.198 14.4012 224.306 15.3328 225.782 17.1959C227.26 19.0316 227.999 21.8673 227.999 25.7031C227.999 29.4841 227.26 32.3199 225.782 34.2104C224.306 36.0736 222.295 37.0051 219.749 37.0051C216.767 37.0051 214.593 36.0187 213.225 34.046H212.979V43.6218H208.752V14.8944ZM218.273 33.4296C220.215 33.4296 221.597 32.8542 222.418 31.7034C223.238 30.5527 223.649 28.6349 223.649 25.9497V25.5798C223.649 22.8401 223.238 20.8947 222.418 19.7439C221.597 18.5658 220.215 17.9767 218.273 17.9767C216.44 17.9767 215.099 18.6206 214.251 19.9083C213.403 21.1961 212.979 23.0866 212.979 25.5798V25.9086C212.979 28.3745 213.403 30.2512 214.251 31.539C215.099 32.7993 216.44 33.4296 218.273 33.4296Z" fill="white"/>
</svg>
